<ttFont>
        <CharString name=".notdef">
          972 -60 27 -2 34 -26 26 14 -21 hstemhm
          1243 10 351 8 hintmask 00101100
          1165 471 rmoveto
          -159 -180 -11 -2 -57 45 -2 12 rlinecurve
          147 191 -186 147 12 33 27 31 14 16 rlinecurve
          39 -27 78 -57 82 -66 151 191 rcurveline
          27 -12 33 -27 16 -14 -26 -39 -58 -72 -65 -88 80 -72 71 -57 33 -31 2 -10 -47 -57 -10 -2 rrcurveto
          579 776 rmoveto
          4 2 -2 2 -4 hhcurveto
          -143 -6 51 141 rlineto
          2 vlineto
          4 -4 0 -2 vhcurveto
          -152 -53 rlineto
          -2 vlineto
          8 -26 -33 6 -37 hhcurveto
          -117 -79 -55 -145 -82 hvcurveto
          -60 -88 -164 -13 -467 -94 -524 45 rcurveline
          -26 -5 -29 -16 19 hvcurveto
          88 -72 147 -45 146 -49 76 -125 122 -211 240 -131 -2 -16 -2 -31 18 -18 rrcurveto
          -16 -15 -10 0 -14 vvcurveto
          hintmask 10001100
          -23 84 -36 69 -58 vhcurveto
          -43 -2 -41 0 -32 -22 rrcurveto
          -6 2 -5 4 -6 vhcurveto
          9 35 35 5 32 hhcurveto
          14 14 -1 -2 13 hvcurveto
          49 -11 33 -43 27 -43 10 -2 4 4 2 6 -10 37 -19 27 -26 16 55 -8 12 -8 33 -31 rrcurveto
          6 6 4 -2 11 vvcurveto
          -47 63 -55 -6 -45 10 -57 47 -60 35 -55 35 6 6 10 6 15 8 32 -6 17 37 6 16 rrcurveto
          -6 39 35 -2 39 hhcurveto
          55 hlineto
          -8 2 14 -31 23 hhcurveto
          hintmask 00011100
          -15 -12 -8 -10 -8 vvcurveto
          -17 90 -12 88 -49 vhcurveto
          hintmask 01001100
          -41 -15 -20 3 -27 -31 2 -15 4 9 7 -6 rrcurveto
          20 47 12 8 45 hhcurveto
          51 2 41 -28 39 -39 rrcurveto
          hintmask 00101100
          10 2 7 4 2 6 -23 33 -27 14 -26 14 51 7 29 -15 39 -18 rrcurveto
          6 6 2 -2 10 vvcurveto
          33 -45 -45 5 -37 -16 -14 -1 -13 hhcurveto
          -64 31 -67 24 -64 23 25 24 rcurveline
          31 6 35 15 hvcurveto
          430 292 61 322 2 203 2 -2 rcurveline
          endchar
        </CharString>
        <CharString name=".null">
          -1004 endchar
        </CharString>
        <CharString name="A">
          43 11 -21 442 164 838 -20 hstem
          2 1045 vstem
          285 308 rmoveto
          4 13 2 8 8 vvcurveto
          35 -39 0 -47 -60 -24 0 -56 -19 vhcurveto
          -96 -275 rlineto
          -2 -6 -2 -6 -6 vvcurveto
          -23 18 -10 19 90 73 67 82 27 vhcurveto
          385 1252 rmoveto
          34 -12 -6 9 -23 hhcurveto
          -31 -110 -66 -65 -13 8 -26 2 -9 hvcurveto
          416 -1214 rlineto
          -29 10 15 -22 26 hhcurveto
          46 92 65 61 10 -5 17 -2 9 hvcurveto
          -444 280 rmoveto
          27 16 10 23 16 -8 52 -15 30 hvcurveto
          32 -16 -20 1 -62 hhcurveto
          -104 hlineto
          -19 -12 9 18 4 0 5 2 5 hvcurveto
          78 238 rlineto
          7 22 3 19 18 vvcurveto
          29 -16 61 -10 31 vhcurveto
          51 -17 -14 31 -23 hhcurveto
          -14 -10 -16 -23 -8 hvcurveto
          -205 -613 rlineto
          -3 -8 -1 -6 -6 vvcurveto
          -22 16 -11 22 vhcurveto
          endchar
        </CharString>
        <CharString name="AE">
          666 0 164 -153 -21 548 164 537 164 hstemhm
          2 1596 hintmask 10111000
          383 406 rmoveto
          6 12 4 17 8 vvcurveto
          35 -43 0 -47 -60 -19 -10 -46 -24 vhcurveto
          hintmask 01111000
          -185 -363 rlineto
          -12 -24 -1 -11 -6 vvcurveto
          -17 12 -11 19 92 85 73 76 40 vhcurveto
          398 399 rmoveto
          27 16 10 23 16 -9 64 -5 18 hvcurveto
          30 -8 -20 3 -32 hhcurveto
          -73 hlineto
          -23 -10 10 16 4 2 6 2 5 hvcurveto
          89 176 rlineto
          8 16 9 24 26 vvcurveto
          25 -4 44 -7 36 vhcurveto
          60 -12 -16 21 -23 hhcurveto
          -17 -13 -12 -22 -10 hvcurveto
          -253 -519 rlineto
          -10 -19 -5 -17 -14 vvcurveto
          -18 11 -12 26 vhcurveto
          549 865 rmoveto
          -78 -95 -87 -47 -28 15 -2 25 hvcurveto
          574 hlineto
          26 26 2 19 21 hvcurveto
          41 37 27 60 15 vvcurveto
          23 -15 8 -28 vhcurveto
          -603 -973 rmoveto
          -8 2 -15 2 -12 vhcurveto
          hintmask 10111000
          53 -336 rlineto
          -47 7 26 -12 23 hhcurveto
          571 hlineto
          27 26 2 18 21 hvcurveto
          41 36 26 63 14 vvcurveto
          23 -14 8 -29 vhcurveto
          -493 hlineto
          -23 -18 12 29 -5 hvcurveto
          -38 214 rlineto
          50 -9 -31 9 -69 hhcurveto
          hintmask 01111000
          -57 -39 -7 -41 hvcurveto
          -109 700 rmoveto
          -15 4 -15 2 -15 vhcurveto
          80 -483 rlineto
          -45 7 9 -19 50 hhcurveto
          471 hlineto
          27 26 2 19 21 hvcurveto
          41 37 26 61 14 vvcurveto
          23 -14 8 -29 vhcurveto
          -417 hlineto
          -23 -13 12 29 -5 hvcurveto
          -63 376 rlineto
          51 -9 -20 9 -69 hhcurveto
          -57 -45 -7 -42 hvcurveto
          endchar
        </CharString>
        <CharString name="Aacute">
          43 11 -21 442 164 838 -20 hstem
          2 1045 vstem
          285 308 rmoveto
          4 13 2 8 8 vvcurveto
          35 -39 0 -47 -60 -24 0 -56 -19 vhcurveto
          -96 -275 rlineto
          -2 -6 -2 -6 -6 vvcurveto
          -23 18 -10 19 90 73 67 82 27 vhcurveto
          385 1252 rmoveto
          34 -12 -6 9 -23 hhcurveto
          -31 -110 -66 -65 -13 8 -26 2 -9 hvcurveto
          416 -1214 rlineto
          -29 10 15 -22 26 hhcurveto
          46 92 65 61 10 -5 17 -2 9 hvcurveto
          -444 280 rmoveto
          27 16 10 23 16 -8 52 -15 30 hvcurveto
          32 -16 -20 1 -62 hhcurveto
          -104 hlineto
          -19 -12 9 18 4 0 5 2 5 hvcurveto
          78 238 rlineto
          7 22 3 19 18 vvcurveto
          29 -16 61 -10 31 vhcurveto
          51 -17 -14 31 -23 hhcurveto
          -14 -10 -16 -23 -8 hvcurveto
          -205 -613 rlineto
          -3 -8 -1 -6 -6 vvcurveto
          -22 16 -11 22 vhcurveto
          214 1362 rmoveto
          -59 -50 -25 -70 -54 vvcurveto
          -18 6 -15 17 7 10 3 10 16 vhcurveto
          279 177 rlineto
          61 40 10 55 69 vvcurveto
          49 -18 29 -19 -8 -9 -2 -13 -16 vhcurveto
          endchar
        </CharString>
        <CharString name="Acircumflex">
          43 11 -21 442 164 838 -20 hstem
          2 1045 vstem
          285 308 rmoveto
          4 13 2 8 8 vvcurveto
          35 -39 0 -47 -60 -24 0 -56 -19 vhcurveto
          -96 -275 rlineto
          -2 -6 -2 -6 -6 vvcurveto
          -23 18 -10 19 90 73 67 82 27 vhcurveto
          385 1252 rmoveto
          34 -12 -6 9 -23 hhcurveto
          -31 -110 -66 -65 -13 8 -26 2 -9 hvcurveto
          416 -1214 rlineto
          -29 10 15 -22 26 hhcurveto
          46 92 65 61 10 -5 17 -2 9 hvcurveto
          -444 280 rmoveto
          27 16 10 23 16 -8 52 -15 30 hvcurveto
          32 -16 -20 1 -62 hhcurveto
          -104 hlineto
          -19 -12 9 18 4 0 5 2 5 hvcurveto
          78 238 rlineto
          7 22 3 19 18 vvcurveto
          29 -16 61 -10 31 vhcurveto
          51 -17 -14 31 -23 hhcurveto
          -14 -10 -16 -23 -8 hvcurveto
          -205 -613 rlineto
          -3 -8 -1 -6 -6 vvcurveto
          -22 16 -11 22 vhcurveto
          390 1561 rmoveto
          17 -19 -12 6 -13 hhcurveto
          -14 -13 -3 -20 -23 hvcurveto
          -293 -254 rlineto
          -25 -22 -7 -40 -30 vvcurveto
          -19 9 -11 15 13 19 11 25 41 vhcurveto
          227 147 rlineto
          9 14 12 5 12 hhcurveto
          13 11 -6 -9 13 hvcurveto
          215 -152 rlineto
          -31 45 24 -10 15 hhcurveto
          17 10 13 22 34 -9 52 -28 26 hvcurveto
          endchar
        </CharString>
        <CharString name="Adieresis">
          43 11 -21 442 164 838 -20 hstem
          250 184 178 184 vstem
          285 308 rmoveto
          4 13 2 8 8 vvcurveto
          35 -39 0 -47 -60 -24 0 -56 -19 vhcurveto
          -96 -275 rlineto
          -2 -6 -2 -6 -6 vvcurveto
          -23 18 -10 19 90 73 67 82 27 vhcurveto
          385 1252 rmoveto
          34 -12 -6 9 -23 hhcurveto
          -31 -110 -66 -65 -13 8 -26 2 -9 hvcurveto
          416 -1214 rlineto
          -29 10 15 -22 26 hhcurveto
          46 92 65 61 10 -5 17 -2 9 hvcurveto
          -444 280 rmoveto
          27 16 10 23 16 -8 52 -15 30 hvcurveto
          32 -16 -20 1 -62 hhcurveto
          -104 hlineto
          -19 -12 9 18 4 0 5 2 5 hvcurveto
          78 238 rlineto
          7 22 3 19 18 vvcurveto
          29 -16 61 -10 31 vhcurveto
          51 -17 -14 31 -23 hhcurveto
          -14 -10 -16 -23 -8 hvcurveto
          -205 -613 rlineto
          -3 -8 -1 -6 -6 vvcurveto
          -22 16 -11 22 vhcurveto
          244 1542 rmoveto
          29 -12 14 -23 -34 -60 -36 -41 -34 vhcurveto
          -17 -20 -4 -27 -20 vvcurveto
          -144 vlineto
          -29 12 -14 23 37 57 30 41 34 vhcurveto
          19 22 2 25 26 vvcurveto
          362 144 rmoveto
          29 -12 14 -23 -34 -60 -36 -41 -34 vhcurveto
          -17 -20 -4 -27 -20 vvcurveto
          -144 vlineto
          -29 12 -14 23 37 57 30 41 34 vhcurveto
          19 22 2 25 26 vvcurveto
          endchar
        </CharString>
        <CharString name="Agrave">
          43 11 -21 442 164 838 -20 hstem
          2 1045 vstem
          285 308 rmoveto
          4 13 2 8 8 vvcurveto
          35 -39 0 -47 -60 -24 0 -56 -19 vhcurveto
          -96 -275 rlineto
          -2 -6 -2 -6 -6 vvcurveto
          -23 18 -10 19 90 73 67 82 27 vhcurveto
          385 1252 rmoveto
          34 -12 -6 9 -23 hhcurveto
          -31 -110 -66 -65 -13 8 -26 2 -9 hvcurveto
          416 -1214 rlineto
          -29 10 15 -22 26 hhcurveto
          46 92 65 61 10 -5 17 -2 9 hvcurveto
          -444 280 rmoveto
          27 16 10 23 16 -8 52 -15 30 hvcurveto
          32 -16 -20 1 -62 hhcurveto
          -104 hlineto
          -19 -12 9 18 4 0 5 2 5 hvcurveto
          78 238 rlineto
          7 22 3 19 18 vvcurveto
          29 -16 61 -10 31 vhcurveto
          51 -17 -14 31 -23 hhcurveto
          -14 -10 -16 -23 -8 hvcurveto
          -205 -613 rlineto
          -3 -8 -1 -6 -6 vvcurveto
          -22 16 -11 22 vhcurveto
          200 1572 rmoveto
          13 -16 -9 2 -8 hhcurveto
          -19 -18 -29 -49 -69 10 -55 61 -40 hvcurveto
          279 -177 rlineto
          -10 16 10 -3 7 hhcurveto
          17 6 15 18 54 -25 70 -59 50 hvcurveto
          endchar
        </CharString>
        <CharString name="Aring">
          43 11 -21 442 164 838 -20 203 100 242 101 hstem
          297 127 199 127 vstem
          285 308 rmoveto
          4 13 2 8 8 vvcurveto
          35 -39 0 -47 -60 -24 0 -56 -19 vhcurveto
          -96 -275 rlineto
          -2 -6 -2 -6 -6 vvcurveto
          -23 18 -10 19 90 73 67 82 27 vhcurveto
          385 1252 rmoveto
          34 -12 -6 9 -23 hhcurveto
          -31 -110 -66 -65 -13 8 -26 2 -9 hvcurveto
          416 -1214 rlineto
          -29 10 15 -22 26 hhcurveto
          46 92 65 61 10 -5 17 -2 9 hvcurveto
          -444 280 rmoveto
          27 16 10 23 16 -8 52 -15 30 hvcurveto
          32 -16 -20 1 -62 hhcurveto
          -104 hlineto
          -19 -12 9 18 4 0 5 2 5 hvcurveto
          78 238 rlineto
          7 22 3 19 18 vvcurveto
          29 -16 61 -10 31 vhcurveto
          51 -17 -14 31 -23 hhcurveto
          -14 -10 -16 -23 -8 hvcurveto
          -205 -613 rlineto
          -3 -8 -1 -6 -6 vvcurveto
          -22 16 -11 22 vhcurveto
          334 1527 rmoveto
          60 39 -43 -69 -98 -51 -32 -46 -56 -46 46 74 95 59 27 41 hvcurveto
          -2 101 rmoveto
          -111 -114 -91 -132 -152 115 -68 115 113 110 84 148 64 -30 60 -45 36 hvcurveto
          35 -42 -57 16 -54 hhcurveto
          endchar
        </CharString>
        <CharString name="Atilde">
          43 11 -21 442 164 838 -20 303 167 -84 165 hstemhm
          2 1045 hintmask 11101100
          285 308 rmoveto
          4 13 2 8 8 vvcurveto
          35 -39 0 -47 -60 -24 0 -56 -19 vhcurveto
          -96 -275 rlineto
          -2 -6 -2 -6 -6 vvcurveto
          -23 18 -10 19 90 73 67 82 27 vhcurveto
          385 1252 rmoveto
          34 -12 -6 9 -23 hhcurveto
          -31 -110 -66 -65 -13 8 -26 2 -9 hvcurveto
          416 -1214 rlineto
          -29 10 15 -22 26 hhcurveto
          46 92 65 61 10 -5 17 -2 9 hvcurveto
          -444 280 rmoveto
          27 16 10 23 16 -8 52 -15 30 hvcurveto
          32 -16 -20 1 -62 hhcurveto
          -104 hlineto
          -19 -12 9 18 4 0 5 2 5 hvcurveto
          78 238 rlineto
          7 22 3 19 18 vvcurveto
          29 -16 61 -10 31 vhcurveto
          51 -17 -14 31 -23 hhcurveto
          -14 -10 -16 -23 -8 hvcurveto
          -205 -613 rlineto
          -3 -8 -1 -6 -6 vvcurveto
          -22 16 -11 22 vhcurveto
          hintmask 11110100
          471 1285 rmoveto
          124 99 125 96 16 -6 9 -12 -6 -8 -4 -5 -6 hvcurveto
          -29 -34 -55 -41 -88 hhcurveto
          hintmask 11101100
          -84 -60 81 -129 hhcurveto
          -121 -112 -131 -85 -20 7 -8 12 6 6 4 4 6 hvcurveto
          25 37 69 46 78 93 88 -83 96 hhcurveto
          endchar
        </CharString>
        <CharString name="B">
          151 0 164 1077 165 hstemhm
          133 201 393 193 -70 213 hintmask 11110000
          379 1241 rmoveto
          180 168 -29 -235 -105 -51 -86 -68 -49 hvcurveto
          -22 -16 -2 -8 -6 vvcurveto
          -9 6 -6 10 -2 vhcurveto
          hintmask 11101000
          193 -31 57 -120 -144 vvcurveto
          -172 -77 -110 -165 -73 vhcurveto
          -8 -4 -8 -6 -11 vvcurveto
          -14 12 -5 23 307 129 223 176 205 -94 105 -172 57 vhcurveto
          -11 4 -4 6 8 vvcurveto
          9 9 8 8 6 vhcurveto
          hintmask 11110000
          96 76 25 96 72 vvcurveto
          334 -284 21 -163 -61 -42 0 -3 -65 vhcurveto
          -78 -4 -94 -79 -56 vvcurveto
          -21 17 -2 22 vhcurveto
          -39 -1198 rmoveto
          -29 12 -14 29 vhcurveto
          155 hlineto
          130 174 97 42 25 -25 0 -18 hvcurveto
          -215 hlineto
          -29 -12 18 23 hvcurveto
          436 vlineto
          28 12 19 29 6 vhcurveto
          45 8 61 10 37 21 rrcurveto
          47 27 29 43 14 vvcurveto
          23 -19 4 -24 vhcurveto
          -176 hlineto
          -29 -12 18 23 hvcurveto
          236 vlineto
          52 -31 8 -70 -61 -39 -8 -52 vhcurveto
          endchar
        </CharString>
        <CharString name="C">
          102 -31 168 1133 164 hstem
          102 209 vstem
          356 1051 rmoveto
          29 -20 2 -10 -58 -84 -57 -68 -34 vhcurveto
          -25 -49 -23 -126 -159 vvcurveto
          -406 109 -248 397 326 100 203 43 16 -8 9 -16 vhcurveto
          -39 -78 -103 -209 hhcurveto
          -315 -58 266 269 hvcurveto
          215 45 117 47 vvcurveto
          658 264 rmoveto
          37 -43 18 -21 10 vhcurveto
          29 -59 -96 25 -88 hhcurveto
          -244 -148 -93 -141 -114 hvcurveto
          -19 -24 -35 -52 -24 vvcurveto
          -21 11 -4 12 14 27 25 20 25 vhcurveto
          88 100 110 62 140 hhcurveto
          90 59 -25 -20 47 hvcurveto
          -15 35 25 -14 30 hhcurveto
          27 23 10 15 18 hvcurveto
          31 22 43 39 33 vvcurveto
          endchar
        </CharString>
        <CharString name="Ccedilla">
          102 -218 101 86 168 -165 165 1133 164 hstemhm
          102 209 275 176 hintmask 11011100
          612 -117 rmoveto
          -34 -32 -8 -30 hhcurveto
          -24 -8 10 16 hvcurveto
          hintmask 10111100
          6 7 21 8 17 vhcurveto
          24 11 12 3 15 24 21 -3 26 hhcurveto
          hintmask 11011100
          326 100 203 43 16 -8 9 -16 hvcurveto
          -39 -78 -103 -209 hhcurveto
          -315 -58 266 269 hvcurveto
          215 45 117 47 vvcurveto
          29 -20 2 -10 -58 -84 -57 -68 -34 vhcurveto
          -25 -49 -23 -126 -159 vvcurveto
          -307 64 -215 199 -89 vhcurveto
          18 -8 8 -10 -16 vvcurveto
          -8 -2 -9 -3 -12 vhcurveto
          -26 -95 rlineto
          -3 -10 -6 -30 -10 vvcurveto
          -25 13 -13 27 vhcurveto
          35 32 16 48 hhcurveto
          36 44 -11 -60 -69 -90 -64 -114 -33 hvcurveto
          -14 -4 -24 -9 -33 vvcurveto
          -42 25 -12 19 57 115 53 27 47 vhcurveto
          86 49 69 70 95 vvcurveto
          96 -61 48 -89 vhcurveto
          402 1432 rmoveto
          37 -43 18 -21 10 vhcurveto
          29 -59 -96 25 -88 hhcurveto
          -244 -148 -93 -141 -114 hvcurveto
          -19 -24 -35 -52 -24 vvcurveto
          -21 11 -4 12 14 27 25 20 25 vhcurveto
          88 100 110 62 140 hhcurveto
          90 59 -25 -20 47 hvcurveto
          -15 35 25 -14 30 hhcurveto
          27 23 10 15 18 hvcurveto
          31 22 43 39 33 vvcurveto
          endchar
        </CharString>
        <CharString name="Cedilla">
          -413 -241 104 hstem
          332 179 vstem
          358 -137 rmoveto
          -34 -32 -8 -30 hhcurveto
          -24 -8 10 16 8 7 31 11 34 hvcurveto
          20 62 rlineto
          -115 hlineto
          -45 -185 rlineto
          -4 -14 -5 -23 -14 vvcurveto
          -25 13 -12 22 vhcurveto
          35 35 16 48 hhcurveto
          34 46 -9 -61 -82 -95 -67 -119 -35 hvcurveto
          -14 -4 -24 -9 -33 vvcurveto
          -42 25 -12 19 57 125 53 27 47 vhcurveto
          86 49 72 80 95 vvcurveto
          96 -64 58 -89 vhcurveto
          endchar
        </CharString>
        <CharString name="D">
          227 0 164 1076 165 hstem
          133 201 596 209 vstem
          334 1240 rmoveto
          454 -8 142 -237 -333 vvcurveto
          -353 -136 -157 -219 -101 vhcurveto
          -11 -5 -11 -10 -13 vvcurveto
          -19 17 -4 18 306 245 310 382 518 -334 195 -416 -12 -39 0 -2 -29 vhcurveto
          -84 -6 -92 -76 -57 vvcurveto
          -21 17 -3 22 vhcurveto
          -39 -1197 rmoveto
          -29 12 -14 29 vhcurveto
          98 hlineto
          132 180 98 41 25 -25 0 -18 hvcurveto
          -166 hlineto
          -29 -12 18 23 hvcurveto
          915 vlineto
          52 -31 8 -70 -61 -39 -8 -52 vhcurveto
          endchar
        </CharString>
        <CharString name="E">
          -24 0 164 491 164 420 164 hstem
          134 201 vstem
          306 1403 rmoveto
          -78 -95 -87 -47 -28 15 -2 25 hvcurveto
          574 hlineto
          26 26 2 19 21 hvcurveto
          41 37 27 60 15 vvcurveto
          23 -15 8 -28 vhcurveto
          -711 -1360 rmoveto
          -29 12 -14 23 vhcurveto
          598 hlineto
          27 26 2 18 21 hvcurveto
          41 36 26 63 14 vvcurveto
          23 -14 8 -29 vhcurveto
          -489 hlineto
          -23 -18 12 29 hvcurveto
          331 vlineto
          51 -31 8 -69 -62 -39 -8 -51 vhcurveto
          160 vmoveto
          -22 12 -19 29 vhcurveto
          510 hlineto
          27 26 2 19 21 hvcurveto
          41 37 26 61 14 vvcurveto
          23 -14 8 -29 vhcurveto
          -407 hlineto
          -23 -18 12 29 hvcurveto
          259 vlineto
          52 -31 8 -69 -62 -39 -8 -52 vhcurveto
          endchar
        </CharString>
        <CharString name="Eacute">
          -24 0 164 491 164 420 164 hstem
          134 201 vstem
          306 1403 rmoveto
          -78 -95 -87 -47 -28 15 -2 25 hvcurveto
          574 hlineto
          26 26 2 19 21 hvcurveto
          41 37 27 60 15 vvcurveto
          23 -15 8 -28 vhcurveto
          -711 -1360 rmoveto
          -29 12 -14 23 vhcurveto
          598 hlineto
          27 26 2 18 21 hvcurveto
          41 36 26 63 14 vvcurveto
          23 -14 8 -29 vhcurveto
          -489 hlineto
          -23 -18 12 29 hvcurveto
          331 vlineto
          51 -31 8 -69 -62 -39 -8 -51 vhcurveto
          160 vmoveto
          -22 12 -19 29 vhcurveto
          510 hlineto
          27 26 2 19 21 hvcurveto
          41 37 26 61 14 vvcurveto
          23 -14 8 -29 vhcurveto
          -407 hlineto
          -23 -18 12 29 hvcurveto
          259 vlineto
          52 -31 8 -69 -62 -39 -8 -52 vhcurveto
          236 675 rmoveto
          -59 -50 -25 -70 -54 vvcurveto
          -18 6 -15 17 7 10 3 10 16 vhcurveto
          279 177 rlineto
          61 40 10 55 69 vvcurveto
          49 -18 29 -19 -8 -9 -2 -13 -16 vhcurveto
          endchar
        </CharString>
        <CharString name="Ecircumflex">
          -18 0 164 491 164 420 164 hstem
          140 201 vstem
          312 1403 rmoveto
          -78 -95 -87 -47 -28 15 -2 25 hvcurveto
          574 hlineto
          26 26 2 19 21 hvcurveto
          41 37 27 60 15 vvcurveto
          23 -15 8 -28 vhcurveto
          -711 -1360 rmoveto
          -29 12 -14 23 vhcurveto
          598 hlineto
          27 26 2 18 21 hvcurveto
          41 36 26 63 14 vvcurveto
          23 -14 8 -29 vhcurveto
          -489 hlineto
          -23 -18 12 29 hvcurveto
          331 vlineto
          51 -31 8 -69 -62 -39 -8 -51 vhcurveto
          160 vmoveto
          -22 12 -19 29 vhcurveto
          510 hlineto
          27 26 2 19 21 hvcurveto
          41 37 26 61 14 vvcurveto
          23 -14 8 -29 vhcurveto
          -407 hlineto
          -23 -18 12 29 hvcurveto
          259 vlineto
          52 -31 8 -69 -62 -39 -8 -52 vhcurveto
          412 874 rmoveto
          17 -19 -12 6 -13 hhcurveto
          -14 -13 -3 -20 -23 hvcurveto
          -293 -254 rlineto
          -25 -22 -7 -40 -30 vvcurveto
          -19 9 -11 15 13 19 11 25 41 vhcurveto
          227 147 rlineto
          9 14 12 5 12 hhcurveto
          13 11 -6 -9 13 hvcurveto
          215 -152 rlineto
          -31 45 24 -10 15 hhcurveto
          17 10 13 22 34 -9 52 -28 26 hvcurveto
          endchar
        </CharString>
        <CharString name="Edieresis">
          -24 0 164 491 164 420 164 hstemhm
          134 201 -119 184 178 184 hintmask 11110100
          306 1403 rmoveto
          -78 -95 -87 -47 -28 15 -2 25 hvcurveto
          574 hlineto
          26 26 2 19 21 hvcurveto
          41 37 27 60 15 vvcurveto
          23 -15 8 -28 vhcurveto
          -711 -1360 rmoveto
          -29 12 -14 23 vhcurveto
          598 hlineto
          27 26 2 18 21 hvcurveto
          41 36 26 63 14 vvcurveto
          23 -14 8 -29 vhcurveto
          -489 hlineto
          -23 -18 12 29 hvcurveto
          331 vlineto
          51 -31 8 -69 -62 -39 -8 -51 vhcurveto
          160 vmoveto
          -22 12 -19 29 vhcurveto
          510 hlineto
          27 26 2 19 21 hvcurveto
          41 37 26 61 14 vvcurveto
          23 -14 8 -29 vhcurveto
          -407 hlineto
          -23 -18 12 29 hvcurveto
          259 vlineto
          52 -31 8 -69 -62 -39 -8 -52 vhcurveto
          hintmask 11101100
          266 855 rmoveto
          29 -12 14 -23 -34 -60 -36 -41 -34 vhcurveto
          -17 -20 -4 -27 -20 vvcurveto
          -144 vlineto
          -29 12 -14 23 37 57 30 41 34 vhcurveto
          19 22 2 25 26 vvcurveto
          362 144 rmoveto
          29 -12 14 -23 -34 -60 -36 -41 -34 vhcurveto
          -17 -20 -4 -27 -20 vvcurveto
          -144 vlineto
          -29 12 -14 23 37 57 30 41 34 vhcurveto
          19 22 2 25 26 vvcurveto
          endchar
        </CharString>
        <CharString name="Egrave">
          -24 0 164 491 164 420 164 hstem
          134 201 vstem
          306 1403 rmoveto
          -78 -95 -87 -47 -28 15 -2 25 hvcurveto
          574 hlineto
          26 26 2 19 21 hvcurveto
          41 37 27 60 15 vvcurveto
          23 -15 8 -28 vhcurveto
          -711 -1360 rmoveto
          -29 12 -14 23 vhcurveto
          598 hlineto
          27 26 2 18 21 hvcurveto
          41 36 26 63 14 vvcurveto
          23 -14 8 -29 vhcurveto
          -489 hlineto
          -23 -18 12 29 hvcurveto
          331 vlineto
          51 -31 8 -69 -62 -39 -8 -51 vhcurveto
          160 vmoveto
          -22 12 -19 29 vhcurveto
          510 hlineto
          27 26 2 19 21 hvcurveto
          41 37 26 61 14 vvcurveto
          23 -14 8 -29 vhcurveto
          -407 hlineto
          -23 -18 12 29 hvcurveto
          259 vlineto
          52 -31 8 -69 -62 -39 -8 -52 vhcurveto
          222 885 rmoveto
          13 -16 -9 2 -8 hhcurveto
          -19 -18 -29 -49 -69 10 -55 61 -40 hvcurveto
          279 -177 rlineto
          -10 16 10 -3 7 hhcurveto
          17 6 15 18 54 -25 70 -59 50 hvcurveto
          endchar
        </CharString>
        <CharString name="Eth">
          471 0 164 455 144 477 165 hstem
          377 201 596 209 vstem
          578 1240 rmoveto
          454 -8 142 -237 -333 vvcurveto
          -353 -130 -157 -219 -101 vhcurveto
          -11 -5 -11 -10 -13 vvcurveto
          -19 17 -4 18 306 239 310 382 518 -334 195 -416 -12 -39 0 -2 -29 vhcurveto
          -84 -6 -92 -76 -57 vvcurveto
          -21 17 -3 22 vhcurveto
          -39 -1197 rmoveto
          -29 12 -14 23 vhcurveto
          104 hlineto
          174 138 98 41 25 -25 0 -18 hvcurveto
          -166 hlineto
          -29 -12 18 23 hvcurveto
          292 vlineto
          51 -31 11 -70 -61 -39 -11 -51 vhcurveto
          307 vmoveto
          -23 -9 -18 -32 vhcurveto
          -62 hlineto
          -26 -27 -2 -18 -21 hvcurveto
          -41 -37 -26 -41 -15 vvcurveto
          -22 14 -9 29 vhcurveto
          532 hlineto
          27 27 3 18 20 hvcurveto
          41 37 27 41 14 vvcurveto
          23 -15 8 -28 vhcurveto
          -188 hlineto
          -32 -9 18 23 hvcurveto
          316 vlineto
          52 -31 8 -70 -61 -39 -8 -52 vhcurveto
          endchar
        </CharString>
        <CharString name="Euro">
          370 -31 168 293 131 209 131 369 164 hstem
          45 163 56 210 vstem
          299 309 rmoveto
          -11 2 -10 2 -8 vhcurveto
          -202 59 145 -109 263 hhcurveto
          326 150 203 43 16 -8 9 -16 hvcurveto
          -39 -128 -103 -209 hhcurveto
          -150 -97 68 96 -57 hvcurveto
          34 -20 -5 37 -102 hhcurveto
          -46 -70 -5 -58 hvcurveto
          927 1006 rmoveto
          37 -43 18 -21 10 vhcurveto
          29 -59 -136 25 -88 hhcurveto
          -244 -158 -93 -141 -114 hvcurveto
          -19 -24 -35 -52 -24 vvcurveto
          -21 11 -4 12 14 27 24 21 25 vhcurveto
          86 102 118 64 140 hhcurveto
          90 99 -25 -20 47 hvcurveto
          -15 35 28 -14 27 hhcurveto
          27 29 10 15 18 hvcurveto
          31 22 37 46 26 vvcurveto
          -327 -545 rmoveto
          27 31 2 18 20 hvcurveto
          41 37 23 29 14 vvcurveto
          22 -15 9 -28 vhcurveto
          -443 hlineto
          -46 -8 15 27 10 3 14 3 12 hvcurveto
          7 32 4 24 16 vvcurveto
          29 -20 2 -10 -58 -84 -57 -68 -34 vhcurveto
          -12 -23 -11 -43 -9 -54 rrcurveto
          -1 -6 -1 -7 -8 vvcurveto
          -21 9 -25 48 vhcurveto
          6 -340 rmoveto
          358 hlineto
          27 31 2 18 20 hvcurveto
          41 37 23 29 14 vvcurveto
          23 -15 8 -28 vhcurveto
          -254 hlineto
          -68 -2 30 43 42 -29 30 -75 -90 -16 -46 -29 -46 1 -50 3 -40 hvcurveto
          -22 2 9 -43 62 hhcurveto
          -158 471 rmoveto
          -26 -28 -2 -19 -21 hvcurveto
          -41 -37 -22 -28 -15 vvcurveto
          -22 14 -8 29 vhcurveto
          58 hlineto
          52 24 31 57 32 -15 11 -24 hvcurveto
          25 -395 rmoveto
          47 -14 7 -36 -13 -23 -7 -12 -14 vhcurveto
          -41 -37 -22 -29 -14 vvcurveto
          -23 14 -8 29 vhcurveto
          63 hlineto
          43 14 24 52 hvcurveto
          endchar
        </CharString>
        <CharString name="F">
          -34 11 -21 645 164 440 164 hstem
          134 201 vstem
          306 1403 rmoveto
          -78 -95 -87 -47 -28 15 -2 25 hvcurveto
          594 hlineto
          27 26 2 19 21 hvcurveto
          41 36 26 62 14 vvcurveto
          23 -14 8 -29 vhcurveto
          -731 -1370 rmoveto
          -29 12 -14 23 37 74 35 41 34 vhcurveto
          19 22 2 25 26 vvcurveto
          376 vlineto
          51 -31 9 -69 -62 -39 -9 -51 vhcurveto
          161 vmoveto
          -23 12 -18 29 vhcurveto
          510 hlineto
          27 26 2 18 21 hvcurveto
          41 36 26 63 14 vvcurveto
          23 -14 8 -29 vhcurveto
          -407 hlineto
          -23 -18 12 29 hvcurveto
          279 vlineto
          52 -31 8 -69 -62 -39 -8 -52 vhcurveto
          endchar
        </CharString>
        <CharString name="G">
          249 -31 164 424 164 549 164 hstem
          102 208 700 172 vstem
          350 1042 rmoveto
          31 -16 6 -19 -41 -86 -51 -65 -36 vhcurveto
          -31 -56 -19 -114 -181 vvcurveto
          -399 146 -244 352 225 76 158 31 10 -2 16 -22 vhcurveto
          -31 -49 -51 -123 hhcurveto
          -273 -91 221 279 hvcurveto
          229 40 144 36 vvcurveto
          600 -485 rmoveto
          57 3 -57 -86 -110 -15 -124 -49 -82 hvcurveto
          -21 -35 -12 -4 -18 vvcurveto
          -10 9 -6 10 52 96 69 137 50 vhcurveto
          32 89 20 119 108 vvcurveto
          41 -1 43 -7 35 vhcurveto
          41 -8 -10 14 -52 hhcurveto
          -438 hlineto
          -28 -25 -2 -19 -21 hvcurveto
          -41 -37 -27 -60 -15 vvcurveto
          -23 15 -8 28 vhcurveto
          516 758 rmoveto
          71 -192 48 -148 -244 -162 -84 -150 -136 vhcurveto
          -21 -23 -33 -52 -25 vvcurveto
          -21 11 -4 12 13 29 24 21 24 vhcurveto
          87 101 145 63 141 165 81 -74 73 hhcurveto
          46 95 63 56 hvcurveto
          endchar
        </CharString>
        <CharString name="H">
          247 11 -21 674 164 595 -20 hstem
          133 201 583 201 vstem
          1118 1380 rmoveto
          29 -12 14 -23 -39 -73 -41 -41 -34 vhcurveto
          -16 -20 -4 -28 -19 vvcurveto
          -1241 vlineto
          -29 12 -14 22 37 75 35 41 35 vhcurveto
          18 21 2 26 26 vvcurveto
          -316 525 rmoveto
          45 10 24 60 57 -10 23 -45 hvcurveto
          -427 hlineto
          -29 -12 19 22 hvcurveto
          511 vlineto
          29 -12 14 -23 -39 -72 -41 -41 -34 vhcurveto
          -17 -20 -4 -27 -20 vvcurveto
          -569 vlineto
          -23 12 -18 29 vhcurveto
          -41 -631 rmoveto
          -29 12 -14 23 37 74 35 41 34 vhcurveto
          19 22 2 25 26 vvcurveto
          406 vlineto
          51 -31 8 -70 -61 -39 -8 -51 vhcurveto
          endchar
        </CharString>
        <CharString name="I">
          -537 11 -21 1433 -20 hstem
          133 201 vstem
          334 1380 rmoveto
          29 -12 14 -23 -39 -72 -41 -41 -34 vhcurveto
          -17 -20 -4 -27 -20 vvcurveto
          -1241 vlineto
          -29 12 -14 23 37 74 35 41 34 vhcurveto
          19 22 2 25 26 vvcurveto
          endchar
        </CharString>
        <CharString name="Iacute">
          -332 11 -21 1433 -20 hstem
          235 201 vstem
          436 1380 rmoveto
          29 -12 14 -23 -39 -72 -41 -41 -34 vhcurveto
          -17 -20 -4 -27 -20 vvcurveto
          -1241 vlineto
          -29 12 -14 23 37 74 35 41 34 vhcurveto
          19 22 2 25 26 vvcurveto
          -219 1655 rmoveto
          -59 -50 -25 -70 -54 vvcurveto
          -18 6 -15 17 7 10 3 10 16 vhcurveto
          279 177 rlineto
          61 40 10 55 69 vvcurveto
          49 -18 29 -19 -8 -9 -2 -13 -16 vhcurveto
          endchar
        </CharString>
        <CharString name="Icircumflex">
          -13 11 -21 1433 -20 hstem
          395 201 vstem
          596 1380 rmoveto
          29 -12 14 -23 -39 -72 -41 -41 -34 vhcurveto
          -17 -20 -4 -27 -20 vvcurveto
          -1241 vlineto
          -29 12 -14 23 37 74 35 41 34 vhcurveto
          19 22 2 25 26 vvcurveto
          -44 1854 rmoveto
          17 -19 -12 6 -13 hhcurveto
          -14 -13 -3 -20 -23 hvcurveto
          -293 -254 rlineto
          -25 -22 -7 -40 -30 vvcurveto
          -19 9 -11 15 13 19 11 25 41 vhcurveto
          227 147 rlineto
          9 14 12 5 12 hhcurveto
          13 11 -6 -9 13 hvcurveto
          215 -152 rlineto
          -31 45 24 -10 15 hhcurveto
          17 10 13 22 34 -9 52 -28 26 hvcurveto
          endchar
        </CharString>
        <CharString name="Idieresis">
          -192 11 -21 1433 -20 hstemhm
          133 184 -12 201 -11 184 hintmask 11010000
          506 1380 rmoveto
          29 -12 14 -23 -39 -72 -41 -41 -34 vhcurveto
          -17 -20 -4 -27 -20 vvcurveto
          -1241 vlineto
          -29 12 -14 23 37 74 35 41 34 vhcurveto
          19 22 2 25 26 vvcurveto
          hintmask 11101000
          -189 1835 rmoveto
          29 -12 14 -23 -34 -60 -36 -41 -34 vhcurveto
          -17 -20 -4 -27 -20 vvcurveto
          -144 vlineto
          -29 12 -14 23 37 57 30 41 34 vhcurveto
          19 22 2 25 26 vvcurveto
          362 144 rmoveto
          29 -12 14 -23 -34 -60 -36 -41 -34 vhcurveto
          -17 -20 -4 -27 -20 vvcurveto
          -144 vlineto
          -29 12 -14 23 37 57 30 41 34 vhcurveto
          19 22 2 25 26 vvcurveto
          endchar
        </CharString>
        <CharString name="Igrave">
          -332 11 -21 1433 -20 hstem
          235 201 vstem
          436 1380 rmoveto
          29 -12 14 -23 -39 -72 -41 -41 -34 vhcurveto
          -17 -20 -4 -27 -20 vvcurveto
          -1241 vlineto
          -29 12 -14 23 37 74 35 41 34 vhcurveto
          19 22 2 25 26 vvcurveto
          -233 1865 rmoveto
          13 -16 -9 2 -8 hhcurveto
          -19 -18 -29 -49 -69 10 -55 61 -40 hvcurveto
          279 -177 rlineto
          -10 16 10 -3 7 hhcurveto
          17 6 15 18 54 -25 70 -59 50 hvcurveto
          endchar
        </CharString>
        <CharString name="J">
          -346 -140 164 1399 -20 hstem
          324 201 vstem
          525 1380 rmoveto
          29 -13 14 -22 -39 -73 -41 -41 -34 vhcurveto
          -16 -20 -4 -27 -20 vvcurveto
          -1154 vlineto
          -45 -1 -66 -37 -63 vhcurveto
          -7 -12 -10 -11 -12 vvcurveto
          -14 11 -8 10 113 122 142 225 vhcurveto
          -451 -396 rmoveto
          121 53 127 34 21 -10 8 -15 hvcurveto
          -25 -26 -26 -40 hhcurveto
          -13 -22 8 18 -16 hvcurveto
          31 -28 -7 8 -22 hhcurveto
          -47 -57 -75 -42 -19 4 -15 13 -15 hvcurveto
          -53 47 58 -10 32 hhcurveto
          endchar
        </CharString>
        <CharString name="K">
          104 11 -21 1433 -20 hstem
          133 201 vstem
          334 1380 rmoveto
          29 -12 14 -23 -39 -72 -41 -41 -34 vhcurveto
          -17 -20 -4 -27 -20 vvcurveto
          -1241 vlineto
          -29 12 -14 23 37 74 35 41 34 vhcurveto
          19 22 2 25 26 vvcurveto
          538 -108 rmoveto
          -17 12 18 -24 24 hhcurveto
          27 35 10 70 44 hvcurveto
          10 17 7 25 15 vvcurveto
          23 -11 16 -10 14 vhcurveto
          -398 531 rlineto
          -27 36 -3 13 12 vvcurveto
          19 11 17 18 23 vhcurveto
          399 504 rlineto
          25 31 4 15 12 vvcurveto
          28 -33 2 -22 -99 -37 -18 -84 -63 vhcurveto
          -377 -500 rlineto
          -24 -31 -11 -26 -23 vvcurveto
          -18 8 -17 13 -18 vhcurveto
          endchar
        </CharString>
        <CharString name="L">
          -69 0 164 1259 -20 hstem
          133 201 vstem
          133 273 rmoveto
          -51 31 -8 70 61 39 8 51 vhcurveto
          1107 vlineto
          29 -12 14 -23 -39 -72 -41 -41 -34 vhcurveto
          -17 -20 -4 -27 -20 vvcurveto
          41 -1110 rmoveto
          -29 -12 -14 -29 hvcurveto
          -78 vlineto
          -29 12 -14 29 vhcurveto
          580 hlineto
          26 27 2 18 20 hvcurveto
          41 37 27 62 14 vvcurveto
          23 -14 8 -29 vhcurveto
          endchar
        </CharString>
        <CharString name="M">
          528 11 -21 1433 -20 hstem
          135 168 875 201 vstem
          293 700 rmoveto
          -8 39 -25 65 -18 45 rrcurveto
          115 -47 -17 43 -22 hhcurveto
          -11 -10 -10 -17 hvcurveto
          -947 vlineto
          -29 12 -14 23 16 62 28 41 35 vhcurveto
          18 23 2 24 27 vvcurveto
          460 vlineto
          33 -4 49 -6 25 vhcurveto
          246 -455 rmoveto
          -38 16 12 -9 15 hhcurveto
          16 13 8 25 16 hvcurveto
          20 31 19 45 8 20 rrcurveto
          8 23 4 20 17 vvcurveto
          24 -6 23 -12 33 vhcurveto
          -338 909 rlineto
          37 -15 -14 10 -29 hhcurveto
          -22 -64 -20 -41 -34 hvcurveto
          -11 -12 -8 -15 -18 vvcurveto
          -10 2 -13 6 -14 vhcurveto
          932 -567 rmoveto
          41 102 4 76 90 vvcurveto
          41 -2 98 -4 23 vhcurveto
          24 -4 -6 15 -19 hhcurveto
          -20 -8 -19 -26 -13 hvcurveto
          -409 -1084 rlineto
          -6 -14 -4 -12 -9 vvcurveto
          -24 20 -4 10 25 24 8 41 58 vhcurveto
          53 37 31 45 20 49 rrcurveto
          515 1210 rmoveto
          29 -12 14 -23 -38 -73 -41 -41 -35 vhcurveto
          -16 -20 -4 -27 -20 vvcurveto
          -1241 vlineto
          -29 12 -14 22 37 75 35 41 35 vhcurveto
          18 22 2 25 26 vvcurveto
          endchar
        </CharString>
        <CharString name="N">
          258 11 -21 1433 -20 hstem
          135 174 645 174 vstem
          954 43 rmoveto
          -51 17 -2 14 29 59 35 41 35 vhcurveto
          18 21 2 26 26 vvcurveto
          1241 vlineto
          29 -12 14 -22 -36 -104 -39 -90 vhcurveto
          -132 -1095 rmoveto
          -19 13 8 -14 14 hhcurveto
          25 12 61 115 94 -1 38 -38 60 hvcurveto
          -542 857 rlineto
          32 -20 -14 0 -11 hhcurveto
          -22 -43 -14 -49 -47 hvcurveto
          -15 -16 -8 -16 -15 vvcurveto
          -12 5 -12 7 -11 vhcurveto
          148 -358 rmoveto
          -19 43 -20 30 -21 31 rrcurveto
          64 -43 -18 24 -18 hhcurveto
          -11 -8 -8 -16 hvcurveto
          -1055 vlineto
          -29 9 -14 23 26 61 35 41 35 vhcurveto
          18 21 2 26 26 vvcurveto
          690 vlineto
          39 -6 29 -10 23 vhcurveto
          endchar
        </CharString>
        <CharString name="Ntilde">
          258 11 -21 1433 -20 314 167 -84 165 hstemhm
          135 174 645 174 hintmask 11011100
          954 43 rmoveto
          -51 17 -2 14 29 59 35 41 35 vhcurveto
          18 21 2 26 26 vvcurveto
          1241 vlineto
          29 -12 14 -22 -36 -104 -39 -90 vhcurveto
          -132 -1095 rmoveto
          -19 13 8 -14 14 hhcurveto
          25 12 61 115 94 -1 38 -38 60 hvcurveto
          -542 857 rlineto
          32 -20 -14 0 -11 hhcurveto
          -22 -43 -14 -49 -47 hvcurveto
          -15 -16 -8 -16 -15 vvcurveto
          -12 5 -12 7 -11 vhcurveto
          148 -358 rmoveto
          -19 43 -20 30 -21 31 rrcurveto
          64 -43 -18 24 -18 hhcurveto
          -11 -8 -8 -16 hvcurveto
          -1055 vlineto
          -29 9 -14 23 26 61 35 41 35 vhcurveto
          18 21 2 26 26 vvcurveto
          690 vlineto
          39 -6 29 -10 23 vhcurveto
          hintmask 11101100
          475 797 rmoveto
          124 99 125 96 16 -6 9 -12 -6 -8 -4 -5 -6 hvcurveto
          -29 -34 -55 -41 -88 hhcurveto
          hintmask 11011100
          -84 -60 81 -129 hhcurveto
          -121 -112 -131 -85 -20 7 -8 12 6 6 4 4 6 hvcurveto
          25 37 69 46 78 93 88 -83 96 hhcurveto
          endchar
        </CharString>
        <CharString name="O">
          305 -31 164 1137 164 hstem
          102 208 688 208 vstem
          1206 745 rmoveto
          484 -192 205 -355 -173 -174 -76 -158 -122 vhcurveto
          -16 -21 -27 -43 -22 vvcurveto
          -16 9 -4 12 14 27 24 21 27 vhcurveto
          125 157 141 6 41 hhcurveto
          404 19 -363 -334 -157 -21 -189 -59 -112 hvcurveto
          -23 -43 -21 -17 -16 vvcurveto
          -10 5 -13 16 54 92 76 115 65 vhcurveto
          93 163 7 232 143 vvcurveto
          -856 314 rmoveto
          28 -12 9 -19 -40 -86 -41 -76 -41 vhcurveto
          -29 -55 -21 -114 -173 vvcurveto
          -416 103 -252 368 191 98 127 62 12 -6 12 -16 vhcurveto
          -29 -45 -49 -137 hhcurveto
          -281 -38 281 260 hvcurveto
          211 40 141 33 vvcurveto
          endchar
        </CharString>
        <CharString name="OE">
          687 -31 168 -137 164 491 164 420 164 -133 164 hstemhm
          102 209 554 201 hintmask 01110110
          hintmask 10110110
          865 200 rmoveto
          -34 -23 -21 -33 -4 vhcurveto
          -4 -31 -17 0 -36 hhcurveto
          -325 -89 266 269 hvcurveto
          215 45 117 47 vvcurveto
          29 -20 2 -10 -58 -84 -57 -68 -34 vhcurveto
          -25 -49 -23 -126 -159 vvcurveto
          -406 136 -248 411 vhcurveto
          85 88 31 78 hhcurveto
          hintmask 01110110
          578 hlineto
          27 26 2 18 21 hvcurveto
          41 36 26 63 14 vvcurveto
          23 -14 8 -29 vhcurveto
          -469 hlineto
          -23 -18 12 29 hvcurveto
          331 vlineto
          51 -31 8 -69 -62 -39 -8 -51 vhcurveto
          144 867 rmoveto
          -84 -88 31 -90 hhcurveto
          hintmask 01101110
          -254 -178 -93 -141 -114 hvcurveto
          -19 -24 -35 -52 -24 vvcurveto
          -21 11 -4 12 14 27 24 21 25 vhcurveto
          86 102 138 64 150 140 48 -31 112 hhcurveto
          532 hlineto
          hintmask 01110110
          26 26 2 19 21 hvcurveto
          41 37 27 60 15 vvcurveto
          23 -15 8 -28 vhcurveto
          -691 -707 rmoveto
          -22 12 -19 29 vhcurveto
          490 hlineto
          27 26 2 19 21 hvcurveto
          41 37 26 61 14 vvcurveto
          23 -14 8 -29 vhcurveto
          -387 hlineto
          -23 -18 12 29 hvcurveto
          259 vlineto
          52 -31 8 -69 -62 -39 -8 -52 vhcurveto
          endchar
        </CharString>
        <CharString name="Oacute">
          305 -31 164 1137 164 hstem
          102 208 688 208 vstem
          1206 745 rmoveto
          484 -192 205 -355 -173 -174 -76 -158 -122 vhcurveto
          -16 -21 -27 -43 -22 vvcurveto
          -16 9 -4 12 14 27 24 21 27 vhcurveto
          125 157 141 6 41 hhcurveto
          404 19 -363 -334 -157 -21 -189 -59 -112 hvcurveto
          -23 -43 -21 -17 -16 vvcurveto
          -10 5 -13 16 54 92 76 115 65 vhcurveto
          93 163 7 232 143 vvcurveto
          -856 314 rmoveto
          28 -12 9 -19 -40 -86 -41 -76 -41 vhcurveto
          -29 -55 -21 -114 -173 vvcurveto
          -416 103 -252 368 191 98 127 62 12 -6 12 -16 vhcurveto
          -29 -45 -49 -137 hhcurveto
          -281 -38 281 260 hvcurveto
          211 40 141 33 vvcurveto
          185 735 rmoveto
          -59 -50 -25 -70 -54 vvcurveto
          -18 6 -15 17 7 10 3 10 16 vhcurveto
          279 177 rlineto
          61 40 10 55 69 vvcurveto
          49 -18 29 -19 -8 -9 -2 -13 -16 vhcurveto
          endchar
        </CharString>
        <CharString name="Ocircumflex">
          305 -31 164 1137 164 hstem
          102 208 688 208 vstem
          1206 745 rmoveto
          484 -192 205 -355 -173 -174 -76 -158 -122 vhcurveto
          -16 -21 -27 -43 -22 vvcurveto
          -16 9 -4 12 14 27 24 21 27 vhcurveto
          125 157 141 6 41 hhcurveto
          404 19 -363 -334 -157 -21 -189 -59 -112 hvcurveto
          -23 -43 -21 -17 -16 vvcurveto
          -10 5 -13 16 54 92 76 115 65 vhcurveto
          93 163 7 232 143 vvcurveto
          -856 314 rmoveto
          28 -12 9 -19 -40 -86 -41 -76 -41 vhcurveto
          -29 -55 -21 -114 -173 vvcurveto
          -416 103 -252 368 191 98 127 62 12 -6 12 -16 vhcurveto
          -29 -45 -49 -137 hhcurveto
          -281 -38 281 260 hvcurveto
          211 40 141 33 vvcurveto
          361 934 rmoveto
          17 -19 -12 6 -13 hhcurveto
          -14 -13 -3 -20 -23 hvcurveto
          -293 -254 rlineto
          -25 -22 -7 -40 -30 vvcurveto
          -19 9 -11 15 13 19 11 25 41 vhcurveto
          227 147 rlineto
          9 14 12 5 12 hhcurveto
          13 11 -6 -9 13 hvcurveto
          215 -152 rlineto
          -31 45 24 -10 15 hhcurveto
          17 10 13 22 34 -9 52 -28 26 hvcurveto
          endchar
        </CharString>
        <CharString name="Odieresis">
          305 -31 164 1137 164 hstem
          102 208 71 184 309 53 71 208 vstem
          1206 745 rmoveto
          484 -192 205 -355 -173 -174 -76 -158 -122 vhcurveto
          -16 -21 -27 -43 -22 vvcurveto
          -16 9 -4 12 14 27 24 21 27 vhcurveto
          125 157 141 6 41 hhcurveto
          404 19 -363 -334 -157 -21 -189 -59 -112 hvcurveto
          -23 -43 -21 -17 -16 vvcurveto
          -10 5 -13 16 54 92 76 115 65 vhcurveto
          93 163 7 232 143 vvcurveto
          -856 314 rmoveto
          28 -12 9 -19 -40 -86 -41 -76 -41 vhcurveto
          -29 -55 -21 -114 -173 vvcurveto
          -416 103 -252 368 191 98 127 62 12 -6 12 -16 vhcurveto
          -29 -45 -49 -137 hhcurveto
          -281 -38 281 260 hvcurveto
          211 40 141 33 vvcurveto
          215 915 rmoveto
          29 -12 14 -23 -34 -60 -36 -41 -34 vhcurveto
          -17 -20 -4 -27 -20 vvcurveto
          -144 vlineto
          -29 12 -14 23 37 57 30 41 34 vhcurveto
          19 22 2 25 26 vvcurveto
          362 144 rmoveto
          29 -12 14 -23 -34 -60 -36 -41 -34 vhcurveto
          -17 -20 -4 -27 -20 vvcurveto
          -144 vlineto
          -29 12 -14 23 37 57 30 41 34 vhcurveto
          19 22 2 25 26 vvcurveto
          endchar
        </CharString>
        <CharString name="Ograve">
          305 -31 164 1137 164 hstem
          102 208 688 208 vstem
          1206 745 rmoveto
          484 -192 205 -355 -173 -174 -76 -158 -122 vhcurveto
          -16 -21 -27 -43 -22 vvcurveto
          -16 9 -4 12 14 27 24 21 27 vhcurveto
          125 157 141 6 41 hhcurveto
          404 19 -363 -334 -157 -21 -189 -59 -112 hvcurveto
          -23 -43 -21 -17 -16 vvcurveto
          -10 5 -13 16 54 92 76 115 65 vhcurveto
          93 163 7 232 143 vvcurveto
          -856 314 rmoveto
          28 -12 9 -19 -40 -86 -41 -76 -41 vhcurveto
          -29 -55 -21 -114 -173 vvcurveto
          -416 103 -252 368 191 98 127 62 12 -6 12 -16 vhcurveto
          -29 -45 -49 -137 hhcurveto
          -281 -38 281 260 hvcurveto
          211 40 141 33 vvcurveto
          171 945 rmoveto
          13 -16 -9 2 -8 hhcurveto
          -19 -18 -29 -49 -69 10 -55 61 -40 hvcurveto
          279 -177 rlineto
          -10 16 10 -3 7 hhcurveto
          17 6 15 18 54 -25 70 -59 50 hvcurveto
          endchar
        </CharString>
        <CharString name="Oslash">
          305 -31 160 -111 -21 1276 161 hstemhm
          102 198 708 198 hintmask 10111000
          1087 1480 rmoveto
          -57 -13 -30 -29 -26 -49 -810 -1433 rcurveline
          -16 -29 -6 -14 -13 vvcurveto
          -12 8 -8 16 vhcurveto
          hintmask 01111000
          49 -1 85 29 26 45 rrcurveto
          34 20 13 10 17 hhcurveto
          8 8 -2 -3 10 hvcurveto
          hintmask 10111000
          -15 49 57 -8 65 hhcurveto
          191 98 127 62 12 -6 12 -16 hvcurveto
          -29 -45 -53 -137 hhcurveto
          -52 -44 9 16 -37 hvcurveto
          -11 5 -19 8 21 vvcurveto
          8 3 10 7 12 vhcurveto
          441 775 rlineto
          17 9 9 3 7 hhcurveto
          10 8 -11 -10 3 hvcurveto
          39 -124 6 -151 -144 vvcurveto
          -157 -31 -189 -59 -112 vhcurveto
          -23 -43 -21 -17 -16 vvcurveto
          -10 5 -13 16 54 92 76 115 65 vhcurveto
          93 163 7 232 143 vvcurveto
          222 -42 162 -74 111 vhcurveto
          -5 8 -5 9 10 vvcurveto
          8 3 8 6 11 vhcurveto
          73 129 rlineto
          11 19 4 14 8 vvcurveto
          15 -8 10 -19 -18 -16 -3 -6 -29 vhcurveto
          -227 -171 rmoveto
          13 25 5 18 15 vvcurveto
          56 -118 11 -101 -173 -174 -76 -158 -122 vhcurveto
          -16 -21 -27 -43 -22 vvcurveto
          -16 9 -4 12 14 27 24 21 27 vhcurveto
          125 157 140 9 42 hhcurveto
          55 50 -7 -14 45 hvcurveto
          -9 28 18 -6 17 hhcurveto
          28 16 19 53 28 hvcurveto
          -595 -1051 rmoveto
          44 59 10 50 34 vvcurveto
          18 -3 13 -1 9 vhcurveto
          -12 74 -3 82 77 211 50 141 33 vvcurveto
          28 -12 9 -19 -40 -86 -41 -76 -41 vhcurveto
          -29 -55 -21 -115 -172 vvcurveto
          -207 29 -222 65 27 20 21 29 22 vhcurveto
          endchar
        </CharString>
        <CharString name="Otilde">
          305 -31 164 1137 164 283 167 -84 165 hstemhm
          102 208 564 141 -17 208 hintmask 11011100
          hintmask 11011010
          1206 745 rmoveto
          484 -192 205 -355 -173 -174 -76 -158 -122 vhcurveto
          -16 -21 -27 -43 -22 vvcurveto
          -16 9 -4 12 14 27 24 21 27 vhcurveto
          125 157 141 6 41 hhcurveto
          404 19 -363 -334 -157 -21 -189 -59 -112 hvcurveto
          hintmask 11011100
          -23 -43 -21 -17 -16 vvcurveto
          -10 5 -13 16 vhcurveto
          hintmask 11011010
          54 92 76 115 65 hvcurveto
          93 163 7 232 143 vvcurveto
          hintmask 11101100
          -856 314 rmoveto
          28 -12 9 -19 -40 -86 -41 -76 -41 vhcurveto
          -29 -55 -21 -114 -173 vvcurveto
          -416 103 -252 368 191 98 127 62 12 -6 12 -16 vhcurveto
          -29 -45 -49 -137 hhcurveto
          -281 -38 281 260 hvcurveto
          211 40 141 33 vvcurveto
          442 658 rmoveto
          124 99 125 96 16 -6 9 -12 -6 -8 -4 -5 -6 hvcurveto
          -29 -34 -55 -41 -88 hhcurveto
          hintmask 11011100
          -84 -60 81 -129 hhcurveto
          -121 -112 -131 -85 -20 7 -8 12 6 6 4 4 6 hvcurveto
          25 37 69 46 78 93 88 -83 96 hhcurveto
          endchar
        </CharString>
        <CharString name="P">
          57 11 -21 528 146 576 164 hstem
          133 201 442 213 vstem
          334 396 rmoveto
          51 -29 11 -70 -61 -41 -11 -51 vhcurveto
          -363 vlineto
          -29 12 -14 23 37 74 35 41 34 vhcurveto
          19 22 2 25 26 vvcurveto
          -201 452 rmoveto
          -45 14 -28 72 83 86 1 12 39 vhcurveto
          94 29 61 48 31 vvcurveto
          25 -25 0 -18 vhcurveto
          -167 hlineto
          -32 -6 21 22 hvcurveto
          417 vlineto
          51 -31 8 -70 -61 -39 -8 -51 vhcurveto
          643 -217 rmoveto
          -129 -39 -131 -155 -96 vhcurveto
          -10 -6 -13 -9 -13 vvcurveto
          -16 12 -7 15 vhcurveto
          6 hlineto
          315 37 82 286 123 vvcurveto
          369 -287 86 -163 2 vhcurveto
          1 -58 -37 0 -33 hhcurveto
          -34 -29 0 -1 -43 hvcurveto
          -78 -3 -94 -82 -55 vvcurveto
          -21 17 -2 22 vhcurveto
          209 hlineto
          240 155 -89 -244 hvcurveto
          endchar
        </CharString>
        <CharString name="Q">
          395 -31 164 1137 160 hstem
          102 208 709 208 vstem
          350 1055 rmoveto
          28 -12 9 -19 -40 -86 -41 -76 -41 vhcurveto
          -29 -55 -21 -67 -204 vvcurveto
          -416 127 -264 355 190 109 127 62 12 -6 12 -17 vhcurveto
          -28 -56 -49 -137 hhcurveto
          -281 -48 277 260 hvcurveto
          211 40 141 33 vvcurveto
          877 -314 rmoveto
          484 -203 205 -354 -173 -185 -76 -158 -122 vhcurveto
          -16 -21 -27 -43 -22 vvcurveto
          -16 9 -4 12 14 27 24 21 27 vhcurveto
          125 157 151 10 42 hhcurveto
          403 30 -367 -334 -146 -16 -166 -53 -116 hvcurveto
          -33 -71 -22 -20 -23 vvcurveto
          -15 5 -13 15 -15 vhcurveto
          199 -209 rlineto
          -22 21 14 -7 14 hhcurveto
          64 69 99 32 22 -23 24 -16 16 hvcurveto
          -145 141 rlineto
          -14 12 -8 17 16 vvcurveto
          18 10 17 4 8 vhcurveto
          88 201 35 163 209 vvcurveto
          endchar
        </CharString>
        <CharString name="R">
          129 11 -21 581 146 524 165 hstem
          133 201 454 213 vstem
          788 925 rmoveto
          -130 -67 -117 -132 -75 vhcurveto
          -42 -24 4 -23 -3 vvcurveto
          -10 8 -19 4 -6 vhcurveto
          277 -485 rlineto
          -40 23 18 -3 17 hhcurveto
          30 25 12 15 24 hvcurveto
          51 30 2 27 14 vvcurveto
          18 -11 26 -11 18 vhcurveto
          -234 376 rlineto
          -11 17 -6 15 12 vvcurveto
          19 14 15 17 12 vhcurveto
          171 118 42 134 109 vvcurveto
          399 -350 30 -156 -70 -56 0 -3 -64 vhcurveto
          -78 -3 -94 -79 -57 vvcurveto
          -21 17 -2 22 vhcurveto
          238 hlineto
          202 176 -59 -257 hvcurveto
          -655 -281 rmoveto
          -45 14 -28 72 83 86 1 12 39 vhcurveto
          94 29 69 48 31 vvcurveto
          25 -25 0 -18 vhcurveto
          -175 hlineto
          -32 -6 21 22 hvcurveto
          364 vlineto
          51 -31 8 -70 -61 -39 -8 -51 vhcurveto
          201 -675 rmoveto
          51 -29 11 -70 -61 -41 -11 -51 vhcurveto
          -416 vlineto
          -29 12 -14 23 37 74 35 41 34 vhcurveto
          19 22 2 25 26 vvcurveto
          endchar
        </CharString>
        <CharString name="S">
          18 -31 164 -114 -21 1272 164 hstemhm
          88 197 475 190 hintmask 01111000
          537 793 rmoveto
          -205 39 -47 34 197 vvcurveto
          35 -17 4 -20 -49 -83 -63 -58 -19 vhcurveto
          -4 -12 -5 -23 -22 vvcurveto
          -99 16 -174 367 -51 vhcurveto
          287 -41 2 -148 -118 vvcurveto
          -60 -23 -114 -76 -72 vhcurveto
          -4 -4 -12 -10 -15 vvcurveto
          -10 7 -10 14 101 183 152 225 176 -35 170 -378 72 vhcurveto
          hintmask 10111000
          -163 -824 rmoveto
          205 58 131 35 18 -6 14 -19 hvcurveto
          -26 -24 -34 -76 hhcurveto
          -62 -42 8 72 -83 hvcurveto
          20 -24 -26 15 -26 hhcurveto
          -49 -51 -47 -19 -19 hvcurveto
          -16 -16 -6 -16 -17 vvcurveto
          -20 12 -24 21 -19 vhcurveto
          -90 98 73 -11 88 hhcurveto
          498 1346 rmoveto
          74 -174 45 -104 -200 -149 -70 -143 -118 vhcurveto
          -18 -22 -37 -57 -24 vvcurveto
          -20 10 -4 12 15 28 24 21 25 vhcurveto
          88 106 90 43 115 114 83 -72 61 hhcurveto
          46 95 62 55 hvcurveto
          endchar
        </CharString>
        <CharString name="T">
          61 11 -21 1249 164 hstem
          413 201 vstem
          893 1239 rmoveto
          27 26 2 19 21 hvcurveto
          41 36 26 62 14 vvcurveto
          23 -14 8 -29 vhcurveto
          -819 hlineto
          -27 -26 -2 -19 -21 hvcurveto
          -41 -36 -26 -62 -14 vvcurveto
          -23 14 -8 29 vhcurveto
          340 -1206 rmoveto
          -29 12 -14 23 38 72 41 41 35 vhcurveto
          16 19 4 28 20 vvcurveto
          980 vlineto
          51 -31 8 -70 -61 -39 -8 -51 vhcurveto
          endchar
        </CharString>
        <CharString name="Thorn">
          57 11 -21 310 146 536 164 277 -20 hstem
          133 201 442 213 vstem
          334 1380 rmoveto
          29 -12 14 -23 -39 -72 -41 -41 -34 vhcurveto
          -17 -20 -4 -27 -20 vvcurveto
          -251 vlineto
          -27 13 -14 26 vhcurveto
          209 hlineto
          240 155 -69 -244 -129 -39 -111 -155 -96 hvcurveto
          -10 -6 -13 -9 -13 vvcurveto
          -16 12 -7 15 vhcurveto
          6 hlineto
          315 37 82 266 123 vvcurveto
          369 -287 66 -163 2 vhcurveto
          1 -58 -75 0 -33 hhcurveto
          -26 -13 14 27 hvcurveto
          -1009 vmoveto
          51 -30 11 -70 -61 -40 -11 -51 vhcurveto
          -145 vlineto
          -29 12 -14 23 37 74 35 41 34 vhcurveto
          19 22 2 25 26 vvcurveto
          -201 234 rmoveto
          -45 14 -28 72 83 86 1 12 39 vhcurveto
          94 29 61 52 27 vvcurveto
          25 -25 0 -18 vhcurveto
          -167 hlineto
          -32 -6 19 22 hvcurveto
          379 vlineto
          51 -31 8 -70 -61 -39 -8 -51 vhcurveto
          endchar
        </CharString>
        <CharString name="U">
          278 -31 164 1290 -20 hstem
          133 201 641 174 vstem
          1149 1380 rmoveto
          29 -12 14 -23 -34 -105 -37 -92 vhcurveto
          -737 vlineto
          -154 -12 -180 -52 -108 vhcurveto
          -21 -43 -22 -17 -18 vvcurveto
          -10 6 -11 15 55 73 68 121 54 vhcurveto
          69 157 9 248 156 vvcurveto
          -815 614 rmoveto
          29 -12 14 -23 -39 -72 -41 -41 -34 vhcurveto
          -17 -20 -4 -27 -20 vvcurveto
          -619 vlineto
          -415 78 -271 354 191 98 127 62 12 -6 12 -17 vhcurveto
          -28 -45 -49 -137 hhcurveto
          -273 -14 285 254 hvcurveto
          endchar
        </CharString>
        <CharString name="Uacute">
          278 -31 164 1290 -20 hstem
          133 201 641 174 vstem
          1149 1380 rmoveto
          29 -12 14 -23 -34 -105 -37 -92 vhcurveto
          -737 vlineto
          -154 -12 -180 -52 -108 vhcurveto
          -21 -43 -22 -17 -18 vvcurveto
          -10 6 -11 15 55 73 68 121 54 vhcurveto
          69 157 9 248 156 vvcurveto
          -815 614 rmoveto
          29 -12 14 -23 -39 -72 -41 -41 -34 vhcurveto
          -17 -20 -4 -27 -20 vvcurveto
          -619 vlineto
          -415 78 -271 354 191 98 127 62 12 -6 12 -17 vhcurveto
          -28 -45 -49 -137 hhcurveto
          -273 -14 285 254 hvcurveto
          188 1122 rmoveto
          -59 -50 -25 -70 -54 vvcurveto
          -18 6 -15 17 7 10 3 10 16 vhcurveto
          279 177 rlineto
          61 40 10 55 69 vvcurveto
          49 -18 29 -19 -8 -9 -2 -13 -16 vhcurveto
          endchar
        </CharString>
        <CharString name="Ucircumflex">
          278 -31 164 1290 -20 hstem
          133 201 641 174 vstem
          1149 1380 rmoveto
          29 -12 14 -23 -34 -105 -37 -92 vhcurveto
          -737 vlineto
          -154 -12 -180 -52 -108 vhcurveto
          -21 -43 -22 -17 -18 vvcurveto
          -10 6 -11 15 55 73 68 121 54 vhcurveto
          69 157 9 248 156 vvcurveto
          -815 614 rmoveto
          29 -12 14 -23 -39 -72 -41 -41 -34 vhcurveto
          -17 -20 -4 -27 -20 vvcurveto
          -619 vlineto
          -415 78 -271 354 191 98 127 62 12 -6 12 -17 vhcurveto
          -28 -45 -49 -137 hhcurveto
          -273 -14 285 254 hvcurveto
          363 1321 rmoveto
          17 -19 -12 6 -13 hhcurveto
          -14 -13 -3 -20 -23 hvcurveto
          -293 -254 rlineto
          -25 -22 -7 -40 -30 vvcurveto
          -19 9 -11 15 13 19 11 25 41 vhcurveto
          227 147 rlineto
          9 14 12 5 12 hhcurveto
          13 11 -6 -9 13 hvcurveto
          215 -152 rlineto
          -31 45 24 -10 15 hhcurveto
          17 10 13 22 34 -9 52 -28 26 hvcurveto
          endchar
        </CharString>
        <CharString name="Udieresis">
          278 -31 164 1290 -20 hstem
          133 201 34 184 316 46 61 174 vstem
          1149 1380 rmoveto
          29 -12 14 -23 -34 -105 -37 -92 vhcurveto
          -737 vlineto
          -154 -12 -180 -52 -108 vhcurveto
          -21 -43 -22 -17 -18 vvcurveto
          -10 6 -11 15 55 73 68 121 54 vhcurveto
          69 157 9 248 156 vvcurveto
          -815 614 rmoveto
          29 -12 14 -23 -39 -72 -41 -41 -34 vhcurveto
          -17 -20 -4 -27 -20 vvcurveto
          -619 vlineto
          -415 78 -271 354 191 98 127 62 12 -6 12 -17 vhcurveto
          -28 -45 -49 -137 hhcurveto
          -273 -14 285 254 hvcurveto
          218 1302 rmoveto
          29 -12 14 -23 -34 -60 -36 -41 -34 vhcurveto
          -17 -20 -4 -27 -20 vvcurveto
          -144 vlineto
          -29 12 -14 23 37 57 30 41 34 vhcurveto
          19 22 2 25 26 vvcurveto
          362 144 rmoveto
          29 -12 14 -23 -34 -60 -36 -41 -34 vhcurveto
          -17 -20 -4 -27 -20 vvcurveto
          -144 vlineto
          -29 12 -14 23 37 57 30 41 34 vhcurveto
          19 22 2 25 26 vvcurveto
          endchar
        </CharString>
        <CharString name="Ugrave">
          278 -31 164 1290 -20 hstem
          133 201 641 174 vstem
          1149 1380 rmoveto
          29 -12 14 -23 -34 -105 -37 -92 vhcurveto
          -737 vlineto
          -154 -12 -180 -52 -108 vhcurveto
          -21 -43 -22 -17 -18 vvcurveto
          -10 6 -11 15 55 73 68 121 54 vhcurveto
          69 157 9 248 156 vvcurveto
          -815 614 rmoveto
          29 -12 14 -23 -39 -72 -41 -41 -34 vhcurveto
          -17 -20 -4 -27 -20 vvcurveto
          -619 vlineto
          -415 78 -271 354 191 98 127 62 12 -6 12 -17 vhcurveto
          -28 -45 -49 -137 hhcurveto
          -273 -14 285 254 hvcurveto
          174 1332 rmoveto
          13 -16 -9 2 -8 hhcurveto
          -19 -18 -29 -49 -69 10 -55 61 -40 hvcurveto
          279 -177 rlineto
          -10 16 10 -3 7 hhcurveto
          17 6 15 18 54 -25 70 -59 50 hvcurveto
          endchar
        </CharString>
        <CharString name="V">
          124 11 -21 1433 -20 hstem
          50 1027 vstem
          392 245 rmoveto
          -40 13 16 -5 14 hhcurveto
          54 48 161 53 30 -11 32 -7 23 hvcurveto
          -267 875 rlineto
          33 -10 -21 16 -28 hhcurveto
          -32 -111 -25 -71 -10 3 -21 6 -14 hvcurveto
          1012 72 rmoveto
          4 14 2 16 9 vvcurveto
          24 -14 6 -16 -70 -95 -85 -74 -22 vhcurveto
          -346 -1165 rlineto
          -18 -60 -2 -10 -9 vvcurveto
          -18 8 -12 20 17 47 20 33 47 vhcurveto
          47 33 20 55 17 43 rrcurveto
          endchar
        </CharString>
        <CharString name="W">
          657 11 -21 1433 -20 hstem
          43 1556 vstem
          719 692 rmoveto
          12 55 8 41 43 vvcurveto
          80 -32 182 -41 -15 -13 -9 -31 -7 vhcurveto
          -215 -947 rlineto
          -3 -13 -12 -52 -21 vvcurveto
          -26 19 -4 10 16 28 11 36 46 vhcurveto
          45 35 23 49 12 53 rrcurveto
          993 1184 rmoveto
          4 14 2 12 9 vvcurveto
          24 -14 6 -16 -60 -95 -63 -91 -24 vhcurveto
          -300 -1163 rlineto
          -4 -14 -13 -55 -19 vvcurveto
          -24 16 -4 10 16 39 14 33 44 vhcurveto
          46 34 26 58 10 45 rrcurveto
          -992 61 rmoveto
          -36 8 16 -11 15 hhcurveto
          40 56 147 152 29 0 25 -11 49 hvcurveto
          -183 788 rlineto
          33 -8 -8 12 -23 hhcurveto
          -42 -105 -49 -69 -13 4 -14 2 -10 hvcurveto
          678 86 rmoveto
          -16 -21 -4 -16 -17 vvcurveto
          -8 2 -20 4 -15 vhcurveto
          254 -1024 rlineto
          -36 9 16 -11 16 hhcurveto
          16 14 13 20 11 hvcurveto
          24 46 33 140 48 vvcurveto
          28 -6 41 -6 27 vhcurveto
          -201 827 rlineto
          35 -9 -10 12 -22 hhcurveto
          -31 -61 -28 -41 -33 hvcurveto
          endchar
        </CharString>
        <CharString name="X">
          49 11 -21 1433 -20 hstem
          41 958 vstem
          641 750 rmoveto
          27 14 21 13 23 vhcurveto
          293 516 rlineto
          16 29 4 16 10 vvcurveto
          23 -15 8 -17 -39 -91 -41 -41 -37 vhcurveto
          -18 -20 -21 -29 -14 -26 -293 -518 rcurveline
          -10 -18 -6 -19 -14 vvcurveto
          -25 11 -20 9 -15 vhcurveto
          355 -598 rlineto
          -36 21 20 -13 28 hhcurveto
          42 93 44 62 10 -1 15 -17 29 hvcurveto
          -318 540 rlineto
          -14 24 -8 15 21 vvcurveto
          -209 -348 rmoveto
          14 24 6 23 21 vvcurveto
          51 -41 68 -35 -19 -18 -17 -23 -13 vhcurveto
          -265 -473 rlineto
          -18 -33 -2 -16 -9 vvcurveto
          -26 2 16 -2 17 hhcurveto
          39 86 43 41 37 hvcurveto
          18 20 18 27 15 26 rrcurveto
          18 733 rmoveto
          -32 19 16 -26 29 hhcurveto
          19 27 19 46 28 hvcurveto
          20 33 16 36 24 vvcurveto
          18 -6 17 -12 21 vhcurveto
          -197 346 rlineto
          33 -19 -18 8 -20 hhcurveto
          -40 -110 -48 -64 -13 11 -22 4 -6 hvcurveto
          endchar
        </CharString>
        <CharString name="Y">
          73 11 -21 1433 -20 hstem
          451 206 vstem
          1042 1346 rmoveto
          12 27 3 13 9 vvcurveto
          22 -17 6 -16 -39 -92 -30 -50 -45 vhcurveto
          -19 -21 -13 -30 -11 -26 -309 -750 rcurveline
          -22 -54 -15 -42 -2 -82 -6 -308 rcurveline
          -27 13 -13 21 37 74 35 41 35 vhcurveto
          18 22 1 25 1 26 6 243 rcurveline
          78 17 41 22 52 vhcurveto
          -327 52 rmoveto
          -20 10 11 -17 20 hhcurveto
          42 59 112 63 27 -9 25 -15 32 hvcurveto
          -260 555 rlineto
          34 -16 -21 7 -20 hhcurveto
          -40 -109 -47 -64 -13 10 -23 4 -6 hvcurveto
          endchar
        </CharString>
        <CharString name="Yacute">
          73 11 -21 1433 -20 hstem
          451 206 vstem
          1042 1346 rmoveto
          12 27 3 13 9 vvcurveto
          22 -17 6 -16 -39 -92 -30 -50 -45 vhcurveto
          -19 -21 -13 -30 -11 -26 -309 -750 rcurveline
          -22 -54 -15 -42 -2 -82 -6 -308 rcurveline
          -27 13 -13 21 37 74 35 41 35 vhcurveto
          18 22 1 25 1 26 6 243 rcurveline
          78 17 41 22 52 vhcurveto
          -327 52 rmoveto
          -20 10 11 -17 20 hhcurveto
          42 59 112 63 27 -9 25 -15 32 hvcurveto
          -260 555 rlineto
          34 -16 -21 7 -20 hhcurveto
          -40 -109 -47 -64 -13 10 -23 4 -6 hvcurveto
          384 524 rmoveto
          -59 -50 -25 -70 -54 vvcurveto
          -18 6 -15 17 7 10 3 10 16 vhcurveto
          279 177 rlineto
          61 40 10 55 69 vvcurveto
          49 -18 29 -19 -8 -9 -2 -13 -16 vhcurveto
          endchar
        </CharString>
        <CharString name="Z">
          59 0 164 1075 164 hstem
          71 930 vstem
          850 hmoveto
          27 26 2 19 21 hvcurveto
          41 36 26 62 14 vvcurveto
          23 -14 8 -29 vhcurveto
          -736 hlineto
          -27 -26 -2 -19 -21 hvcurveto
          -41 -36 -26 -62 -14 vvcurveto
          -23 14 -8 29 vhcurveto
          721 1079 rmoveto
          14 26 13 24 18 vvcurveto
          27 -30 5 -34 -87 -26 -26 -76 -42 vhcurveto
          -420 -753 rlineto
          -14 -26 -14 -22 -20 vvcurveto
          -27 31 -5 34 79 29 22 80 45 vhcurveto
          -126 1077 rmoveto
          -78 -95 -87 -47 -28 15 -2 25 hvcurveto
          706 hlineto
          26 26 2 19 21 hvcurveto
          41 37 27 60 15 vvcurveto
          23 -15 8 -28 vhcurveto
          endchar
        </CharString>
        <CharString name="a">
          -3 -31 144 -102 -21 493 144 284 144 hstemhm
          125 158 415 181 hintmask 10111100
          622 56 rmoveto
          14 13 12 13 44 vvcurveto
          30 -6 7 -8 -8 -9 -5 -6 -10 vhcurveto
          -25 -43 -66 -14 -37 hhcurveto
          -137 -41 71 146 22 -13 10 -14 -23 -34 -18 -18 -23 hvcurveto
          -41 -31 -10 -39 -43 vvcurveto
          -127 86 -117 188 76 91 36 51 56 vhcurveto
          -102 999 rmoveto
          -114 -125 -39 -127 -105 hvcurveto
          -8 -10 -23 -33 -23 vvcurveto
          -12 9 -4 6 8 12 4 25 37 vhcurveto
          72 107 93 3 47 hhcurveto
          126 108 -65 -230 hvcurveto
          hintmask 01111100
          -583 vlineto
          -29 13 -14 22 47 99 49 72 vhcurveto
          542 vlineto
          hintmask 10111100
          301 -146 101 -213 vhcurveto
          94 -459 rmoveto
          18 -36 -56 13 -51 hhcurveto
          -139 -121 -61 -121 -72 hvcurveto
          -6 -10 -14 -33 -18 vvcurveto
          -14 6 -4 10 10 17 12 16 20 vhcurveto
          74 92 86 15 56 hhcurveto
          59 40 -10 -31 71 hvcurveto
          -6 13 10 -3 8 hhcurveto
          24 6 25 50 63 -10 13 -23 12 hvcurveto
          endchar
        </CharString>
        <CharString name="aacute">
          -3 -31 144 -102 -21 493 144 284 144 hstemhm
          125 158 415 181 hintmask 10111100
          622 56 rmoveto
          14 13 12 13 44 vvcurveto
          30 -6 7 -8 -8 -9 -5 -6 -10 vhcurveto
          -25 -43 -66 -14 -37 hhcurveto
          -137 -41 71 146 22 -13 10 -14 -23 -34 -18 -18 -23 hvcurveto
          -41 -31 -10 -39 -43 vvcurveto
          -127 86 -117 188 76 91 36 51 56 vhcurveto
          -102 999 rmoveto
          -114 -125 -39 -127 -105 hvcurveto
          -8 -10 -23 -33 -23 vvcurveto
          -12 9 -4 6 8 12 4 25 37 vhcurveto
          72 107 93 3 47 hhcurveto
          126 108 -65 -230 hvcurveto
          hintmask 01111100
          -583 vlineto
          -29 13 -14 22 47 99 49 72 vhcurveto
          542 vlineto
          hintmask 10111100
          301 -146 101 -213 vhcurveto
          94 -459 rmoveto
          18 -36 -56 13 -51 hhcurveto
          -139 -121 -61 -121 -72 hvcurveto
          -6 -10 -14 -33 -18 vvcurveto
          -14 6 -4 10 10 17 12 16 20 vhcurveto
          74 92 86 15 56 hhcurveto
          59 40 -10 -31 71 hvcurveto
          -6 13 10 -3 8 hhcurveto
          24 6 25 50 63 -10 13 -23 12 hvcurveto
          -235 800 rmoveto
          -31 -41 -9 -28 -35 vvcurveto
          -35 10 -41 26 14 11 9 12 12 vhcurveto
          217 229 rlineto
          26 27 7 21 29 vvcurveto
          69 -30 61 -31 -11 -9 -4 -22 -16 vhcurveto
          endchar
        </CharString>
        <CharString name="acircumflex">
          -3 -31 144 -102 -21 493 144 284 144 hstemhm
          125 158 415 181 hintmask 10111100
          622 56 rmoveto
          14 13 12 13 44 vvcurveto
          30 -6 7 -8 -8 -9 -5 -6 -10 vhcurveto
          -25 -43 -66 -14 -37 hhcurveto
          -137 -41 71 146 22 -13 10 -14 -23 -34 -18 -18 -23 hvcurveto
          -41 -31 -10 -39 -43 vvcurveto
          -127 86 -117 188 76 91 36 51 56 vhcurveto
          -102 999 rmoveto
          -114 -125 -39 -127 -105 hvcurveto
          -8 -10 -23 -33 -23 vvcurveto
          -12 9 -4 6 8 12 4 25 37 vhcurveto
          72 107 93 3 47 hhcurveto
          126 108 -65 -230 hvcurveto
          hintmask 01111100
          -583 vlineto
          -29 13 -14 22 47 99 49 72 vhcurveto
          542 vlineto
          hintmask 10111100
          301 -146 101 -213 vhcurveto
          94 -459 rmoveto
          18 -36 -56 13 -51 hhcurveto
          -139 -121 -61 -121 -72 hvcurveto
          -6 -10 -14 -33 -18 vvcurveto
          -14 6 -4 10 10 17 12 16 20 vhcurveto
          74 92 86 15 56 hhcurveto
          59 40 -10 -31 71 hvcurveto
          -6 13 10 -3 8 hhcurveto
          24 6 25 50 63 -10 13 -23 12 hvcurveto
          81 688 rmoveto
          -41 45 15 -4 12 hhcurveto
          27 7 42 22 23 -2 25 -25 26 hvcurveto
          -218 241 rlineto
          18 -18 -14 8 -13 hhcurveto
          -14 -13 -5 -21 -22 hvcurveto
          -240 -251 rlineto
          -18 -18 -4 -28 -23 vvcurveto
          -21 3 -33 25 13 12 4 39 45 vhcurveto
          163 147 rlineto
          15 17 11 8 12 hhcurveto
          12 10 -10 -13 14 hvcurveto
          endchar
        </CharString>
        <CharString name="acute">
          -521 1216 457 hstem
          80 323 vstem
          120 1396 rmoveto
          -31 -41 -9 -28 -35 vvcurveto
          -35 10 -41 26 14 11 9 12 12 vhcurveto
          217 229 rlineto
          26 27 7 21 29 vvcurveto
          69 -30 61 -31 -11 -9 -4 -22 -16 vhcurveto
          endchar
        </CharString>
        <CharString name="acute.case">
          -578 1587 432 hstem
          80 406 vstem
          164 1794 rmoveto
          -59 -50 -25 -70 -54 vvcurveto
          -18 6 -15 17 7 10 3 10 16 vhcurveto
          279 177 rlineto
          61 40 10 55 69 vvcurveto
          49 -18 29 -19 -8 -9 -2 -13 -16 vhcurveto
          endchar
        </CharString>
        <CharString name="adieresis">
          -3 -31 144 -102 -21 493 144 284 144 hstemhm
          125 158 -35 165 175 165 -55 181 hintmask 10110101
          622 56 rmoveto
          14 13 12 13 44 vvcurveto
          30 -6 7 -8 -8 -9 -5 -6 -10 vhcurveto
          -25 -43 -66 -14 -37 hhcurveto
          hintmask 10111001
          -137 -41 71 146 22 -13 10 -14 -23 -34 -18 -18 -23 hvcurveto
          -41 -31 -10 -39 -43 vvcurveto
          -127 86 -117 188 vhcurveto
          hintmask 10110101
          76 91 36 51 56 hvcurveto
          -102 999 rmoveto
          -114 -125 -39 -127 -105 hvcurveto
          -8 -10 -23 -33 -23 vvcurveto
          -12 9 -4 6 8 12 4 25 37 vhcurveto
          72 107 93 3 47 hhcurveto
          126 108 -65 -230 hvcurveto
          hintmask 01110101
          -583 vlineto
          -29 13 -14 22 47 99 49 72 vhcurveto
          542 vlineto
          hintmask 10110101
          301 -146 101 -213 vhcurveto
          94 -459 rmoveto
          18 -36 -56 13 -51 hhcurveto
          -139 -121 -61 -121 -72 hvcurveto
          -6 -10 -14 -33 -18 vvcurveto
          -14 6 -4 10 10 17 12 16 20 vhcurveto
          74 92 86 15 56 hhcurveto
          59 40 -10 -31 71 hvcurveto
          -6 13 10 -3 8 hhcurveto
          24 6 25 50 63 -10 13 -23 12 hvcurveto
          -201 937 rmoveto
          29 -12 14 -23 -29 -48 -27 -41 -35 vhcurveto
          -16 -20 -2 -21 -20 vvcurveto
          -145 vlineto
          -29 12 -14 23 29 49 25 42 34 vhcurveto
          17 21 1 20 21 vvcurveto
          hintmask 10110110
          340 145 rmoveto
          29 -12 14 -23 -29 -48 -27 -41 -35 vhcurveto
          -16 -20 -2 -21 -20 vvcurveto
          -145 vlineto
          -29 12 -14 23 29 49 25 42 34 vhcurveto
          17 21 1 20 21 vvcurveto
          endchar
        </CharString>
        <CharString name="ae">
          507 -31 144 322 139 -75 144 268 144 hstemhm
          125 158 416 189 356 189 hintmask 10111110
          hintmask 11011110
          888 617 rmoveto
          31 26 85 25 vvcurveto
          22 -10 8 -14 -23 -22 -12 -18 -31 vhcurveto
          -52 -31 -63 -74 -166 vvcurveto
          -32 18 -10 27 -2 vhcurveto
          -5 57 48 -3 52 hhcurveto
          337 195 142 203 188 -135 87 -185 -67 -87 -23 -71 -93 hvcurveto
          -7 -10 -16 -12 -17 hhcurveto
          -14 -15 9 12 -12 hvcurveto
          70 -74 -80 22 -108 hhcurveto
          -114 -125 -39 -127 -105 hvcurveto
          -8 -10 -23 -33 -23 vvcurveto
          -12 9 -4 6 8 12 4 25 37 vhcurveto
          72 107 93 3 47 hhcurveto
          75 65 -23 -73 53 hvcurveto
          -23 17 17 -16 29 hhcurveto
          30 30 21 20 28 hvcurveto
          91 132 93 3 35 hhcurveto
          134 42 -67 -70 -77 -46 -123 -241 -36 -33 2 41 hvcurveto
          178 -648 rmoveto
          250 109 160 49 17 -8 8 -15 hvcurveto
          -35 -67 -90 -166 hhcurveto
          -128 -112 32 191 -6 hvcurveto
          48 -1 -13 6 -74 hhcurveto
          -93 -1 -33 -52 -238 136 -98 224 hvcurveto
          -406 120 rmoveto
          10 13 10 9 19 vvcurveto
          6 -2 14 -2 6 vhcurveto
          40 -10 -10 2 -8 hhcurveto
          -13 -11 -12 -12 -16 hvcurveto
          -28 -38 -47 -33 -77 hhcurveto
          -122 -41 71 146 22 -13 10 -14 -23 -34 -18 -18 -23 hvcurveto
          -41 -31 -10 -39 -43 vvcurveto
          -127 86 -117 188 97 103 44 76 61 vhcurveto
          hintmask 10111110
          -41 532 rmoveto
          16 -32 -55 6 -46 hhcurveto
          -146 -124 -69 -129 -77 hvcurveto
          -6 -10 -14 -33 -18 vvcurveto
          -14 6 -4 10 10 17 12 16 20 vhcurveto
          74 92 74 31 103 90 42 -36 38 hhcurveto
          23 8 27 55 57 -12 8 -21 11 hvcurveto
          endchar
        </CharString>
        <CharString name="agrave">
          -3 -31 144 -102 -21 493 144 284 144 hstemhm
          125 158 415 181 hintmask 10111100
          622 56 rmoveto
          14 13 12 13 44 vvcurveto
          30 -6 7 -8 -8 -9 -5 -6 -10 vhcurveto
          -25 -43 -66 -14 -37 hhcurveto
          -137 -41 71 146 22 -13 10 -14 -23 -34 -18 -18 -23 hvcurveto
          -41 -31 -10 -39 -43 vvcurveto
          -127 86 -117 188 76 91 36 51 56 vhcurveto
          -102 999 rmoveto
          -114 -125 -39 -127 -105 hvcurveto
          -8 -10 -23 -33 -23 vvcurveto
          -12 9 -4 6 8 12 4 25 37 vhcurveto
          72 107 93 3 47 hhcurveto
          126 108 -65 -230 hvcurveto
          hintmask 01111100
          -583 vlineto
          -29 13 -14 22 47 99 49 72 vhcurveto
          542 vlineto
          hintmask 10111100
          301 -146 101 -213 vhcurveto
          94 -459 rmoveto
          18 -36 -56 13 -51 hhcurveto
          -139 -121 -61 -121 -72 hvcurveto
          -6 -10 -14 -33 -18 vvcurveto
          -14 6 -4 10 10 17 12 16 20 vhcurveto
          74 92 86 15 56 hhcurveto
          59 40 -10 -31 71 hvcurveto
          -6 13 10 -3 8 hhcurveto
          24 6 25 50 63 -10 13 -23 12 hvcurveto
          -177 1051 rmoveto
          22 -16 -9 4 -11 hhcurveto
          -31 -32 -64 -69 -29 7 -21 26 -27 hvcurveto
          219 -229 rlineto
          -12 12 11 -9 14 hhcurveto
          30 6 46 35 35 -9 25 -31 42 hvcurveto
          endchar
        </CharString>
        <CharString name="ampersand">
          510 -31 144 -144 164 548 143 446 164 hstemhm
          49 212 -194 191 679 180 hintmask 01111010
          875 1315 rmoveto
          74 -174 45 -104 -240 -139 -70 -143 -118 vhcurveto
          -18 -22 -37 -57 -24 vvcurveto
          -20 10 -4 12 15 28 24 21 25 vhcurveto
          88 106 90 43 145 114 83 -72 61 hhcurveto
          46 95 62 55 hvcurveto
          -558 -721 rmoveto
          39 -75 20 -40 -52 -26 -43 -16 -10 vhcurveto
          -36 -58 -29 -91 -103 vvcurveto
          -170 84 -203 362 170 121 69 66 70 vhcurveto
          17 16 15 19 55 vvcurveto
          37 -11 8 -10 -10 -9 -5 -7 -12 vhcurveto
          -33 -54 -98 -61 -126 hhcurveto
          hintmask 10110110
          -203 -94 83 173 44 14 60 24 48 hvcurveto
          15 30 3 10 13 vvcurveto
          800 -20 rmoveto
          55 -49 0 -40 -41 -50 0 -55 vhcurveto
          -187 vlineto
          -307 80 -111 202 203 72 137 56 16 -11 8 -14 vhcurveto
          -35 -32 -73 -127 hhcurveto
          -101 -57 73 238 hvcurveto
          683 vmoveto
          29 -12 14 -23 -53 -92 -45 -81 vhcurveto
          -290 vlineto
          -45 24 -8 29 vhcurveto
          268 hlineto
          51 37 2 10 27 hvcurveto
          43 16 57 60 32 vvcurveto
          19 -16 4 -19 vhcurveto
          -268 hlineto
          -29 -24 8 45 hvcurveto
          -232 -86 rmoveto
          25 -8 8 -14 vhcurveto
          -205 hlineto
          -315 -85 42 197 35 -17 4 -20 -49 -77 -63 -58 -19 hvcurveto
          -4 -12 -5 -23 -22 vvcurveto
          -114 60 -129 357 vhcurveto
          348 hlineto
          45 8 24 29 hvcurveto
          endchar
        </CharString>
        <CharString name="aring">
          -3 -31 144 -102 -21 493 144 284 144 152 100 242 101 hstemhm
          125 158 -9 127 199 127 -29 181 hintmask 1011110101000000
          hintmask 1011110110000000
          622 56 rmoveto
          14 13 12 13 44 vvcurveto
          30 -6 7 -8 -8 -9 -5 -6 -10 vhcurveto
          -25 -43 -66 -14 -37 hhcurveto
          -137 -41 71 146 22 -13 10 -14 -23 -34 -18 -18 -23 hvcurveto
          -41 -31 -10 -39 -43 vvcurveto
          -127 86 -117 188 76 91 36 51 56 vhcurveto
          -102 999 rmoveto
          -114 -125 -39 -127 -105 hvcurveto
          -8 -10 -23 -33 -23 vvcurveto
          -12 9 -4 6 8 12 4 25 37 vhcurveto
          hintmask 1011111001000000
          72 107 93 3 47 hhcurveto
          126 108 -65 -230 hvcurveto
          -583 vlineto
          -29 13 -14 22 47 99 49 72 vhcurveto
          hintmask 1011110110000000
          542 vlineto
          hintmask 0111110101000000
          301 -146 101 -213 vhcurveto
          94 -459 rmoveto
          18 -36 -56 13 -51 hhcurveto
          -139 -121 -61 -121 -72 hvcurveto
          -6 -10 -14 -33 -18 vvcurveto
          -14 6 -4 10 10 17 12 16 20 vhcurveto
          74 92 86 15 56 hhcurveto
          59 40 -10 -31 71 hvcurveto
          -6 13 10 -3 8 hhcurveto
          24 6 25 50 63 -10 13 -23 12 hvcurveto
          -113 953 rmoveto
          60 39 -43 -69 -98 -51 -32 -46 -56 -46 46 74 95 59 27 41 hvcurveto
          -2 101 rmoveto
          -111 -114 -91 -132 -152 115 -68 115 113 110 84 148 64 -30 60 -45 36 hvcurveto
          35 -42 -57 16 -54 hhcurveto
          endchar
        </CharString>
        <CharString name="asciicircum">
          420 1457 923 hstem
          90 1244 vstem
          181 1460 rmoveto
          21 10 9 18 16 hvcurveto
          411 561 rlineto
          10 15 8 20 12 vvcurveto
          35 -52 77 -31 -12 -8 -6 -19 -14 vhcurveto
          -432 -596 rlineto
          -10 -16 -8 -14 -13 vvcurveto
          -45 60 -38 31 vhcurveto
          1061 -3 rmoveto
          31 61 41 45 13 -8 14 -10 16 hvcurveto
          -556 776 rlineto
          17 -13 -12 1 -8 hhcurveto
          -34 -58 -65 -35 -12 3 -14 15 -21 hvcurveto
          542 -749 rlineto
          -18 16 10 -9 21 hhcurveto
          endchar
        </CharString>
        <CharString name="asciitilde">
          233 468 156 -9 157 hstemhm
          164 909 hintmask 10100000
          hintmask 01100000
          214 698 rmoveto
          -18 -14 -32 -32 -76 vvcurveto
          -20 7 -7 9 13 22 13 7 12 vhcurveto
          26 45 65 20 55 180 41 -147 214 hhcurveto
          hintmask 10100000
          80 65 27 40 51 hvcurveto
          18 14 32 35 76 vvcurveto
          20 -7 7 -9 -13 -23 -15 -7 -13 vhcurveto
          -40 -71 -60 -1 -36 -139 -59 148 -222 hhcurveto
          -85 -60 -23 -51 -62 hvcurveto
          endchar
        </CharString>
        <CharString name="asterisk">
          67 820 716 hstemhm
          165 741 -443 147 hintmask 11000000
          440 1120 rmoveto
          -155 -188 rlineto
          -10 -12 -4 -12 -9 vvcurveto
          -27 64 -52 32 14 11 8 18 14 vhcurveto
          126 205 rlineto
          5 hlineto
          131 -207 rlineto
          -17 11 13 -6 13 hhcurveto
          28 70 50 27 11 -4 12 -11 13 hvcurveto
          -153 186 rlineto
          6 vlineto
          235 60 rlineto
          27 7 9 14 21 vvcurveto
          49 -22 55 -31 -11 -8 -4 -3 -9 vhcurveto
          hintmask 10100000
          -225 -88 -4 2 14 249 rlineto
          39 -21 9 -54 -51 -21 -9 -37 -2 0 -2 16 -245 vhcurveto
          -4 -4 -227 90 rlineto
          3 -9 -8 2 -7 hhcurveto
          -25 -34 -43 -60 -23 10 -13 28 -7 hvcurveto
          hintmask 11000000
          235 -62 rlineto
          endchar
        </CharString>
        <CharString name="at">
          1126 -440 164 241 141 -73 129 723 129 248 172 hstemhm
          133 207 278 170 439 162 395 213 hintmask 1101111110000000
          379 850 rmoveto
          29 -12 8 -19 -41 -87 -41 -76 -40 vhcurveto
          -29 -55 -18 -109 -174 vvcurveto
          -416 184 -456 628 219 185 129 61 12 -6 13 -16 vhcurveto
          -29 -80 -51 -171 hhcurveto
          -647 -60 485 260 hvcurveto
          211 39 137 33 vvcurveto
          hintmask 1011111110000000
          770 -649 rmoveto
          -21 -36 -38 -18 -57 hhcurveto
          -168 -62 112 224 hvcurveto
          139 31 83 22 vvcurveto
          21 -8 6 -12 -39 -68 -43 -47 -30 vhcurveto
          -25 -37 -19 -85 -76 vvcurveto
          -387 162 -61 170 71 75 27 48 59 vhcurveto
          12 10 13 13 42 vvcurveto
          30 -9 4 -6 -5 -5 -2 -4 -6 vhcurveto
          -30 644 rmoveto
          -9 14 10 -4 8 hhcurveto
          27 1 50 30 50 -20 17 -21 9 hvcurveto
          21 -45 -46 5 -38 hhcurveto
          -117 -117 -35 -133 -87 hvcurveto
          -6 -10 -18 -29 -19 vvcurveto
          -12 4 -4 10 8 19 12 13 18 vhcurveto
          57 83 80 31 82 hhcurveto
          43 55 -6 -34 53 hvcurveto
          108 -565 rmoveto
          hintmask 1101111110000000
          -238 116 -77 166 328 160 246 389 557 -406 277 -477 -475 -285 -244 -193 -135 vhcurveto
          -16 -22 -27 -43 -23 vvcurveto
          -16 8 -4 13 14 28 23 22 25 vhcurveto
          153 168 262 175 359 hhcurveto
          403 328 -207 -516 -211 -53 -222 -191 -102 -49 78 129 hvcurveto
          662 vlineto
          24 -11 15 -20 -35 -49 -25 -37 -31 vhcurveto
          -16 -18 0 -19 -18 vvcurveto
          endchar
        </CharString>
        <CharString name="atilde">
          -3 -31 144 -102 -21 493 144 284 144 238 155 -52 153 hstemhm
          125 158 415 181 hintmask 10110111
          622 56 rmoveto
          14 13 12 13 44 vvcurveto
          30 -6 7 -8 -8 -9 -5 -6 -10 vhcurveto
          -25 -43 -66 -14 -37 hhcurveto
          -137 -41 71 146 22 -13 10 -14 -23 -34 -18 -18 -23 hvcurveto
          -41 -31 -10 -39 -43 vvcurveto
          -127 86 -117 188 76 91 36 51 56 vhcurveto
          -102 999 rmoveto
          -114 -125 -39 -127 -105 hvcurveto
          -8 -10 -23 -33 -23 vvcurveto
          -12 9 -4 6 8 12 4 25 37 vhcurveto
          72 107 93 3 47 hhcurveto
          126 108 -65 -230 hvcurveto
          hintmask 01110111
          -583 vlineto
          -29 13 -14 22 47 99 49 72 vhcurveto
          542 vlineto
          hintmask 10110111
          301 -146 101 -213 vhcurveto
          94 -459 rmoveto
          18 -36 -56 13 -51 hhcurveto
          -139 -121 -61 -121 -72 hvcurveto
          -6 -10 -14 -33 -18 vvcurveto
          -14 6 -4 10 10 17 12 16 20 vhcurveto
          74 92 86 15 56 hhcurveto
          59 40 -10 -31 71 hvcurveto
          -6 13 10 -3 8 hhcurveto
          24 6 25 50 63 -10 13 -23 12 hvcurveto
          hintmask 10111011
          26 697 rmoveto
          124 74 129 96 16 -6 9 -12 -6 -8 -4 -5 -6 hvcurveto
          -29 -34 -30 -57 -88 -84 -56 101 -129 hhcurveto
          hintmask 10110111
          -121 -96 -125 -93 -20 7 -10 12 6 6 4 4 6 hvcurveto
          25 37 49 62 78 93 88 -103 96 hhcurveto
          endchar
        </CharString>
        <CharString name="b">
          45 -31 144 798 144 hstem
          124 180 462 190 vstem
          356 971 rmoveto
          -13 -17 -13 -7 -9 hhcurveto
          -11 -5 11 25 hvcurveto
          3 506 rlineto
          29 -12 14 -23 -53 -92 -51 -78 vhcurveto
          -642 vlineto
          -15 2 -17 18 14 22 14 11 14 vhcurveto
          105 138 66 48 116 hhcurveto
          201 51 -184 -291 -80 -8 -149 -33 -90 hvcurveto
          -23 -64 -24 -14 -16 vvcurveto
          -11 8 -8 12 42 86 73 107 53 vhcurveto
          48 96 29 143 128 vvcurveto
          358 -141 146 -227 -68 -86 -27 -57 -78 vhcurveto
          119 -858 rmoveto
          -124 -46 50 130 -1 hvcurveto
          402 vlineto
          29 -8 14 -23 -28 -58 -41 -40 -35 vhcurveto
          -21 -24 -7 -25 -37 vvcurveto
          -339 vlineto
          -202 118 -61 165 158 100 88 64 10 -5 12 -16 vhcurveto
          -25 -33 -30 -111 hhcurveto
          endchar
        </CharString>
        <CharString name="backslash">
          -208 11 -21 hstem
          -100 996 vstem
          5 1526 rmoveto
          6 -29 -31 4 -18 hhcurveto
          -19 -8 -10 -15 -8 4 -14 11 -19 hvcurveto
          776 -1407 rlineto
          -45 24 90 -28 66 hhcurveto
          16 9 8 12 13 -7 14 -16 29 hvcurveto
          -750 1370 -26 49 -35 28 -57 13 rlinecurve
          endchar
        </CharString>
        <CharString name="bar">
          -624 -583 -21 hstem
          100 180 vstem
          100 -561 rmoveto
          -29 12 -14 23 53 92 45 80 vhcurveto
          1972 vlineto
          29 -12 14 -23 -53 -92 -47 -78 vhcurveto
          endchar
        </CharString>
        <CharString name="braceleft">
          -148 -601 131 873 128 874 131 hstemhm
          311 214 -204 206 hintmask 11101000
          714 -601 rmoveto
          27 33 2 18 20 hvcurveto
          41 37 21 29 14 vvcurveto
          22 -15 9 -28 vhcurveto
          -107 hlineto
          -166 -15 74 136 hvcurveto
          6 2 78 246 vvcurveto
          167 -104 218 -176 11 vhcurveto
          3 vlineto
          hintmask 11110000
          174 11 106 213 172 vvcurveto
          2 -1 74 -1 266 vhcurveto
          129 0 69 161 vhcurveto
          8 hlineto
          27 33 2 18 20 hvcurveto
          41 37 21 29 14 vvcurveto
          22 -15 9 -28 vhcurveto
          -166 hlineto
          -223 -93 -112 -262 hvcurveto
          -121 2 -214 -108 vvcurveto
          -140 -29 -48 -124 vhcurveto
          -19 hlineto
          -96 -45 -84 -14 -22 14 -8 29 hvcurveto
          117 hlineto
          hintmask 11101000
          124 29 -47 -140 hvcurveto
          -108 8 -213 -121 vvcurveto
          -262 103 -113 223 vhcurveto
          endchar
        </CharString>
        <CharString name="braceright">
          -148 -601 131 874 128 873 131 hstemhm
          329 206 -204 214 hintmask 11110000
          142 1536 rmoveto
          -27 -33 -2 -18 -20 hvcurveto
          -41 -37 -21 -29 -14 vvcurveto
          -22 15 -9 28 vhcurveto
          107 hlineto
          166 15 -74 -136 hvcurveto
          -6 -2 -78 -246 vvcurveto
          -167 104 -218 176 -11 vhcurveto
          -3 vlineto
          hintmask 11101000
          -174 -11 -106 -213 -172 vvcurveto
          -2 1 -74 1 -266 vhcurveto
          -129 0 -69 -161 vhcurveto
          -8 hlineto
          -27 -33 -2 -18 -20 hvcurveto
          -41 -37 -21 -29 -14 vvcurveto
          -22 15 -9 28 vhcurveto
          166 hlineto
          223 93 112 262 hvcurveto
          121 -2 214 108 vvcurveto
          140 29 48 124 vhcurveto
          19 hlineto
          96 45 84 14 22 -14 8 -29 hvcurveto
          -117 hlineto
          hintmask 11110000
          -124 -29 47 140 hvcurveto
          108 -8 213 121 vvcurveto
          262 -103 113 -223 vhcurveto
          endchar
        </CharString>
        <CharString name="bracketleft">
          -310 -604 144 1852 144 hstem
          102 201 vstem
          303 1272 rmoveto
          52 -31 8 -69 -62 -39 -8 -52 vhcurveto
          -1811 vlineto
          -38 14 -27 42 vhcurveto
          419 hlineto
          20 19 8 13 16 hvcurveto
          42 36 20 42 15 vvcurveto
          22 -13 8 -29 vhcurveto
          -288 hlineto
          -41 -20 24 41 hvcurveto
          -70 1931 rmoveto
          -24 -23 -2 -16 -18 hvcurveto
          -33 -29 -33 -46 -24 vvcurveto
          -21 13 -6 26 vhcurveto
          413 hlineto
          26 31 2 19 21 hvcurveto
          41 37 21 41 15 vvcurveto
          22 -13 8 -29 vhcurveto
          endchar
        </CharString>
        <CharString name="bracketright">
          -310 -604 144 1852 144 hstem
          0 331 60 201 vstem
          391 -545 rmoveto
          -41 21 -18 30 24 43 5 54 45 vhcurveto
          24 28 14 25 31 vvcurveto
          1931 vlineto
          41 -21 25 -41 vhcurveto
          -413 hlineto
          -20 -19 -8 -13 -16 hvcurveto
          -41 -37 -21 -41 -15 vvcurveto
          -22 13 -8 29 vhcurveto
          288 hlineto
          41 20 -24 -41 hvcurveto
          -109 -1931 rmoveto
          43 6 14 60 49 -6 21 -43 hvcurveto
          -142 hlineto
          -26 -31 -2 -19 -21 hvcurveto
          -41 -37 -21 -41 -15 vvcurveto
          -22 13 -8 29 vhcurveto
          endchar
        </CharString>
        <CharString name="brokenbar">
          -624 -583 -21 hstem
          100 180 vstem
          100 812 rmoveto
          -29 12 -14 23 53 92 45 80 vhcurveto
          599 vlineto
          29 -12 14 -23 -53 -92 -47 -78 vhcurveto
          -1972 vmoveto
          -29 12 -14 23 53 92 45 80 vhcurveto
          599 vlineto
          29 -12 14 -23 -53 -92 -47 -78 vhcurveto
          endchar
        </CharString>
        <CharString name="bullet">
          -187 463 606 hstem
          100 617 vstem
          100 766 rmoveto
          -170 136 -133 171 171 139 133 170 170 -139 133 -171 -171 -136 -133 -170 vhcurveto
          endchar
        </CharString>
        <CharString name="c">
          -74 -31 146 796 144 hstem
          92 189 vstem
          281 508 rmoveto
          135 30 90 29 vvcurveto
          22 -10 6 -14 -44 -76 -49 -47 -30 vhcurveto
          -27 -41 -18 -89 -105 vvcurveto
          -307 125 -183 287 213 141 156 55 17 -10 6 -14 vhcurveto
          -35 -68 -88 -170 hhcurveto
          -203 -77 155 238 hvcurveto
          516 489 rmoveto
          39 -52 -102 19 -78 hhcurveto
          -196 -109 -66 -123 -96 hvcurveto
          -8 -10 -23 -37 -18 vvcurveto
          -13 6 -4 8 10 21 15 14 21 vhcurveto
          71 102 90 27 101 hhcurveto
          38 48 -8 -31 67 hvcurveto
          -12 26 17 -6 25 hhcurveto
          47 67 64 32 21 -12 12 -18 14 hvcurveto
          endchar
        </CharString>
        <CharString name="caron">
          -243 1428 -20 hstem
          80 601 vstem
          182 1605 rmoveto
          39 -39 -11 2 -13 hhcurveto
          -24 -15 -38 -23 -22 3 -29 24 -27 hvcurveto
          218 -239 rlineto
          -19 18 14 -8 13 hhcurveto
          14 15 5 22 22 hvcurveto
          231 249 rlineto
          27 29 2 31 23 vvcurveto
          15 -2 31 -25 -13 -13 -4 -41 -44 vhcurveto
          -163 -150 rlineto
          -15 -18 -10 -8 -12 hhcurveto
          -12 -10 10 13 -14 hvcurveto
          endchar
        </CharString>
        <CharString name="caron.case">
          -124 1636 405 hstem
          80 720 vstem
          386 1659 rmoveto
          -17 19 12 -6 13 hhcurveto
          14 13 3 20 23 hvcurveto
          291 253 rlineto
          25 22 4 44 30 vvcurveto
          19 -9 11 -15 -13 -19 -11 -25 -41 vhcurveto
          -227 -146 rlineto
          -9 -14 -12 -5 -12 hhcurveto
          -13 -11 6 9 -13 hvcurveto
          -210 143 rlineto
          31 -45 -24 10 -15 hhcurveto
          -17 -10 -13 -22 -34 9 -45 28 -26 hvcurveto
          endchar
        </CharString>
        <CharString name="ccedilla">
          -74 -218 101 86 146 -122 -21 939 144 hstemhm
          92 189 217 176 hintmask 11011100
          524 -117 rmoveto
          -34 -32 -8 -30 hhcurveto
          -24 -8 7 16 hvcurveto
          hintmask 10111100
          7 2 12 7 23 vhcurveto
          29 9 12 3 18 19 20 -3 21 hhcurveto
          hintmask 11011100
          213 141 156 55 17 -10 6 -14 hvcurveto
          -35 -68 -88 -170 hhcurveto
          -203 -77 155 238 hvcurveto
          135 30 90 29 vvcurveto
          22 -10 6 -14 -44 -76 -49 -47 -30 vhcurveto
          -27 -41 -18 -89 -105 vvcurveto
          -214 60 -153 134 -74 vhcurveto
          6 -4 13 -7 -21 vvcurveto
          -6 -2 -9 -2 -8 vhcurveto
          -29 -109 rlineto
          -3 -10 -6 -30 -10 vvcurveto
          -25 13 -13 27 vhcurveto
          35 32 16 48 hhcurveto
          36 44 -11 -60 -69 -90 -64 -114 -33 hvcurveto
          -14 -4 -24 -9 -33 vvcurveto
          -42 25 -12 19 57 115 53 27 47 vhcurveto
          86 49 69 70 95 vvcurveto
          96 -61 48 -89 vhcurveto
          273 1114 rmoveto
          39 -52 -102 19 -78 hhcurveto
          -196 -109 -66 -123 -96 hvcurveto
          -8 -10 -23 -37 -18 vvcurveto
          -13 6 -4 8 10 21 15 14 21 vhcurveto
          71 102 90 27 101 hhcurveto
          38 48 -8 -31 67 hvcurveto
          -12 26 17 -6 25 hhcurveto
          47 67 64 32 21 -12 12 -18 14 hvcurveto
          endchar
        </CharString>
        <CharString name="cedilla">
          -420 -218 101 hstem
          324 176 vstem
          350 -117 rmoveto
          -34 -32 -8 -30 hhcurveto
          -24 -8 10 16 8 3 11 11 34 hvcurveto
          20 62 rlineto
          -115 hlineto
          -43 -162 rlineto
          -3 -10 -6 -30 -10 vvcurveto
          -25 13 -13 27 vhcurveto
          35 32 16 48 hhcurveto
          36 44 -11 -60 -69 -90 -64 -114 -33 hvcurveto
          -14 -4 -24 -9 -33 vvcurveto
          -42 25 -12 19 57 115 53 27 47 vhcurveto
          86 49 69 70 95 vvcurveto
          96 -61 48 -89 vhcurveto
          endchar
        </CharString>
        <CharString name="cent">
          -46 13 -21 hstem
          92 189 180 152 vstem
          401 76 rmoveto
          84 -13 9 -29 36 vhcurveto
          -55 68 -23 105 130 135 30 90 29 vvcurveto
          22 -10 6 -14 -44 -76 -49 -47 -30 vhcurveto
          -27 -41 -18 -89 -105 vvcurveto
          -160 32 -124 72 -84 vhcurveto
          -41 35 85 -58 39 hhcurveto
          20 26 15 69 hvcurveto
          9 900 rmoveto
          41 -10 12 -15 -8 -10 -3 -4 -9 vhcurveto
          -78 -32 -61 -55 -55 -69 rrcurveto
          -8 -10 -23 -37 -18 vvcurveto
          -13 6 -4 8 10 21 15 14 21 vhcurveto
          55 39 54 24 52 18 rrcurveto
          23 8 27 3 71 vvcurveto
          51 -1233 rmoveto
          -29 12 -14 23 21 44 25 42 34 vhcurveto
          17 21 1 20 21 vvcurveto
          117 vlineto
          35 22 9 12 4 vhcurveto
          131 45 80 100 41 vvcurveto
          17 -10 6 -14 vhcurveto
          -35 -68 -88 -170 -19 -22 3 -19 hhcurveto
          -28 -12 -9 -38 hvcurveto
          184 801 rmoveto
          -12 26 17 -6 25 hhcurveto
          47 67 64 32 21 -12 12 -18 14 hvcurveto
          -31 23 -50 16 -51 9 rrcurveto
          -18 3 -35 0 68 vvcurveto
          166 vlineto
          28 -12 15 -23 -19 -44 -27 -41 -35 vhcurveto
          -16 -20 -3 -21 -20 vvcurveto
          -242 vlineto
          -33 17 -8 24 -2 vhcurveto
          64 -5 32 -12 48 -22 rrcurveto
          endchar
        </CharString>
        <CharString name="circumflex">
          -243 1239 405 hstem
          80 601 vstem
          575 1284 rmoveto
          -41 45 15 -4 12 hhcurveto
          27 7 42 22 23 -2 25 -25 26 hvcurveto
          -218 241 rlineto
          18 -18 -14 8 -13 hhcurveto
          -14 -13 -5 -21 -22 hvcurveto
          -240 -251 rlineto
          -18 -18 -4 -28 -23 vvcurveto
          -21 3 -33 25 13 12 4 39 45 vhcurveto
          163 147 rlineto
          15 17 11 8 12 hhcurveto
          12 10 -10 -13 14 hvcurveto
          endchar
        </CharString>
        <CharString name="circumflex.case">
          -119 1606 410 hstem
          80 725 vstem
          499 1993 rmoveto
          17 -19 -12 6 -13 hhcurveto
          -14 -13 -3 -20 -23 hvcurveto
          -293 -254 rlineto
          -25 -22 -7 -40 -30 vvcurveto
          -19 9 -11 15 13 19 11 25 41 vhcurveto
          227 147 rlineto
          9 14 12 5 12 hhcurveto
          13 11 -6 -9 13 hvcurveto
          215 -152 rlineto
          -31 45 24 -10 15 hhcurveto
          17 10 13 22 34 -9 52 -28 26 hvcurveto
          endchar
        </CharString>
        <CharString name="colon">
          -537 11 -21 1064 -20 hstem
          133 201 vstem
          334 274 rmoveto
          29 -12 14 -23 -39 -72 -41 -40 -34 vhcurveto
          -17 -21 -4 -27 -20 vvcurveto
          -135 vlineto
          -29 12 -14 23 37 74 35 41 34 vhcurveto
          19 22 2 25 26 vvcurveto
          872 vmoveto
          29 -12 14 -23 -39 -72 -41 -40 -34 vhcurveto
          -17 -21 -4 -27 -20 vvcurveto
          -135 vlineto
          -29 12 -14 23 37 74 35 41 34 vhcurveto
          19 22 2 25 26 vvcurveto
          endchar
        </CharString>
        <CharString name="comma">
          -408 -279 596 hstem
          133 330 vstem
          449 233 rmoveto
          14 36 0 9 5 vvcurveto
          22 -14 12 -20 -38 -79 -41 -40 -33 vhcurveto
          -17 -21 -8 -27 -6 -20 -95 -338 rcurveline
          -19 -68 -1 -1 -10 vvcurveto
          -21 17 -9 18 55 55 76 76 33 vhcurveto
          endchar
        </CharString>
        <CharString name="copyright">
          702 -102 120 250 126 681 124 220 117 hstem
          184 131 335 161 866 129 vstem
          184 713 rmoveto
          -473 324 -342 485 453 360 364 451 452 -331 371 -480 -469 -342 -371 -452 vhcurveto
          131 hmoveto
          379 277 327 401 406 278 -327 -379 -379 -270 -316 -410 -417 -265 316 379 vhcurveto
          496 17 rmoveto
          116 26 77 25 vvcurveto
          19 -8 5 -12 -38 -65 -42 -41 -26 vhcurveto
          -23 -35 -15 -76 -90 vvcurveto
          -263 107 -157 245 182 121 134 47 15 -8 5 -12 vhcurveto
          -30 -59 -75 -145 hhcurveto
          -174 -66 132 204 hvcurveto
          442 419 rmoveto
          33 -45 -87 17 -67 hhcurveto
          -167 -94 -57 -105 -82 hvcurveto
          -7 -9 -19 -31 -16 vvcurveto
          -11 5 -3 7 8 18 12 12 18 vhcurveto
          61 88 77 23 86 hhcurveto
          32 42 -6 -27 57 hvcurveto
          -10 22 15 -5 21 hhcurveto
          40 58 54 28 18 -11 10 -15 12 hvcurveto
          endchar
        </CharString>
        <CharString name="currency">
          41 179 110 487 110 hstem
          194 154 354 155 vstem
          348 539 rmoveto
          78 25 56 14 vvcurveto
          14 -10 4 -8 -30 -67 -26 -29 -26 vhcurveto
          -19 -22 -19 -61 -58 vvcurveto
          -52 5 -51 13 -45 vhcurveto
          1 -4 3 -8 -7 vvcurveto
          -10 -5 -10 -12 -11 vhcurveto
          -93 -86 rlineto
          -15 -17 -11 -20 -28 vvcurveto
          -39 15 -32 17 7 9 4 8 7 vhcurveto
          116 122 rlineto
          11 10 8 4 7 hhcurveto
          10 9 -8 -4 5 hvcurveto
          -30 41 56 -17 74 hhcurveto
          103 48 77 29 8 -4 7 -12 hvcurveto
          -15 -24 -11 -54 hhcurveto
          -142 -23 110 140 hvcurveto
          173 347 rmoveto
          -57 -79 -15 -53 -73 hvcurveto
          -10 -14 -15 -6 -7 hhcurveto
          -5 -8 1 10 -9 hvcurveto
          -119 127 rlineto
          9 -8 -8 4 -7 hhcurveto
          -22 -10 -49 -23 -24 9 -26 17 -15 hvcurveto
          101 -94 rlineto
          -10 11 10 -6 10 hhcurveto
          9 9 5 8 13 hvcurveto
          47 73 85 10 50 hhcurveto
          165 60 -115 -178 -50 -10 -104 -26 -54 hvcurveto
          -18 -39 -15 -17 -9 vvcurveto
          -7 5 -5 8 23 35 11 27 35 vhcurveto
          3 4 8 6 9 hhcurveto
          7 9 -4 -9 9 hvcurveto
          125 -131 rlineto
          -8 7 9 -4 7 hhcurveto
          17 15 32 39 28 -11 20 -15 17 hvcurveto
          -100 92 rlineto
          -11 10 -3 9 9 vvcurveto
          9 3 7 2 7 vhcurveto
          20 58 7 63 50 vvcurveto
          50 -7 45 -14 41 vhcurveto
          -3 8 -3 8 8 vvcurveto
          10 5 11 13 12 vhcurveto
          91 84 rlineto
          15 17 11 20 28 vvcurveto
          39 -15 32 -17 -7 -9 -4 -8 -7 vhcurveto
          -112 -118 rlineto
          -13 -12 -11 -4 -9 hhcurveto
          -14 -12 9 6 -7 hvcurveto
          42 -55 -71 24 -86 hhcurveto
          endchar
        </CharString>
        <CharString name="d">
          63 -31 144 -102 -21 920 145 hstemhm
          92 188 484 180 hintmask 10111000
          hintmask 01111000
          764 33 rmoveto
          -29 12 -14 23 39 53 26 41 35 vhcurveto
          16 21 2 20 21 vvcurveto
          1374 vlineto
          29 -12 14 -23 -39 -53 -27 -41 -35 vhcurveto
          -16 -20 -2 -21 -20 vvcurveto
          hintmask 10111000
          -85 -1251 rmoveto
          -21 -39 -42 -22 -63 hhcurveto
          -187 -68 125 247 hvcurveto
          154 35 95 25 vvcurveto
          22 -10 8 -14 -43 -74 -47 -53 -35 vhcurveto
          -26 -41 -21 -97 -84 vvcurveto
          -428 180 -70 187 86 74 25 59 68 vhcurveto
          14 13 13 14 47 vvcurveto
          31 -8 5 -9 -6 -4 -3 -4 -8 vhcurveto
          -23 708 rmoveto
          -5 9 10 -5 9 hhcurveto
          17 13 21 62 69 -13 7 -29 13 hvcurveto
          21 -48 -52 8 -44 hhcurveto
          -127 -129 -43 -144 -102 hvcurveto
          -8 -10 -21 -31 -20 vvcurveto
          -14 6 -5 11 10 18 13 14 21 vhcurveto
          62 94 80 33 102 hhcurveto
          57 57 -11 -35 59 hvcurveto
          endchar
        </CharString>
        <CharString name="degree">
          -167 828 123 396 120 hstem
          100 145 347 145 vstem
          245 1148 rmoveto
          103 70 96 102 105 70 -96 -103 -103 -71 -94 -102 -105 -69 94 103 vhcurveto
          -145 hmoveto
          -178 123 -142 192 173 149 142 178 178 -123 141 -193 -174 -147 -141 -178 vhcurveto
          endchar
        </CharString>
        <CharString name="dieresis">
          -339 1259 317 hstem
          80 165 175 165 vstem
          245 1533 rmoveto
          29 -12 14 -23 -29 -48 -27 -41 -35 vhcurveto
          -16 -20 -2 -21 -20 vvcurveto
          -145 vlineto
          -29 12 -14 23 29 49 25 42 34 vhcurveto
          17 21 1 20 21 vvcurveto
          340 145 rmoveto
          29 -12 14 -23 -29 -48 -27 -41 -35 vhcurveto
          -16 -20 -2 -21 -20 vvcurveto
          -145 vlineto
          -29 12 -14 23 29 49 25 42 34 vhcurveto
          17 21 1 20 21 vvcurveto
          endchar
        </CharString>
        <CharString name="dieresis.case">
          -298 1686 331 hstem
          80 184 178 184 vstem
          264 1974 rmoveto
          29 -12 14 -23 -34 -60 -36 -41 -34 vhcurveto
          -17 -20 -4 -27 -20 vvcurveto
          -144 vlineto
          -29 12 -14 23 37 57 30 41 34 vhcurveto
          19 22 2 25 26 vvcurveto
          362 144 rmoveto
          29 -12 14 -23 -34 -60 -36 -41 -34 vhcurveto
          -17 -20 -4 -27 -20 vvcurveto
          -144 vlineto
          -29 12 -14 23 37 57 30 41 34 vhcurveto
          19 22 2 25 26 vvcurveto
          endchar
        </CharString>
        <CharString name="divide">
          580 143 hstem
          611 201 vstem
          1128 580 rmoveto
          27 27 2 18 20 hvcurveto
          41 37 27 41 15 vvcurveto
          22 -15 8 -28 vhcurveto
          -922 hlineto
          -26 -27 -2 -18 -21 hvcurveto
          -41 -37 -26 -41 -14 vvcurveto
          -23 14 -8 29 vhcurveto
          605 -248 rmoveto
          29 -12 14 -23 -39 -72 -41 -40 -34 vhcurveto
          -17 -21 -4 -27 -20 vvcurveto
          -135 vlineto
          -29 12 -14 23 37 74 35 41 34 vhcurveto
          19 22 2 25 26 vvcurveto
          1005 vmoveto
          29 -12 14 -23 -39 -72 -41 -40 -34 vhcurveto
          -17 -21 -4 -27 -20 vvcurveto
          -135 vlineto
          -29 12 -14 23 37 74 35 41 34 vhcurveto
          19 22 2 25 26 vvcurveto
          endchar
        </CharString>
        <CharString name="dollar">
          18 -31 164 hstemhm
          80 196 111 180 -149 180 139 191 hintmask 11101000
          hintmask 11011000
          598 -116 rmoveto
          82 60 27 34 15 vhcurveto
          90 39 146 108 205 vvcurveto
          158 -25 209 -389 76 vhcurveto
          -182 35 -56 28 197 vvcurveto
          35 -16 4 -20 -50 -84 -67 -58 -18 vhcurveto
          -4 -12 -4 -22 -22 vvcurveto
          -98 26 -161 343 -52 vhcurveto
          256 -39 32 -134 -144 vvcurveto
          -83 -33 -67 -67 -93 vhcurveto
          -10 -14 -42 -54 -73 -36 rrcurveto
          -63 -31 -31 -9 -70 vvcurveto
          -106 vlineto
          -28 12 -15 23 52 93 46 78 vhcurveto
          hintmask 11101000
          1 1619 rmoveto
          -22 3 -10 7 33 vvcurveto
          134 vlineto
          29 -12 14 -23 -53 -92 -47 -78 vhcurveto
          -214 vlineto
          -33 12 -10 23 76 51 -13 -18 49 vhcurveto
          -14 37 29 -15 30 hhcurveto
          57 78 60 47 66 -129 35 -101 14 hvcurveto
          -257 -1461 rmoveto
          185 82 131 35 19 -7 12 -18 hvcurveto
          -27 -26 -33 -76 hhcurveto
          -41 -33 4 70 -84 hvcurveto
          21 -25 -24 14 -27 hhcurveto
          -49 -49 -41 -19 -19 hvcurveto
          -16 -16 -6 -16 -17 vvcurveto
          -20 14 -24 21 -21 vhcurveto
          -88 88 83 -11 54 hhcurveto
          -83 1377 rmoveto
          -58 -39 -35 -27 -47 -59 rrcurveto
          -19 -23 -37 -55 -25 vvcurveto
          -20 11 -4 12 14 29 24 21 25 vhcurveto
          55 45 38 26 57 25 rrcurveto
          23 10 0 17 53 vvcurveto
          43 -7 10 -12 -8 -14 -4 -18 -27 vhcurveto
          endchar
        </CharString>
        <CharString name="dotlessi">
          -578 11 -21 1065 -20 hstem
          123 180 vstem
          303 1012 rmoveto
          28 -12 15 -23 -39 -53 -27 -41 -35 vhcurveto
          -16 -20 -2 -21 -20 vvcurveto
          -893 vlineto
          -29 12 -14 23 39 53 26 41 35 vhcurveto
          16 21 2 20 21 vvcurveto
          endchar
        </CharString>
        <CharString name="e">
          -72 -31 144 342 139 317 144 hstem
          92 195 375 192 vstem
          287 637 rmoveto
          31 20 65 25 vvcurveto
          22 -10 8 -14 -23 -22 -11 -18 -31 vhcurveto
          -52 -31 -63 -55 -166 vvcurveto
          -32 18 -10 27 -2 vhcurveto
          -5 57 54 -3 52 hhcurveto
          337 217 114 211 201 -143 74 -185 -100 -147 -39 -148 -115 hvcurveto
          -8 -10 -21 -31 -20 vvcurveto
          -14 6 -5 11 9 20 14 15 20 vhcurveto
          89 124 104 5 52 hhcurveto
          134 47 -61 -76 -89 -65 -91 -241 -36 -33 2 41 hvcurveto
          -187 -279 rmoveto
          -221 131 -168 248 250 117 160 49 17 -8 8 -15 vhcurveto
          -37 -65 -90 -168 hhcurveto
          -110 -124 43 200 -32 hvcurveto
          47 -8 -12 7 -33 hhcurveto
          -86 hlineto
          -35 -13 -23 -29 hvcurveto
          endchar
        </CharString>
        <CharString name="eacute">
          -72 -31 144 342 139 317 144 hstem
          92 195 375 192 vstem
          287 637 rmoveto
          31 20 65 25 vvcurveto
          22 -10 8 -14 -23 -22 -11 -18 -31 vhcurveto
          -52 -31 -63 -55 -166 vvcurveto
          -32 18 -10 27 -2 vhcurveto
          -5 57 54 -3 52 hhcurveto
          337 217 114 211 201 -143 74 -185 -100 -147 -39 -148 -115 hvcurveto
          -8 -10 -21 -31 -20 vvcurveto
          -14 6 -5 11 9 20 14 15 20 vhcurveto
          89 124 104 5 52 hhcurveto
          134 47 -61 -76 -89 -65 -91 -241 -36 -33 2 41 hvcurveto
          -187 -279 rmoveto
          -221 131 -168 248 250 117 160 49 17 -8 8 -15 vhcurveto
          -37 -65 -90 -168 hhcurveto
          -110 -124 43 200 -32 hvcurveto
          47 -8 -12 7 -33 hhcurveto
          -86 hlineto
          -35 -13 -23 -29 hvcurveto
          243 1038 rmoveto
          -31 -41 -9 -28 -35 vvcurveto
          -35 10 -41 26 14 11 9 12 12 vhcurveto
          217 229 rlineto
          26 27 7 21 29 vvcurveto
          69 -30 61 -31 -11 -9 -4 -22 -16 vhcurveto
          endchar
        </CharString>
        <CharString name="ecircumflex">
          -72 -31 144 342 139 317 144 hstem
          92 195 375 192 vstem
          287 637 rmoveto
          31 20 65 25 vvcurveto
          22 -10 8 -14 -23 -22 -11 -18 -31 vhcurveto
          -52 -31 -63 -55 -166 vvcurveto
          -32 18 -10 27 -2 vhcurveto
          -5 57 54 -3 52 hhcurveto
          337 217 114 211 201 -143 74 -185 -100 -147 -39 -148 -115 hvcurveto
          -8 -10 -21 -31 -20 vvcurveto
          -14 6 -5 11 9 20 14 15 20 vhcurveto
          89 124 104 5 52 hhcurveto
          134 47 -61 -76 -89 -65 -91 -241 -36 -33 2 41 hvcurveto
          -187 -279 rmoveto
          -221 131 -168 248 250 117 160 49 17 -8 8 -15 vhcurveto
          -37 -65 -90 -168 hhcurveto
          -110 -124 43 200 -32 hvcurveto
          47 -8 -12 7 -33 hhcurveto
          -86 hlineto
          -35 -13 -23 -29 hvcurveto
          569 926 rmoveto
          -41 45 15 -4 12 hhcurveto
          27 7 42 22 23 -2 25 -25 26 hvcurveto
          -218 241 rlineto
          18 -18 -14 8 -13 hhcurveto
          -14 -13 -5 -21 -22 hvcurveto
          -240 -251 rlineto
          -18 -18 -4 -28 -23 vvcurveto
          -21 3 -33 25 13 12 4 39 45 vhcurveto
          163 147 rlineto
          15 17 11 8 12 hhcurveto
          12 10 -10 -13 14 hvcurveto
          endchar
        </CharString>
        <CharString name="edieresis">
          -72 -31 144 342 139 317 144 hstemhm
          92 195 -75 165 175 165 -55 192 hintmask 11101100
          hintmask 11110010
          287 637 rmoveto
          31 20 65 25 vvcurveto
          22 -10 8 -14 -23 -22 -11 -18 -31 vhcurveto
          -52 -31 -63 -55 -166 vvcurveto
          -32 18 -10 27 -2 vhcurveto
          -5 57 54 -3 52 hhcurveto
          337 217 114 211 201 -143 74 -185 -100 -147 -39 -148 -115 hvcurveto
          -8 -10 -21 -31 -20 vvcurveto
          -14 6 -5 11 9 20 14 15 20 vhcurveto
          89 124 104 5 52 hhcurveto
          134 47 -61 -76 -89 -65 -91 -241 -36 -33 2 41 hvcurveto
          -187 -279 rmoveto
          -221 131 -168 248 250 117 160 49 17 -8 8 -15 vhcurveto
          -37 -65 -90 -168 hhcurveto
          -110 -124 43 200 -32 hvcurveto
          47 -8 -12 7 -33 hhcurveto
          -86 hlineto
          -35 -13 -23 -29 hvcurveto
          hintmask 11101100
          277 1175 rmoveto
          29 -12 14 -23 -29 -48 -27 -41 -35 vhcurveto
          -16 -20 -2 -21 -20 vvcurveto
          -145 vlineto
          -29 12 -14 23 29 49 25 42 34 vhcurveto
          17 21 1 20 21 vvcurveto
          340 145 rmoveto
          29 -12 14 -23 -29 -48 -27 -41 -35 vhcurveto
          -16 -20 -2 -21 -20 vvcurveto
          -145 vlineto
          -29 12 -14 23 29 49 25 42 34 vhcurveto
          17 21 1 20 21 vvcurveto
          endchar
        </CharString>
        <CharString name="egrave">
          -72 -31 144 342 139 317 144 hstem
          92 195 375 192 vstem
          287 637 rmoveto
          31 20 65 25 vvcurveto
          22 -10 8 -14 -23 -22 -11 -18 -31 vhcurveto
          -52 -31 -63 -55 -166 vvcurveto
          -32 18 -10 27 -2 vhcurveto
          -5 57 54 -3 52 hhcurveto
          337 217 114 211 201 -143 74 -185 -100 -147 -39 -148 -115 hvcurveto
          -8 -10 -21 -31 -20 vvcurveto
          -14 6 -5 11 9 20 14 15 20 vhcurveto
          89 124 104 5 52 hhcurveto
          134 47 -61 -76 -89 -65 -91 -241 -36 -33 2 41 hvcurveto
          -187 -279 rmoveto
          -221 131 -168 248 250 117 160 49 17 -8 8 -15 vhcurveto
          -37 -65 -90 -168 hhcurveto
          -110 -124 43 200 -32 hvcurveto
          47 -8 -12 7 -33 hhcurveto
          -86 hlineto
          -35 -13 -23 -29 hvcurveto
          301 1289 rmoveto
          22 -16 -9 4 -11 hhcurveto
          -31 -32 -64 -69 -29 7 -21 26 -27 hvcurveto
          219 -229 rlineto
          -12 12 11 -9 14 hhcurveto
          30 6 46 35 35 -9 25 -31 42 hvcurveto
          endchar
        </CharString>
        <CharString name="eight">
          83 -31 164 1137 164 hstemhm
          102 201 424 197 -139 195 hintmask 11101000
          693 771 rmoveto
          hintmask 11110000
          121 98 110 128 133 vvcurveto
          224 -178 80 -200 -144 -127 -39 -131 -97 vhcurveto
          -33 -44 -31 -64 -40 vvcurveto
          -16 7 -10 12 25 9 32 37 31 vhcurveto
          90 77 105 21 89 hhcurveto
          142 116 -52 -124 -111 -37 -61 -221 -166 hvcurveto
          -23 -18 -9 -16 -16 vvcurveto
          -17 9 -17 17 -15 vhcurveto
          hintmask 11101000
          169 -156 153 -111 -197 -79 -62 -76 -16 vvcurveto
          -11 8 -8 13 79 157 99 181 166 -176 130 -117 108 vhcurveto
          -16 15 -9 9 -1 16 rrcurveto
          16 10 10 22 18 vhcurveto
          -270 -258 rmoveto
          16 20 10 17 16 vvcurveto
          28 -33 44 -38 -17 -15 -8 -15 -20 vhcurveto
          -110 -83 -114 -174 -135 vvcurveto
          -76 35 -178 297 182 93 120 62 12 -6 12 -17 vhcurveto
          -28 -62 -42 -98 hhcurveto
          -146 -49 74 65 103 66 72 54 66 hvcurveto
          -115 296 rmoveto
          -29 31 18 -2 17 hhcurveto
          32 86 60 43 41 -48 12 -82 76 hvcurveto
          62 -67 1 31 -35 hhcurveto
          -37 -47 -62 -41 -36 12 -40 119 -115 hvcurveto
          endchar
        </CharString>
        <CharString name="emdash">
          719 592 139 hstem
          164 1396 vstem
          1418 592 rmoveto
          27 31 2 18 20 hvcurveto
          41 37 23 37 14 vvcurveto
          22 -15 9 -28 vhcurveto
          -1212 hlineto
          -26 -31 -2 -19 -21 hvcurveto
          -41 -37 -22 -36 -15 vvcurveto
          -22 14 -8 29 vhcurveto
          endchar
        </CharString>
        <CharString name="endash">
          319 592 139 hstem
          164 996 vstem
          1018 592 rmoveto
          27 31 2 18 20 hvcurveto
          41 37 23 37 14 vvcurveto
          22 -15 9 -28 vhcurveto
          -812 hlineto
          -26 -31 -2 -19 -21 hvcurveto
          -41 -37 -22 -36 -15 vvcurveto
          -22 14 -8 29 vhcurveto
          endchar
        </CharString>
        <CharString name="equal">
          340 131 279 131 hstem
          164 1106 vstem
          1128 340 rmoveto
          27 31 2 18 20 hvcurveto
          41 37 23 29 14 vvcurveto
          23 -15 8 -28 vhcurveto
          -922 hlineto
          -26 -31 -2 -18 -21 hvcurveto
          -41 -37 -22 -29 -14 vvcurveto
          -23 14 -8 29 vhcurveto
          921 410 rmoveto
          27 31 2 18 20 hvcurveto
          41 37 23 29 14 vvcurveto
          22 -15 9 -28 vhcurveto
          -922 hlineto
          -26 -31 -2 -19 -21 hvcurveto
          -41 -37 -22 -28 -15 vvcurveto
          -22 14 -8 29 vhcurveto
          endchar
        </CharString>
        <CharString name="eth">
          104 -31 144 -92 -21 861 144 hstemhm
          122 188 466 191 hintmask 10111000
          776 404 rmoveto
          -50 -4 -151 -32 -90 vhcurveto
          hintmask 01111000
          -23 -64 -24 -14 -16 vvcurveto
          -11 8 -8 13 43 85 67 106 52 vhcurveto
          48 97 25 153 101 vvcurveto
          442 -135 334 -273 152 vhcurveto
          -10 6 -19 9 20 vvcurveto
          7 2 9 6 10 vhcurveto
          57 98 rlineto
          5 9 3 7 7 vvcurveto
          9 -6 11 -27 -29 -52 -5 -48 -28 vhcurveto
          -32 -56 rlineto
          -18 -11 -12 -8 -16 hhcurveto
          -17 -18 8 6 -40 hvcurveto
          3 -22 -21 0 -18 hhcurveto
          -49 -31 -9 -23 -21 31 -12 52 -15 hvcurveto
          20 -6 19 -7 18 -7 rrcurveto
          10 -3 17 -7 -19 vvcurveto
          -8 -4 -11 -8 -14 vhcurveto
          -53 -92 rlineto
          -5 -9 -3 -7 -7 vvcurveto
          -11 6 -10 26 29 53 5 48 28 vhcurveto
          23 40 rlineto
          16 9 9 6 11 hhcurveto
          9 10 -4 -10 11 hvcurveto
          hintmask 10111000
          235 -203 49 -329 -403 vvcurveto
          -466 118 rmoveto
          95 21 64 27 vvcurveto
          22 -10 8 -15 -43 -75 -47 -49 -29 vhcurveto
          -25 -43 -12 -86 -47 vvcurveto
          -249 58 -248 269 139 89 99 49 10 -4 12 -17 vhcurveto
          -24 -24 -26 -80 hhcurveto
          -195 -23 189 220 hvcurveto
          218 483 rmoveto
          -110 -118 -40 -147 -108 hvcurveto
          -8 -10 -23 -37 -16 vvcurveto
          -14 6 -3 8 11 20 17 14 21 vhcurveto
          74 108 57 18 74 hhcurveto
          38 43 -4 -20 50 hvcurveto
          -10 25 13 -7 18 hhcurveto
          20 19 14 29 107 -72 35 -92 hvcurveto
          endchar
        </CharString>
        <CharString name="exclam">
          -533 10 -21 1434 -20 hstem
          143 185 vstem
          328 1380 rmoveto
          29 -13 14 -22 -39 -55 -41 -41 -35 vhcurveto
          -17 -20 -4 -27 -20 vvcurveto
          -750 vlineto
          -28 13 -15 22 37 57 35 41 35 vhcurveto
          19 23 2 24 27 vvcurveto
          -333 vmoveto
          29 -12 14 -22 -32 -63 -41 -41 -35 vhcurveto
          -17 -20 -4 -27 -21 vvcurveto
          -159 vlineto
          -29 13 -14 22 37 57 35 40 35 vhcurveto
          19 23 2 25 26 vvcurveto
          endchar
        </CharString>
        <CharString name="exclamdown">
          -533 1054 -20 hstem
          143 185 vstem
          143 -337 rmoveto
          -29 13 -14 22 39 55 41 41 35 vhcurveto
          17 20 4 27 20 vvcurveto
          750 vlineto
          28 -13 15 -22 -37 -57 -35 -41 -35 vhcurveto
          -19 -23 -2 -24 -27 vvcurveto
          333 vmoveto
          -29 12 -14 22 32 63 41 41 35 vhcurveto
          17 20 4 27 21 vvcurveto
          159 vlineto
          29 -13 14 -22 -37 -57 -35 -40 -35 vhcurveto
          -19 -23 -2 -25 -26 vvcurveto
          endchar
        </CharString>
        <CharString name="f">
          -377 11 -21 890 144 369 143 hstem
          -31 135 52 180 vstem
          729 1479 rmoveto
          39 -51 -82 18 -78 hhcurveto
          -89 -119 -31 -112 -91 hvcurveto
          -17 -21 -26 -38 -19 vvcurveto
          -12 8 -5 9 10 22 15 14 21 vhcurveto
          55 82 69 11 37 hhcurveto
          65 32 -16 -23 49 hvcurveto
          -13 27 15 -8 21 hhcurveto
          47 70 66 33 20 -12 12 -19 15 hvcurveto
          -393 -703 rmoveto
          54 -46 0 -44 -44 -46 0 -54 vhcurveto
          -743 vlineto
          -29 12 -14 22 51 95 48 78 vhcurveto
          80 764 rmoveto
          51 37 2 10 26 hvcurveto
          43 16 58 61 32 vvcurveto
          19 -17 4 -18 vhcurveto
          -203 hlineto
          -45 -7 26 34 hvcurveto
          107 9 43 31 vvcurveto
          20 -10 14 -23 -26 -56 -30 -41 -34 vhcurveto
          -30 -36 -15 -71 -152 vvcurveto
          -36 vlineto
          -45 24 -8 29 vhcurveto
          -105 111 rmoveto
          25 -8 8 -14 -35 -78 -86 -36 -18 17 -4 18 vhcurveto
          47 hlineto
          45 8 24 29 hvcurveto
          endchar
        </CharString>
        <CharString name="five">
          24 -31 158 585 145 362 184 hstem
          152 163 410 201 vstem
          315 1098 rmoveto
          51 -32 8 -50 -40 -41 -8 -51 vhcurveto
          -347 vlineto
          -49 28 -7 23 vhcurveto
          37 65 17 62 hhcurveto
          254 104 -118 -213 -76 -23 -104 -47 -90 hvcurveto
          -22 -43 -21 -17 -16 vvcurveto
          -10 9 -9 14 104 187 164 236 321 -199 122 -266 vhcurveto
          -23 -39 -2 -32 hhcurveto
          -23 -29 4 49 hvcurveto
          33 -941 rmoveto
          197 47 125 35 16 -6 13 -19 hvcurveto
          -24 -23 -31 -63 hhcurveto
          -37 -39 6 55 -68 hvcurveto
          21 -24 -23 14 -26 hhcurveto
          -47 -50 -47 -16 -16 hvcurveto
          -16 -17 -9 -16 -14 vvcurveto
          -23 9 -16 24 -23 vhcurveto
          -71 82 74 -11 57 hhcurveto
          361 1250 rmoveto
          20 27 4 16 20 hvcurveto
          41 35 41 55 39 vvcurveto
          23 -14 12 -29 vhcurveto
          -518 hlineto
          -27 -26 -2 -19 -21 hvcurveto
          -35 -32 -36 -78 -25 vvcurveto
          -22 14 -6 29 vhcurveto
          endchar
        </CharString>
        <CharString name="foundryicon">
          2564 -563 74 493 109 -97 119 -98 41 -41 59 750 63 250 70 -10 176 hstemhm
          121 268 199 145 -104 219 -129 227 119 211 240 10 386 210 90 86 47 185 84 206 98 236 104 133 hintmask 110001011001111111110000
          1253 813 rmoveto
          -53 57 -115 48 -71 -9 rrcurveto
          17 -107 34 -185 -188 vvcurveto
          -81 -6 -82 -17 -76 vhcurveto
          -4 -14 -8 -33 -31 -8 rrcurveto
          -41 130 -12 141 147 vvcurveto
          66 2 68 4 69 vhcurveto
          -53 49 -100 18 -41 8 rrcurveto
          hintmask 000010100000011100000000
          -25 -47 -14 -69 -103 vvcurveto
          -108 8 -111 29 -94 vhcurveto
          -31 -68 -66 -118 -106 -35 rrcurveto
          -119 85 -45 222 226 vvcurveto
          267 62 273 73 68 vhcurveto
          29 -36 35 -127 -104 vvcurveto
          -20 -1 -19 -3 -18 vhcurveto
          -4 -12 0 -21 24 27 rrcurveto
          76 65 53 82 99 vvcurveto
          256 -186 45 -123 26 vhcurveto
          -225 -196 -80 -338 2 -334 rrcurveto
          -291 6 123 -299 311 hhcurveto
          hintmask 000100000000000001000000
          137 68 98 82 29 hvcurveto
          -88 43 67 -59 99 hhcurveto
          hintmask 001000000000000000010000
          26 25 20 17 10 hvcurveto
          -33 -271 -4 -182 -170 -110 rrcurveto
          -7 28 -3 32 34 vvcurveto
          57 8 60 6 49 vhcurveto
          55 -55 -82 20 -66 hhcurveto
          -16 -55 -14 -61 -66 vvcurveto
          hintmask 000011010000100111110000
          -147 37 -80 143 329 138 470 525 126 -8 129 -15 126 vhcurveto
          33 37 rmoveto
          88 -215 10 -365 15 -243 rrcurveto
          -2 10 10 -1 9 hhcurveto
          75 46 59 75 22 hvcurveto
          20 59 0 113 69 vvcurveto
          19 76 57 55 21 56 rrcurveto
          -88 13 43 -45 74 hhcurveto
          20 22 3 7 24 hvcurveto
          -7 39 -3 44 46 vvcurveto
          70 7 73 11 60 vhcurveto
          -28 51 -80 24 -86 9 rrcurveto
          -15 -33 -16 -62 -36 vvcurveto
          -18 -56 -31 -61 -47 -88 -8 108 -27 78 -31 55 -23 26 -30 17 -35 7 -33 8 -43 5 -55 3 rrcurveto
          1266 -737 rmoveto
          -15 48 -7 59 61 vvcurveto
          158 43 176 44 55 vhcurveto
          -2 -24 -1 -35 -42 vvcurveto
          -90 7 -120 25 -103 vhcurveto
          -4 -57 -57 -58 -33 -28 rrcurveto
          hintmask 001000000001100000000000
          602 422 rmoveto
          10 213 41 245 41 166 rrcurveto
          8 -41 4 -51 -56 vvcurveto
          -167 -35 -209 -69 -100 vhcurveto
          -977 155 rmoveto
          14 -28 21 -60 -59 vvcurveto
          -101 -29 -118 -61 -9 vhcurveto
          hintmask 000100011001000000000000
          129 18 134 37 112 vhcurveto
          293 662 rmoveto
          0 2 0 -2 2 vhcurveto
          hintmask 010000001100000000000000
          -35 hlineto
          8 39 rlineto
          0 6 2 -8 vhcurveto
          -35 -13 rlineto
          11 -16 -18 2 -21 hhcurveto
          -51 -51 -35 -60 -17 hvcurveto
          -30 -30 -195 -31 -197 -37 rrcurveto
          -38 -242 21 6 -4 hvcurveto
          hintmask 100010000010100000000000
          -10 -5 -12 -9 11 hvcurveto
          53 -49 133 6 39 -35 82 -98 98 -96 111 -23 8 -28 12 -29 13 -25 rrcurveto
          1 -12 -12 1 -12 hhcurveto
          -12 -12 -1 -1 -12 hvcurveto
          -51 -83 -31 -177 -4 -149 rrcurveto
          -1 -14 0 -13 -14 vvcurveto
          -183 77 -161 198 vhcurveto
          hintmask 000011010000100111110000
          90 8 60 64 35 55 rrcurveto
          hintmask 010000000000000011000000
          -74 20 57 -53 107 hhcurveto
          53 6 70 43 14 57 rrcurveto
          -57 25 61 -70 78 hhcurveto
          68 49 62 63 16 hvcurveto
          -80 47 74 -45 100 hhcurveto
          202 51 226 160 16 0 14 -1 14 hvcurveto
          hintmask 000010000000100000000000
          -8 -6 3 -7 -15 hvcurveto
          -43 -174 -65 -110 -82 -62 rrcurveto
          -59 86 -27 115 141 vvcurveto
          152 70 81 283 235 vvcurveto
          248 -65 106 -240 39 vhcurveto
          -110 -199 -58 -303 -292 vvcurveto
          -134 12 -132 25 -119 vhcurveto
          6 -29 -18 -33 -45 -92 -39 10 rlinecurve
          -28 97 -11 127 129 vvcurveto
          141 13 144 16 112 vhcurveto
          -31 33 -104 43 -45 -13 -17 -12 -22 -113 -7 -20 rrcurveto
          16 -43 -55 11 -47 hhcurveto
          hintmask 010000000000000011000000
          -94 -101 -33 -137 -6 -147 rrcurveto
          hintmask 000000100000001100110000
          -109 vlineto
          -27 -66 -45 -96 -80 -33 -39 25 -14 57 -14 58 rrcurveto
          112 34 60 156 139 vvcurveto
          121 -45 76 -74 37 vhcurveto
          -2 2 0 0 2 vvcurveto
          -16 29 -19 36 -18 37 192 31 64 250 61 125 rrcurveto
          -293 -500 rmoveto
          -18 6 -19 2 -20 4 -25 80 rcurveline
          31 hlineto
          14 -35 19 -32 18 -25 rrcurveto
          endchar
        </CharString>
        <CharString name="four">
          -28 11 -21 327 192 914 -20 hstem
          649 185 vstem
          915 317 rmoveto
          68 93 114 48 25 -22 5 -25 hvcurveto
          -137 hlineto
          -32 -26 12 46 hvcurveto
          813 vlineto
          29 -13 14 -22 -39 -55 -41 -41 -35 vhcurveto
          -17 -20 -4 -27 -20 vvcurveto
          -906 vlineto
          -41 21 -10 26 vhcurveto
          -531 192 rmoveto
          -47 -40 -19 -69 -49 hvcurveto
          -15 -21 -14 -23 -22 vvcurveto
          -29 27 -9 37 vhcurveto
          469 hlineto
          46 10 45 60 62 -10 25 -46 hvcurveto
          301 -306 rmoveto
          47 -29 7 -64 -56 -36 -7 -47 vhcurveto
          -170 vlineto
          -29 13 -14 22 37 57 35 41 35 vhcurveto
          19 22 2 25 26 vvcurveto
          -278 805 rmoveto
          26 39 7 57 60 vvcurveto
          70 -6 36 -19 -7 -9 -3 -26 -18 vhcurveto
          -333 -495 rlineto
          -25 -37 -16 -24 -20 vvcurveto
          -22 17 -10 43 84 33 41 61 41 vhcurveto
          endchar
        </CharString>
        <CharString name="foursuperior">
          -232 571 149 35 132 536 -20 hstem
          458 126 vstem
          177 970 rmoveto
          -8 -12 -4 -9 -7 vvcurveto
          -14 15 -6 26 42 30 2 29 19 vhcurveto
          106 161 rlineto
          15 23 5 30 57 vvcurveto
          64 -4 7 -11 -4 -6 -2 -15 -10 vhcurveto
          244 -523 rmoveto
          31 17 17 53 31 hvcurveto
          10 17 6 18 10 vvcurveto
          15 -13 2 -15 vhcurveto
          -81 hlineto
          -18 -16 8 27 hvcurveto
          476 vlineto
          17 -7 8 -13 -23 -50 -24 -24 -21 vhcurveto
          -10 -12 -2 -16 -12 vvcurveto
          -550 vlineto
          -24 12 -6 16 vhcurveto
          -315 132 rmoveto
          -35 -21 -12 -22 -15 hvcurveto
          -26 -38 -9 -17 -13 vvcurveto
          -17 11 -13 29 vhcurveto
          285 hlineto
          27 6 33 35 37 -6 27 -27 hvcurveto
          194 -199 rmoveto
          28 -25 4 -38 -33 -30 -4 -28 vhcurveto
          -92 vlineto
          -17 8 -8 13 21 51 21 24 21 vhcurveto
          11 13 1 15 15 vvcurveto
          endchar
        </CharString>
        <CharString name="fraction">
          418 -10 -21 1465 -20 hstem
          100 1222 vstem
          129 43 rmoveto
          -16 -20 -13 -19 -12 vvcurveto
          -17 15 -6 10 72 63 27 47 37 vhcurveto
          1010 1337 rlineto
          12 17 3 10 6 vvcurveto
          12 -11 9 -14 -68 -69 -27 -47 -35 vhcurveto
          endchar
        </CharString>
        <CharString name="g">
          73 -604 144 390 172 201 129 415 138 -74 144 hstemhm
          82 149 -127 178 -167 123 516 153 -35 152 hintmask 1110101001000000
          152 752 rmoveto
          -41 -37 -7 -56 -45 vvcurveto
          -241 170 -70 152 164 68 96 39 13 -7 8 -10 vhcurveto
          -27 -12 -27 -82 hhcurveto
          -86 -152 12 229 hvcurveto
          52 7 31 23 vvcurveto
          22 -12 7 -14 -31 -59 -38 -18 -21 vhcurveto
          hintmask 1110101010000000
          640 45 rmoveto
          -83 -4 -12 -10 -4 2 -4 4 -6 hvcurveto
          32 -47 11 -94 -32 -150 -70 -47 -25 vvcurveto
          -13 8 -5 10 30 79 66 49 33 vhcurveto
          47 72 16 61 76 vvcurveto
          19 -2 53 -23 29 vhcurveto
          12 -10 -14 12 -66 hhcurveto
          hintmask 1111000101000000
          -26 -1327 rmoveto
          -6 -5 -10 -8 -10 vvcurveto
          -10 8 -6 12 vhcurveto
          100 6 154 125 184 vvcurveto
          322 -260 34 -285 -161 -80 7 71 vhcurveto
          43 23 26 20 vvcurveto
          11 -6 7 -12 -33 -95 -64 -110 -179 180 -2 219 -2 vhcurveto
          225 -2 133 -58 -197 vvcurveto
          -74 -34 -80 -72 -49 vhcurveto
          174 1393 rmoveto
          41 16 55 53 31 vvcurveto
          18 -16 4 -16 vhcurveto
          -190 hlineto
          -32 -21 3 22 -52 hvcurveto
          hintmask 1110101001000000
          26 -61 -66 19 -93 hhcurveto
          -92 -155 -26 -159 -107 hvcurveto
          -7 -10 -19 -29 -14 vvcurveto
          -14 6 -4 10 10 17 14 14 20 vhcurveto
          72 109 104 12 37 hhcurveto
          74 49 -17 -24 61 hvcurveto
          hintmask 1111001001000000
          -21 53 62 -2 64 hhcurveto
          hintmask 1111000101000000
          51 62 0 16 42 hvcurveto
          hintmask 1110110001000000
          -858 -1211 rmoveto
          -185 199 -71 135 241 115 121 49 10 -6 8 -12 vhcurveto
          -9 -92 -44 -116 hhcurveto
          -183 -123 73 125 hvcurveto
          85 19 39 21 vvcurveto
          10 -4 10 -15 -41 -108 -100 -151 vhcurveto
          endchar
        </CharString>
        <CharString name="germandbls">
          293 -31 144 -102 -21 860 144 399 143 hstemhm
          -31 135 52 180 444 176 43 146 hintmask 10111111
          336 746 rmoveto
          54 -46 0 -44 -44 -46 0 -54 vhcurveto
          -713 vlineto
          -29 12 -14 22 51 95 48 78 vhcurveto
          -89 734 rmoveto
          70 24 8 45 hvcurveto
          151 vlineto
          107 9 43 31 vvcurveto
          20 -10 14 -23 -26 -56 -30 -41 -34 vhcurveto
          hintmask 01101101
          -30 -36 -15 -71 -152 vvcurveto
          -36 vlineto
          -45 24 -8 67 vhcurveto
          -143 111 rmoveto
          25 -8 8 -14 -35 -78 -86 -36 -18 17 -4 18 vhcurveto
          47 hlineto
          45 8 24 29 hvcurveto
          895 -676 rmoveto
          -57 -6 -49 -41 -66 vhcurveto
          -12 -18 -4 -4 -8 vvcurveto
          -9 6 -6 10 60 133 115 172 118 -42 148 -237 41 vhcurveto
          -181 31 -13 37 -32 132 rrcurveto
          23 -6 -11 8 -14 hhcurveto
          -35 -94 -50 -70 -117 46 -123 266 -38 hvcurveto
          125 -18 82 -50 -142 vvcurveto
          hintmask 10010010
          -330 -63 rmoveto
          19 -21 -15 3 -15 hhcurveto
          -53 -73 -53 -47 -55 95 -62 113 170 51 107 39 16 -9 8 -14 hvcurveto
          -18 -20 -26 -74 hhcurveto
          -61 -21 20 31 -35 hvcurveto
          -106 1372 rmoveto
          -99 -145 -41 -132 -102 hvcurveto
          -17 -21 -24 -38 -19 vvcurveto
          -12 8 -5 9 10 24 14 15 19 vhcurveto
          53 67 85 43 114 hhcurveto
          219 49 -141 -102 -56 -9 -14 -101 -41 hvcurveto
          -94 -38 -86 -99 -39 vvcurveto
          -17 7 -1 7 vhcurveto
          3 hlineto
          10 29 24 11 20 hvcurveto
          28 50 65 31 97 hhcurveto
          143 35 18 172 191 -80 216 -313 hvcurveto
          endchar
        </CharString>
        <CharString name="grave">
          -519 1213 460 hstem
          80 325 vstem
          179 1647 rmoveto
          22 -16 -9 4 -11 hhcurveto
          -31 -32 -64 -69 -29 7 -21 26 -27 hvcurveto
          219 -229 rlineto
          -12 12 11 -9 14 hhcurveto
          30 6 46 35 35 -9 25 -31 42 hvcurveto
          endchar
        </CharString>
        <CharString name="grave.case">
          -578 1587 432 hstem
          80 406 vstem
          150 2004 rmoveto
          13 -16 -9 2 -8 hhcurveto
          -19 -18 -29 -49 -69 10 -55 61 -40 hvcurveto
          279 -177 rlineto
          -10 16 10 -3 7 hhcurveto
          17 6 15 18 54 -25 70 -59 50 hvcurveto
          endchar
        </CharString>
        <CharString name="greater">
          139 934 hstem
          164 1106 vstem
          207 242 rmoveto
          -14 -6 -29 -9 -20 vvcurveto
          -29 65 -39 52 26 39 17 4 16 vhcurveto
          768 276 rlineto
          23 8 12 11 12 vvcurveto
          35 -88 27 -47 -18 -11 -3 -6 -16 vhcurveto
          223 21 rmoveto
          -9 23 10 -2 8 hhcurveto
          13 8 13 14 18 -15 50 -38 32 hvcurveto
          -21 17 -31 12 -16 6 -924 371 rcurveline
          10 -24 -11 0 -4 hhcurveto
          -14 -8 -12 -17 -36 17 -44 42 -34 hvcurveto
          20 -17 33 -13 19 -7 rrcurveto
          endchar
        </CharString>
        <CharString name="guillemotleft">
          380 13 -21 hstem
          90 1144 vstem
          371 509 rmoveto
          16 -21 -20 5 -18 hhcurveto
          -47 -80 -53 -35 -12 8 -11 18 -15 hvcurveto
          489 -394 rlineto
          -8 10 14 -10 19 hhcurveto
          46 52 90 33 23 -14 17 -23 18 hvcurveto
          -99 723 rmoveto
          31 20 45 47 25 49 rrcurveto
          27 54 3 48 7 vvcurveto
          19 -10 11 -18 -6 -15 -1 -18 -25 vhcurveto
          -525 -371 rlineto
          -53 -37 -94 -112 -68 vvcurveto
          -18 8 -13 17 20 16 10 12 21 vhcurveto
          704 9 rmoveto
          13 -20 -16 5 -15 hhcurveto
          -46 -87 -55 -30 -10 4 -8 16 -10 hvcurveto
          395 -262 rlineto
          -6 10 9 -7 15 hhcurveto
          40 53 83 26 18 -10 11 -19 12 hvcurveto
          -91 468 rmoveto
          27 14 29 23 21 44 rrcurveto
          20 42 10 60 6 vvcurveto
          13 -9 10 -13 -4 -10 -2 -13 -23 vhcurveto
          -401 -230 rlineto
          -69 -39 -68 -89 -62 vvcurveto
          -10 6 -10 13 11 18 5 9 16 vhcurveto
          endchar
        </CharString>
        <CharString name="guillemotright">
          440 13 -21 hstem
          150 1204 vstem
          266 351 rmoveto
          -27 -15 -29 -22 -21 -44 rrcurveto
          -23 -48 -7 -50 -9 vvcurveto
          -14 7 -8 14 5 12 1 12 21 vhcurveto
          404 232 rlineto
          24 14 9 13 13 vvcurveto
          34 -58 33 -42 -19 -21 -7 -10 -19 vhcurveto
          165 31 rmoveto
          -13 20 16 -5 15 hhcurveto
          41 83 44 33 10 -4 9 -16 11 hvcurveto
          -525 349 rlineto
          19 -29 -10 6 -15 hhcurveto
          -40 -47 -84 -26 -18 10 -11 19 -12 hvcurveto
          945 -343 rmoveto
          24 -26 -15 7 -19 hhcurveto
          -21 -26 -12 -18 -25 hvcurveto
          -318 -226 -30 -21 -46 -46 -25 -49 rlinecurve
          -27 -54 -4 -55 -7 vvcurveto
          -18 11 -9 18 6 15 1 18 25 vhcurveto
          515 366 rlineto
          19 14 7 15 14 vvcurveto
          24 -22 21 -12 11 vhcurveto
          52 36 rmoveto
          -16 21 20 -7 18 hhcurveto
          47 72 42 35 12 -8 15 -18 15 hvcurveto
          -647 525 rlineto
          8 -10 -14 10 -19 hhcurveto
          -46 -53 -76 -33 -23 14 -17 23 -18 hvcurveto
          endchar
        </CharString>
        <CharString name="guilsinglleft">
          -13 13 -21 hstem
          90 751 vstem
          368 508 rmoveto
          16 -21 -20 5 -18 hhcurveto
          -47 -77 -52 -35 -12 8 -11 18 -15 hvcurveto
          489 -394 rlineto
          -7 11 13 -11 19 hhcurveto
          46 52 96 33 23 -14 17 -23 18 hvcurveto
          -99 717 rmoveto
          31 21 45 46 25 49 rrcurveto
          27 54 4 55 7 vvcurveto
          17 -10 11 -17 -5 -15 0 -20 -28 vhcurveto
          -525 -371 rlineto
          -53 -37 -94 -116 -68 vvcurveto
          -18 8 -13 17 20 16 10 12 21 vhcurveto
          endchar
        </CharString>
        <CharString name="guilsinglright">
          52 13 -21 hstem
          150 816 vstem
          727 471 rmoveto
          24 -26 -15 7 -19 hhcurveto
          -21 -22 -11 -18 -25 hvcurveto
          -313 -222 -31 -20 -45 -47 -25 -49 rlinecurve
          -27 -54 -4 -55 -7 vvcurveto
          -17 10 -10 17 5 13 2 17 30 vhcurveto
          506 361 rlineto
          19 14 7 15 14 vvcurveto
          24 -22 21 -12 11 vhcurveto
          52 36 rmoveto
          -16 21 20 -7 18 hhcurveto
          47 81 47 35 12 -8 15 -18 15 hvcurveto
          -649 529 rlineto
          7 -11 -13 11 -19 hhcurveto
          -46 -52 -96 -33 -23 14 -17 23 -18 hvcurveto
          endchar
        </CharString>
        <CharString name="h">
          27 11 -21 921 144 hstem
          125 180 434 180 vstem
          356 967 rmoveto
          -11 -15 -11 -6 -9 hhcurveto
          -14 -6 15 28 hvcurveto
          4 500 rlineto
          29 -12 14 -23 -48 -97 -47 -78 vhcurveto
          -648 vlineto
          -15 2 -15 18 14 22 14 11 14 vhcurveto
          109 140 100 44 79 hhcurveto
          223 2 -184 -299 hvcurveto
          -395 vlineto
          -29 13 -14 22 53 92 51 78 vhcurveto
          510 vlineto
          303 -98 123 -215 -90 -76 -31 -57 -84 vhcurveto
          -231 -934 rmoveto
          -29 12 -14 23 46 99 44 80 vhcurveto
          578 vlineto
          29 -8 14 -23 -26 -61 -40 -40 -35 vhcurveto
          -24 -27 -3 -28 -31 vvcurveto
          endchar
        </CharString>
        <CharString name="hyphen">
          40 532 154 hstem
          164 717 vstem
          739 532 rmoveto
          27 27 3 18 20 hvcurveto
          41 37 27 51 14 vvcurveto
          23 -15 8 -28 vhcurveto
          -533 hlineto
          -26 -27 -2 -18 -21 hvcurveto
          -41 -37 -26 -51 -15 vvcurveto
          -22 14 -9 29 vhcurveto
          endchar
        </CharString>
        <CharString name="i">
          -578 11 -21 1065 -20 hstem
          123 180 vstem
          303 1012 rmoveto
          28 -12 15 -23 -39 -53 -27 -41 -35 vhcurveto
          -16 -20 -2 -21 -20 vvcurveto
          -893 vlineto
          -29 12 -14 23 39 53 26 41 35 vhcurveto
          16 21 2 20 21 vvcurveto
          1414 vmoveto
          29 -12 14 -23 -39 -53 -27 -41 -35 vhcurveto
          -16 -20 -2 -21 -20 vvcurveto
          -145 vlineto
          -29 12 -14 23 39 53 26 41 35 vhcurveto
          16 21 2 20 21 vvcurveto
          endchar
        </CharString>
        <CharString name="iacute">
          -435 11 -21 1065 -20 hstem
          194 180 vstem
          374 1012 rmoveto
          28 -12 15 -23 -39 -53 -27 -41 -35 vhcurveto
          -16 -20 -2 -21 -20 vvcurveto
          -893 vlineto
          -29 12 -14 23 39 53 26 41 35 vhcurveto
          16 21 2 20 21 vvcurveto
          -211 1277 rmoveto
          -31 -41 -9 -28 -35 vvcurveto
          -35 10 -41 26 14 11 9 12 12 vhcurveto
          217 229 rlineto
          26 27 7 21 29 vvcurveto
          69 -30 61 -31 -11 -9 -4 -22 -16 vhcurveto
          endchar
        </CharString>
        <CharString name="icircumflex">
          -157 11 -21 1065 -20 hstem
          333 180 vstem
          513 1012 rmoveto
          28 -12 15 -23 -39 -53 -27 -41 -35 vhcurveto
          -16 -20 -2 -21 -20 vvcurveto
          -893 vlineto
          -29 12 -14 23 39 53 26 41 35 vhcurveto
          16 21 2 20 21 vvcurveto
          105 1165 rmoveto
          -41 45 15 -4 12 hhcurveto
          27 7 42 22 23 -2 25 -25 26 hvcurveto
          -218 241 rlineto
          18 -18 -14 8 -13 hhcurveto
          -14 -13 -5 -21 -22 hvcurveto
          -240 -251 rlineto
          -18 -18 -4 -28 -23 vvcurveto
          -21 3 -33 25 13 12 4 39 45 vhcurveto
          163 147 rlineto
          15 17 11 8 12 hhcurveto
          12 10 -10 -13 14 hvcurveto
          endchar
        </CharString>
        <CharString name="idieresis">
          -253 11 -21 1065 -20 hstemhm
          123 165 -3 180 -2 165 hintmask 11010000
          465 1012 rmoveto
          28 -12 15 -23 -39 -53 -27 -41 -35 vhcurveto
          -16 -20 -2 -21 -20 vvcurveto
          -893 vlineto
          -29 12 -14 23 39 53 26 41 35 vhcurveto
          16 21 2 20 21 vvcurveto
          hintmask 11101000
          -177 1414 rmoveto
          29 -12 14 -23 -29 -48 -27 -41 -35 vhcurveto
          -16 -20 -2 -21 -20 vvcurveto
          -145 vlineto
          -29 12 -14 23 29 49 25 42 34 vhcurveto
          17 21 1 20 21 vvcurveto
          340 145 rmoveto
          29 -12 14 -23 -29 -48 -27 -41 -35 vhcurveto
          -16 -20 -2 -21 -20 vvcurveto
          -145 vlineto
          -29 12 -14 23 29 49 25 42 34 vhcurveto
          17 21 1 20 21 vvcurveto
          endchar
        </CharString>
        <CharString name="igrave">
          -433 11 -21 1065 -20 hstem
          195 180 vstem
          375 1012 rmoveto
          28 -12 15 -23 -39 -53 -27 -41 -35 vhcurveto
          -16 -20 -2 -21 -20 vvcurveto
          -893 vlineto
          -29 12 -14 23 39 53 26 41 35 vhcurveto
          16 21 2 20 21 vvcurveto
          -153 1528 rmoveto
          22 -16 -9 4 -11 hhcurveto
          -31 -32 -64 -69 -29 7 -21 26 -27 hvcurveto
          219 -229 rlineto
          -12 12 11 -9 14 hhcurveto
          30 6 46 35 35 -9 25 -31 42 hvcurveto
          endchar
        </CharString>
        <CharString name="j">
          -543 -604 143 -122 -21 1659 -20 hstemhm
          160 178 hintmask 01110000
          338 1533 rmoveto
          29 -12 14 -23 -53 -92 -52 -68 vhcurveto
          -154 vlineto
          -29 12 -14 23 48 97 47 78 vhcurveto
          -372 vmoveto
          28 -12 15 -23 -39 -53 -27 -41 -35 vhcurveto
          -16 -20 -2 -21 -20 vvcurveto
          2 -1257 rlineto
          -69 -2 -31 -3 -21 vhcurveto
          -7 -56 -21 -22 -17 vvcurveto
          -8 5 -9 14 68 124 103 258 vhcurveto
          hintmask 10110000
          -401 -219 rmoveto
          25 -22 -16 6 -16 hhcurveto
          -21 -22 -13 -20 -22 hvcurveto
          -20 -19 -17 -24 -27 vvcurveto
          -41 58 -69 103 105 54 104 39 18 -9 5 -11 vhcurveto
          -17 -25 -23 -26 hhcurveto
          -30 -19 8 31 -27 hvcurveto
          endchar
        </CharString>
        <CharString name="k">
          -66 11 -21 hstem
          125 180 vstem
          125 33 rmoveto
          -29 12 -14 23 53 92 46 80 vhcurveto
          1377 vlineto
          29 -12 14 -23 -53 -92 -48 -78 vhcurveto
          734 -1347 rmoveto
          10 17 6 20 15 vvcurveto
          19 -10 18 -8 12 vhcurveto
          -292 400 rlineto
          -13 17 -4 11 9 vvcurveto
          16 10 13 14 15 vhcurveto
          297 307 rlineto
          24 24 5 11 12 vvcurveto
          19 -14 6 -17 vhcurveto
          -94 -1 -35 1 -61 -68 -295 -329 rcurveline
          -18 -20 -9 -18 -17 vvcurveto
          -13 7 -14 10 -15 vhcurveto
          344 -503 rlineto
          -15 10 16 -22 23 hhcurveto
          26 30 8 65 38 hvcurveto
          endchar
        </CharString>
        <CharString name="l">
          -578 11 -21 hstem
          123 180 vstem
          123 33 rmoveto
          -29 12 -14 23 53 92 45 80 vhcurveto
          1378 vlineto
          29 -12 14 -23 -53 -92 -47 -78 vhcurveto
          endchar
        </CharString>
        <CharString name="less">
          129 945 hstem
          164 1106 vstem
          459 526 rmoveto
          6 -17 -10 3 -18 hhcurveto
          -47 -88 -27 -35 -12 12 -11 22 -8 hvcurveto
          822 -305 rlineto
          -4 13 13 -4 18 hhcurveto
          37 54 37 39 14 -10 12 -27 11 hvcurveto
          -98 651 rmoveto
          24 9 51 26 29 47 rrcurveto
          29 47 2 18 7 vvcurveto
          17 -11 10 -17 -5 -6 -1 -2 -6 vhcurveto
          -920 -373 rlineto
          -45 -18 -96 -61 -56 vvcurveto
          -12 6 -14 20 12 21 5 9 23 vhcurveto
          endchar
        </CharString>
        <CharString name="logicalnot">
          580 143 hstem
          1127 143 vstem
          1082 580 rmoveto
          29 16 -14 -43 hvcurveto
          -322 vlineto
          -29 6 -14 19 22 39 26 41 37 vhcurveto
          18 21 2 26 27 vvcurveto
          382 vlineto
          25 -10 17 -31 vhcurveto
          -924 hlineto
          -26 -27 -2 -18 -21 hvcurveto
          -41 -37 -26 -41 -14 vvcurveto
          -23 14 -8 29 vhcurveto
          endchar
        </CharString>
        <CharString name="m">
          579 11 -21 921 144 hstem
          125 180 398 180 409 179 vstem
          125 33 rmoveto
          -29 13 -14 22 53 92 50 79 vhcurveto
          575 vlineto
          29 -9 14 -22 -30 -56 -39 -41 -36 vhcurveto
          -25 -27 -2 -27 -32 vvcurveto
          627 418 rmoveto
          51 -55 -41 15 -74 hhcurveto
          -51 -78 -23 -61 -92 hvcurveto
          -12 -19 -13 -7 -8 hhcurveto
          -11 -4 10 25 hvcurveto
          25 vlineto
          28 -13 15 -22 -53 -93 -49 -77 vhcurveto
          -164 vlineto
          -14 2 -18 19 13 23 15 10 13 vhcurveto
          112 144 87 41 78 hhcurveto
          106 41 -53 -94 27 hvcurveto
          -18 5 5 -26 19 hhcurveto
          14 15 11 12 16 hvcurveto
          107 137 84 61 101 hhcurveto
          209 9 -182 -301 hvcurveto
          -395 vlineto
          -29 12 -14 23 53 91 57 78 vhcurveto
          506 vlineto
          311 -107 113 -202 -51 -85 -23 -61 -96 vhcurveto
          -29 -46 -25 -14 -21 hhcurveto
          -29 -12 20 41 -45 hvcurveto
          -49 -956 rmoveto
          -29 12 -14 23 38 55 25 42 34 vhcurveto
          16 20 2 28 20 vvcurveto
          569 vlineto
          29 -8 14 -23 -28 -59 -40 -40 -35 vhcurveto
          -24 -27 -3 -28 -31 vvcurveto
          endchar
        </CharString>
        <CharString name="macron">
          -198 1371 140 hstem
          80 646 vstem
          584 1371 rmoveto
          27 31 2 18 20 hvcurveto
          41 37 23 43 14 vvcurveto
          22 -15 4 -28 vhcurveto
          -462 hlineto
          -26 -31 -2 -19 -21 hvcurveto
          -41 -37 -22 -42 -15 vvcurveto
          -22 14 -3 29 vhcurveto
          endchar
        </CharString>
        <CharString name="minus">
          580 143 hstem
          164 1106 vstem
          1128 580 rmoveto
          27 27 2 18 20 hvcurveto
          41 37 27 41 15 vvcurveto
          22 -15 8 -28 vhcurveto
          -922 hlineto
          -26 -27 -2 -18 -21 hvcurveto
          -41 -37 -26 -41 -14 vvcurveto
          -23 14 -8 29 vhcurveto
          endchar
        </CharString>
        <CharString name="mu">
          30 -583 -21 573 144 -102 -21 1065 -20 hstemhm
          113 180 -168 180 426 180 hintmask 11011010
          hintmask 11010110
          305 -157 rmoveto
          37 -4 27 -29 22 vhcurveto
          25 -32 -52 31 -28 hhcurveto
          -23 -12 -17 -28 hvcurveto
          -501 vlineto
          -29 12 -14 23 53 92 49 80 vhcurveto
          hintmask 11011010
          115 444 rmoveto
          70 94 26 62 70 hvcurveto
          14 12 12 13 42 vvcurveto
          36 -10 3 -8 -8 -5 -5 -6 -10 vhcurveto
          -25 -43 -65 -14 -43 hhcurveto
          -178 -17 122 259 hvcurveto
          518 vlineto
          28 -12 15 -23 -53 -92 -49 -78 vhcurveto
          -543 vlineto
          -311 108 -105 199 vhcurveto
          491 1043 rmoveto
          28 -13 15 -22 -52 -93 -50 -76 vhcurveto
          hintmask 10111010
          -896 vlineto
          -29 13 -14 22 52 93 48 78 vhcurveto
          endchar
        </CharString>
        <CharString name="multiply">
          97 1067 hstem
          165 1104 vstem
          836 607 rmoveto
          -6 7 -6 8 9 vvcurveto
          9 5 7 9 10 vhcurveto
          412 443 rlineto
          11 12 8 10 11 vvcurveto
          19 -14 11 -64 -55 -21 -8 -31 -29 vhcurveto
          -436 -467 rlineto
          -9 -10 -3 -8 -9 vvcurveto
          -9 4 -7 6 -7 vhcurveto
          439 -470 rlineto
          -31 29 21 -9 51 hhcurveto
          73 8 14 20 9 -8 9 -10 12 hvcurveto
          -611 297 rmoveto
          10 12 7 10 11 vvcurveto
          23 -51 59 -26 -10 -11 -6 -14 -13 vhcurveto
          -361 -392 rlineto
          -12 -13 -8 -9 -9 vvcurveto
          -24 30 -9 49 54 20 9 30 30 vhcurveto
          197 573 rmoveto
          -12 11 11 -5 11 hhcurveto
          24 58 48 28 11 -8 10 -12 14 hvcurveto
          -291 322 rlineto
          28 -28 -20 11 -53 hhcurveto
          -71 -10 -16 -16 -10 7 -9 12 -13 hvcurveto
          endchar
        </CharString>
        <CharString name="n">
          34 11 -21 921 144 hstem
          125 180 441 180 vstem
          125 33 rmoveto
          -29 12 -14 23 53 92 49 80 vhcurveto
          575 vlineto
          29 -8 14 -23 -28 -59 -40 -40 -35 vhcurveto
          -24 -27 -3 -28 -31 vvcurveto
          235 399 rmoveto
          -13 -17 -13 -6 -9 hhcurveto
          -11 -5 11 25 hvcurveto
          25 vlineto
          28 -12 15 -23 -53 -92 -51 -78 vhcurveto
          -159 vlineto
          -16 2 -18 18 14 22 14 11 14 vhcurveto
          105 137 103 48 75 hhcurveto
          233 3 -182 -301 hvcurveto
          -395 vlineto
          -29 13 -14 22 54 91 51 78 vhcurveto
          512 vlineto
          311 -109 113 -227 -62 -88 -27 -58 -80 vhcurveto
          endchar
        </CharString>
        <CharString name="nbspace">
          -578 endchar
        </CharString>
        <CharString name="nine">
          104 -31 158 408 182 553 164 hstem
          98 194 508 201 vstem
          140 1200 rmoveto
          -16 -26 -20 -31 -27 vvcurveto
          -16 10 -6 12 14 17 8 35 35 vhcurveto
          120 120 88 13 72 hhcurveto
          299 29 -279 -354 -134 -1 -245 -66 -143 hvcurveto
          -21 -45 -22 -15 -16 vvcurveto
          -10 4 -13 17 55 89 74 117 61 vhcurveto
          77 147 8 228 124 vvcurveto
          337 -33 391 -418 -178 -148 -103 -131 -84 vhcurveto
          565 -553 rmoveto
          18 17 16 14 56 vvcurveto
          42 -9 6 -10 -10 -12 -9 -7 -14 vhcurveto
          -28 -56 -76 -21 -47 hhcurveto
          -176 -37 143 187 28 -16 12 -19 -29 -36 -28 -25 -29 hvcurveto
          -52 -44 -13 -48 -55 vvcurveto
          -162 87 -190 242 96 112 47 65 70 vhcurveto
          -304 -678 rmoveto
          197 62 125 35 16 -6 13 -18 hvcurveto
          -25 -38 -31 -63 hhcurveto
          -37 -39 6 55 -67 hvcurveto
          21 -25 -23 14 -26 hhcurveto
          -47 -49 -46 -17 -17 hvcurveto
          -17 -17 -5 -16 -14 vvcurveto
          -23 5 -17 25 -22 vhcurveto
          -73 80 76 -9 57 hhcurveto
          endchar
        </CharString>
        <CharString name="noBreak">
          -1004 endchar
        </CharString>
        <CharString name="nonmarkingreturn">
          -1004 endchar
        </CharString>
        <CharString name="ntilde">
          34 11 -21 921 144 238 155 -52 153 hstemhm
          125 180 441 180 hintmask 11011100
          125 33 rmoveto
          -29 12 -14 23 53 92 49 80 vhcurveto
          575 vlineto
          29 -8 14 -23 -28 -59 -40 -40 -35 vhcurveto
          -24 -27 -3 -28 -31 vvcurveto
          235 399 rmoveto
          -13 -17 -13 -6 -9 hhcurveto
          -11 -5 11 25 hvcurveto
          25 vlineto
          28 -12 15 -23 -53 -92 -51 -78 vhcurveto
          -159 vlineto
          -16 2 -18 18 14 22 14 11 14 vhcurveto
          105 137 103 48 75 hhcurveto
          233 3 -182 -301 hvcurveto
          -395 vlineto
          -29 13 -14 22 54 91 51 78 vhcurveto
          512 vlineto
          311 -109 113 -227 -62 -88 -27 -58 -80 vhcurveto
          hintmask 11101100
          299 323 rmoveto
          124 74 129 96 16 -6 9 -12 -6 -8 -4 -5 -6 hvcurveto
          -29 -34 -30 -57 -88 -84 -56 101 -129 hhcurveto
          hintmask 11011100
          -121 -96 -125 -93 -20 7 -10 12 6 6 4 4 6 hvcurveto
          25 37 49 62 78 93 88 -103 96 hhcurveto
          endchar
        </CharString>
        <CharString name="numbersign">
          397 11 -21 422 120 353 123 415 -20 hstem
          -41 1442 vstem
          223 42 rmoveto
          -1 -5 -1 -6 -5 vvcurveto
          -23 14 -13 19 55 68 92 65 16 vhcurveto
          39 160 rlineto
          1 5 1 4 4 vvcurveto
          24 -22 8 -45 -49 -24 -6 -39 -9 vhcurveto
          418 -267 rmoveto
          -1 -5 -1 -5 -5 vvcurveto
          -22 14 -13 18 55 68 92 65 16 vhcurveto
          39 160 rlineto
          1 5 1 5 4 vvcurveto
          24 -22 7 -45 -48 -25 -6 -39 -9 vhcurveto
          -641 699 rmoveto
          -45 -15 -13 -18 -57 115 -33 72 hvcurveto
          46 hlineto
          58 22 52 44 14 -8 11 -19 hvcurveto
          -331 -474 rmoveto
          -45 -14 -12 -18 -58 115 -32 71 hvcurveto
          47 hlineto
          57 22 50 46 14 -8 10 -18 hvcurveto
          72 -79 rmoveto
          -1 -4 0 -4 -3 vvcurveto
          -21 15 -9 21 vhcurveto
          317 hlineto
          59 21 53 45 14 -8 11 -19 hvcurveto
          -196 -3 rlineto
          -20 -16 9 20 3 1 5 1 4 hvcurveto
          48 215 1 3 4 vvcurveto
          24 -23 6 -45 -48 -25 -6 -39 -9 vhcurveto
          386 105 rmoveto
          59 21 53 45 14 -8 11 -18 hvcurveto
          -196 hlineto
          -22 -14 9 21 3 0 4 1 4 hvcurveto
          70 303 rlineto
          2 10 2 12 6 vvcurveto
          33 -15 10 -16 -56 -70 -92 -65 -15 vhcurveto
          -78 -340 rlineto
          -1 -4 0 -4 -3 vvcurveto
          -21 14 -9 22 vhcurveto
          878 hmoveto
          49 15 18 17 55 -115 35 -69 hvcurveto
          -103 hlineto
          -21 -15 9 21 3 0 4 1 4 hvcurveto
          70 301 rlineto
          2 10 2 12 6 vvcurveto
          33 -14 10 -17 -56 -70 -92 -65 -15 vhcurveto
          -78 -340 rlineto
          -1 -5 -1 -5 -4 vvcurveto
          -19 12 -8 21 vhcurveto
          305 -473 rmoveto
          49 15 18 16 56 -115 35 -70 hvcurveto
          -112 hlineto
          -22 -14 9 21 3 0 4 1 4 hvcurveto
          49 217 rlineto
          24 -23 6 -45 -47 -27 -6 -39 -8 vhcurveto
          -73 -327 rlineto
          -1 -5 -1 -5 -4 vvcurveto
          -19 12 -8 20 vhcurveto
          endchar
        </CharString>
        <CharString name="o">
          55 -31 144 798 144 hstem
          92 188 496 191 vstem
          524 1055 rmoveto
          -112 -131 -35 -152 -119 hvcurveto
          -8 -10 -23 -37 -16 vvcurveto
          -14 6 -3 8 11 20 17 14 21 vhcurveto
          74 108 78 18 74 hhcurveto
          248 71 -190 -287 -80 -8 -147 -33 -90 hvcurveto
          -22 -64 -25 -14 -16 vvcurveto
          -11 8 -8 13 43 86 76 106 53 vhcurveto
          47 97 29 135 106 vvcurveto
          342 -133 189 -310 vhcurveto
          -244 -503 rmoveto
          97 21 82 27 vvcurveto
          22 -10 8 -15 -43 -75 -47 -49 -29 vhcurveto
          -25 -43 -12 -90 -61 vvcurveto
          -279 58 -250 299 139 84 99 49 10 -4 12 -17 vhcurveto
          -24 -19 -26 -80 hhcurveto
          -223 -25 189 250 hvcurveto
          endchar
        </CharString>
        <CharString name="oacute">
          55 -31 144 798 144 hstem
          92 188 496 191 vstem
          524 1055 rmoveto
          -112 -131 -35 -152 -119 hvcurveto
          -8 -10 -23 -37 -16 vvcurveto
          -14 6 -3 8 11 20 17 14 21 vhcurveto
          74 108 78 18 74 hhcurveto
          248 71 -190 -287 -80 -8 -147 -33 -90 hvcurveto
          -22 -64 -25 -14 -16 vvcurveto
          -11 8 -8 13 43 86 76 106 53 vhcurveto
          47 97 29 135 106 vvcurveto
          342 -133 189 -310 vhcurveto
          -244 -503 rmoveto
          97 21 82 27 vvcurveto
          22 -10 8 -15 -43 -75 -47 -49 -29 vhcurveto
          -25 -43 -12 -90 -61 vvcurveto
          -279 58 -250 299 139 84 99 49 10 -4 12 -17 vhcurveto
          -24 -19 -26 -80 hhcurveto
          -223 -25 189 250 hvcurveto
          128 844 rmoveto
          -31 -41 -9 -28 -35 vvcurveto
          -35 10 -41 26 14 11 9 12 12 vhcurveto
          217 229 rlineto
          26 27 7 21 29 vvcurveto
          69 -30 61 -31 -11 -9 -4 -22 -16 vhcurveto
          endchar
        </CharString>
        <CharString name="ocircumflex">
          55 -31 144 798 144 hstem
          92 188 496 191 vstem
          524 1055 rmoveto
          -112 -131 -35 -152 -119 hvcurveto
          -8 -10 -23 -37 -16 vvcurveto
          -14 6 -3 8 11 20 17 14 21 vhcurveto
          74 108 78 18 74 hhcurveto
          248 71 -190 -287 -80 -8 -147 -33 -90 hvcurveto
          -22 -64 -25 -14 -16 vvcurveto
          -11 8 -8 13 43 86 76 106 53 vhcurveto
          47 97 29 135 106 vvcurveto
          342 -133 189 -310 vhcurveto
          -244 -503 rmoveto
          97 21 82 27 vvcurveto
          22 -10 8 -15 -43 -75 -47 -49 -29 vhcurveto
          -25 -43 -12 -90 -61 vvcurveto
          -279 58 -250 299 139 84 99 49 10 -4 12 -17 vhcurveto
          -24 -19 -26 -80 hhcurveto
          -223 -25 189 250 hvcurveto
          444 732 rmoveto
          -41 45 15 -4 12 hhcurveto
          27 7 42 22 23 -2 25 -25 26 hvcurveto
          -218 241 rlineto
          18 -18 -14 8 -13 hhcurveto
          -14 -13 -5 -21 -22 hvcurveto
          -240 -251 rlineto
          -18 -18 -4 -28 -23 vvcurveto
          -21 3 -33 25 13 12 4 39 45 vhcurveto
          163 147 rlineto
          15 17 11 8 12 hhcurveto
          12 10 -10 -13 14 hvcurveto
          endchar
        </CharString>
        <CharString name="odieresis">
          55 -31 144 798 144 hstemhm
          92 188 -3 165 175 165 -6 191 hintmask 11011000
          hintmask 11100100
          524 1055 rmoveto
          -112 -131 -35 -152 -119 hvcurveto
          -8 -10 -23 -37 -16 vvcurveto
          -14 6 -3 8 11 20 17 14 21 vhcurveto
          74 108 78 18 74 hhcurveto
          248 71 -190 -287 -80 -8 -147 -33 -90 hvcurveto
          -22 -64 -25 -14 -16 vvcurveto
          -11 8 -8 13 43 86 76 106 53 vhcurveto
          47 97 29 135 106 vvcurveto
          342 -133 189 -310 vhcurveto
          -244 -503 rmoveto
          97 21 82 27 vvcurveto
          22 -10 8 -15 -43 -75 -47 -49 -29 vhcurveto
          -25 -43 -12 -90 -61 vvcurveto
          -279 58 -250 299 139 84 99 49 10 -4 12 -17 vhcurveto
          -24 -19 -26 -80 hhcurveto
          -223 -25 189 250 hvcurveto
          hintmask 11011000
          162 981 rmoveto
          29 -12 14 -23 -29 -48 -27 -41 -35 vhcurveto
          -16 -20 -2 -21 -20 vvcurveto
          -145 vlineto
          -29 12 -14 23 29 49 25 42 34 vhcurveto
          17 21 1 20 21 vvcurveto
          340 145 rmoveto
          29 -12 14 -23 -29 -48 -27 -41 -35 vhcurveto
          -16 -20 -2 -21 -20 vvcurveto
          -145 vlineto
          -29 12 -14 23 29 49 25 42 34 vhcurveto
          17 21 1 20 21 vvcurveto
          endchar
        </CharString>
        <CharString name="oe">
          564 -31 144 342 139 317 144 hstem
          92 188 454 195 369 192 vstem
          280 552 rmoveto
          97 21 82 27 vvcurveto
          22 -10 8 -15 -43 -75 -47 -49 -29 vhcurveto
          -25 -43 -12 -90 -61 vvcurveto
          -279 48 -250 299 139 74 99 49 10 -4 12 -17 vhcurveto
          -24 -9 -26 -80 hhcurveto
          -223 -15 189 250 hvcurveto
          563 -139 rmoveto
          -91 -3 -36 -32 -76 -15 -90 -22 -62 hvcurveto
          -23 -64 -21 -14 -16 vvcurveto
          -11 8 -8 13 24 38 40 53 37 vhcurveto
          18 13 9 3 8 hhcurveto
          10 8 -4 -17 13 hvcurveto
          -83 63 78 -45 131 hhcurveto
          250 111 160 49 17 -8 8 -15 hvcurveto
          -37 -59 -90 -168 hhcurveto
          -110 -133 21 237 -28 hvcurveto
          25 -3 -10 17 -68 hhcurveto
          86 224 rmoveto
          31 20 65 25 vvcurveto
          22 -10 8 -14 -23 -22 -12 -18 -31 vhcurveto
          -52 -31 -63 -54 -166 vvcurveto
          -32 18 -10 27 -2 vhcurveto
          -5 57 54 -3 52 hhcurveto
          331 217 117 208 201 -137 74 -185 -79 -106 -23 -83 -97 hvcurveto
          -8 -9 -14 -9 -13 hhcurveto
          -13 -15 10 14 -14 hvcurveto
          67 -67 -94 32 -133 hhcurveto
          -112 -121 -35 -152 -119 hvcurveto
          -8 -10 -23 -37 -16 vvcurveto
          -14 6 -3 8 11 20 17 14 21 vhcurveto
          74 108 68 18 74 hhcurveto
          110 66 -40 -64 51 hvcurveto
          -25 20 18 -16 26 hhcurveto
          22 26 12 22 34 hvcurveto
          108 168 88 3 47 hhcurveto
          128 47 -61 -76 -89 -66 -91 -234 -36 -33 2 41 hvcurveto
          endchar
        </CharString>
        <CharString name="ograve">
          55 -31 144 798 144 hstem
          92 188 496 191 vstem
          524 1055 rmoveto
          -112 -131 -35 -152 -119 hvcurveto
          -8 -10 -23 -37 -16 vvcurveto
          -14 6 -3 8 11 20 17 14 21 vhcurveto
          74 108 78 18 74 hhcurveto
          248 71 -190 -287 -80 -8 -147 -33 -90 hvcurveto
          -22 -64 -25 -14 -16 vvcurveto
          -11 8 -8 13 43 86 76 106 53 vhcurveto
          47 97 29 135 106 vvcurveto
          342 -133 189 -310 vhcurveto
          -244 -503 rmoveto
          97 21 82 27 vvcurveto
          22 -10 8 -15 -43 -75 -47 -49 -29 vhcurveto
          -25 -43 -12 -90 -61 vvcurveto
          -279 58 -250 299 139 84 99 49 10 -4 12 -17 vhcurveto
          -24 -19 -26 -80 hhcurveto
          -223 -25 189 250 hvcurveto
          186 1095 rmoveto
          22 -16 -9 4 -11 hhcurveto
          -31 -32 -64 -69 -29 7 -21 26 -27 hvcurveto
          219 -229 rlineto
          -12 12 11 -9 14 hhcurveto
          30 6 46 35 35 -9 25 -31 42 hvcurveto
          endchar
        </CharString>
        <CharString name="one">
          -339 11 -21 1433 -20 hstem
          378 185 vstem
          15 945 rmoveto
          -9 -9 -6 -9 -13 vvcurveto
          -30 44 -2 47 61 34 14 44 44 vhcurveto
          49 49 rlineto
          30 30 9 41 60 vvcurveto
          70 -6 16 -19 -7 -13 -7 -22 -23 vhcurveto
          313 203 rmoveto
          29 -13 14 -22 -39 -55 -41 -41 -35 vhcurveto
          -17 -20 -4 -27 -20 vvcurveto
          -1241 vlineto
          -29 13 -14 22 37 57 35 41 35 vhcurveto
          19 22 2 25 26 vvcurveto
          endchar
        </CharString>
        <CharString name="onehalf">
          711 -10 -21 31 131 607 119 566 -20 31 -20 hstemhm
          265 146 1077 157 hintmask 11101110
          hintmask 11110110
          411 1398 rmoveto
          17 -8 8 -13 -23 -69 -24 -24 -21 vhcurveto
          -10 -12 -2 -16 -12 vvcurveto
          -738 vlineto
          -17 8 -8 13 22 70 21 24 21 vhcurveto
          11 13 1 15 15 vvcurveto
          -390 472 rmoveto
          -6 -7 -15 -14 -9 vvcurveto
          -21 36 -4 32 41 23 5 26 25 vhcurveto
          46 48 rlineto
          21 22 6 34 41 vvcurveto
          40 -7 19 -16 -7 -5 -4 -11 -11 vhcurveto
          60 -1254 rmoveto
          -16 -20 -13 -19 -12 vvcurveto
          -17 15 -6 10 72 63 27 47 37 vhcurveto
          hintmask 11101110
          1010 1337 rlineto
          12 17 3 10 6 vvcurveto
          12 -11 9 -14 -68 -69 -27 -47 -35 vhcurveto
          -29 -1229 rmoveto
          -16 -15 -2 -10 -13 hvcurveto
          -18 -13 -25 -55 -29 vvcurveto
          -13 8 -9 18 vhcurveto
          412 hlineto
          16 16 1 11 12 hvcurveto
          24 22 19 70 9 vvcurveto
          13 -8 5 -18 vhcurveto
          -317 78 rmoveto
          69 138 270 113 182 vvcurveto
          138 -101 77 -133 -96 -85 -40 -86 -68 vhcurveto
          -5 -6 -22 -36 -20 vvcurveto
          -10 8 -5 5 5 11 1 14 20 vhcurveto
          51 74 52 18 55 hhcurveto
          73 50 -35 -79 -130 -201 -85 -103 -191 hvcurveto
          -7 -13 -2 -11 -4 vvcurveto
          -21 25 -3 25 43 21 10 33 17 vhcurveto
          endchar
        </CharString>
        <CharString name="onequarter">
          671 -10 -21 21 149 -128 -21 184 132 1117 -20 31 -20 hstemhm
          265 146 985 126 hintmask 00110111
          1115 389 rmoveto
          -8 -12 -4 -9 -7 vvcurveto
          -14 15 -6 26 42 30 2 29 19 vhcurveto
          106 161 rlineto
          15 23 5 30 57 vvcurveto
          64 -4 7 -11 -4 -6 -2 -15 -10 vhcurveto
          244 -523 rmoveto
          31 17 17 53 31 hvcurveto
          10 17 6 18 10 vvcurveto
          15 -13 2 -15 vhcurveto
          -81 hlineto
          -18 -16 8 27 hvcurveto
          476 vlineto
          17 -7 8 -13 -23 -50 -24 -24 -21 vhcurveto
          -10 -12 -2 -16 -12 vvcurveto
          -550 vlineto
          -24 12 -6 16 vhcurveto
          -315 132 rmoveto
          -35 -21 -12 -22 -15 hvcurveto
          -26 -38 -9 -17 -13 vvcurveto
          -17 11 -13 29 vhcurveto
          285 hlineto
          27 6 33 35 37 -6 27 -27 hvcurveto
          hintmask 01001011
          194 -199 rmoveto
          28 -25 4 -38 -33 -30 -4 -28 vhcurveto
          -92 vlineto
          -17 8 -8 13 21 51 21 24 21 vhcurveto
          11 13 1 15 15 vvcurveto
          -1111 1320 rmoveto
          17 -8 8 -13 -23 -69 -24 -24 -21 vhcurveto
          -10 -12 -2 -16 -12 vvcurveto
          -738 vlineto
          -17 8 -8 13 22 70 21 24 21 vhcurveto
          11 13 1 15 15 vvcurveto
          -390 472 rmoveto
          -6 -7 -15 -14 -9 vvcurveto
          -21 36 -4 32 41 23 5 26 25 vhcurveto
          46 48 rlineto
          21 22 6 34 41 vvcurveto
          40 -7 19 -16 -7 -5 -4 -11 -11 vhcurveto
          hintmask 10000110
          60 -1254 rmoveto
          -16 -20 -13 -19 -12 vvcurveto
          -17 15 -6 10 72 63 27 47 37 vhcurveto
          1010 1337 rlineto
          12 17 3 10 6 vvcurveto
          12 -11 9 -14 -68 -69 -27 -47 -35 vhcurveto
          endchar
        </CharString>
        <CharString name="onesuperior">
          -463 1423 -20 hstem
          265 146 vstem
          411 1398 rmoveto
          17 -8 8 -13 -23 -69 -24 -24 -21 vhcurveto
          -10 -12 -2 -16 -12 vvcurveto
          -738 vlineto
          -17 8 -8 13 22 70 21 24 21 vhcurveto
          11 13 1 15 15 vvcurveto
          -390 472 rmoveto
          -6 -7 -15 -14 -9 vvcurveto
          -21 36 -4 32 41 23 5 26 25 vhcurveto
          46 48 rlineto
          21 22 6 34 41 vvcurveto
          40 -7 19 -16 -7 -5 -4 -11 -11 vhcurveto
          endchar
        </CharString>
        <CharString name="ordfeminine">
          -249 633 120 252 117 192 120 hstem
          50 149 312 144 vstem
          455 698 rmoveto
          11 10 8 8 23 vvcurveto
          36 vlineto
          12 -5 4 -6 -6 -5 -4 -5 -8 vhcurveto
          -18 -31 -68 -11 -27 hhcurveto
          -81 -38 34 115 19 -6 15 -18 -27 -50 -28 -21 -22 hvcurveto
          -25 -24 -1 -23 -15 vvcurveto
          -102 70 -90 152 56 86 27 38 41 vhcurveto
          -94 736 rmoveto
          -84 -110 -31 -97 -69 hvcurveto
          -17 -24 -9 -21 -17 vvcurveto
          -9 6 -3 5 6 9 3 19 27 vhcurveto
          53 79 81 7 35 hhcurveto
          93 98 -38 -170 hvcurveto
          -426 vlineto
          -21 10 -10 16 35 83 36 53 vhcurveto
          400 vlineto
          222 -137 74 -157 vhcurveto
          88 -343 rmoveto
          19 -32 -58 12 -51 hhcurveto
          -95 -101 -52 -81 -52 hvcurveto
          -11 -16 -14 -27 -18 vvcurveto
          -10 6 -2 6 8 12 9 12 15 vhcurveto
          54 68 70 14 65 hhcurveto
          32 60 -9 -24 52 hvcurveto
          -3 7 15 -11 9 hhcurveto
          8 6 7 16 hvcurveto
          66 vlineto
          23 -8 11 -17 10 vhcurveto
          endchar
        </CharString>
        <CharString name="ordmasculine">
          -236 633 120 561 120 hstem
          50 154 358 156 vstem
          379 1434 rmoveto
          -72 -116 -29 -103 -86 hvcurveto
          -6 -8 -28 -36 -22 vvcurveto
          -10 7 -2 6 8 14 8 10 15 vhcurveto
          51 73 58 21 85 hhcurveto
          170 55 -137 -199 -55 -7 -125 -27 -62 hvcurveto
          -18 -43 -17 -15 -10 vvcurveto
          -8 6 -7 9 39 68 40 92 49 vhcurveto
          41 76 13 105 73 vvcurveto
          252 -124 143 -215 vhcurveto
          -175 -395 rmoveto
          88 23 62 14 vvcurveto
          17 -10 4 -8 -31 -69 -30 -32 -27 vhcurveto
          -20 -25 -12 -65 -65 vvcurveto
          -193 50 -181 227 107 49 83 33 8 -4 8 -12 vhcurveto
          -17 -24 -12 -56 hhcurveto
          -145 -21 131 155 hvcurveto
          endchar
        </CharString>
        <CharString name="oslash">
          55 -31 140 -109 -21 934 142 hstemhm
          92 168 535 172 hintmask 01111000
          870 1183 rmoveto
          -45 -10 -17 -22 -20 -39 -636 -1226 rcurveline
          -12 -24 -3 -8 -10 vvcurveto
          -10 8 -8 12 52 52 22 36 19 vhcurveto
          36 70 rlineto
          21 11 11 4 9 hhcurveto
          5 5 -1 -1 4 hvcurveto
          hintmask 10111000
          -5 27 29 -3 32 hhcurveto
          139 84 99 49 10 -4 12 -17 hvcurveto
          -24 -19 -30 -80 hhcurveto
          -34 -35 4 11 -22 hvcurveto
          -8 5 -8 5 13 vvcurveto
          4 1 8 6 10 vhcurveto
          281 537 rlineto
          16 8 8 5 7 hhcurveto
          9 7 -9 -20 7 hvcurveto
          26 -75 14 -85 -104 vvcurveto
          -80 -28 -147 -32 -90 vhcurveto
          -23 -64 -24 -14 -16 vvcurveto
          -11 8 -8 13 43 86 76 106 53 vhcurveto
          47 97 29 135 106 vvcurveto
          170 -33 132 -71 90 vhcurveto
          -6 8 -14 10 19 vvcurveto
          8 3 10 6 12 vhcurveto
          76 145 rlineto
          15 29 0 10 4 vvcurveto
          11 -6 8 -15 vhcurveto
          hintmask 01111000
          -14 -15 -2 -5 -23 hvcurveto
          -625 -1011 rmoveto
          29 45 8 36 28 vvcurveto
          21 -5 17 -2 10 vhcurveto
          -11 54 -4 62 65 135 41 86 27 vvcurveto
          22 -10 8 -15 -43 -75 -47 -49 -29 vhcurveto
          -25 -43 -12 -90 -61 vvcurveto
          -141 14 -129 48 -96 vhcurveto
          -10 5 7 -12 13 hhcurveto
          14 21 15 47 31 hvcurveto
          405 784 rmoveto
          12 24 7 18 13 vvcurveto
          43 -82 1 -56 -116 -131 -32 -155 -122 vhcurveto
          -8 -10 -23 -37 -16 vvcurveto
          -14 6 -3 8 11 20 17 14 21 vhcurveto
          74 108 78 20 74 hhcurveto
          32 30 -3 -7 27 hvcurveto
          -4 13 13 -4 12 hhcurveto
          21 20 12 49 25 hvcurveto
          endchar
        </CharString>
        <CharString name="otilde">
          55 -31 144 798 144 238 155 -52 153 hstemhm
          92 188 496 191 hintmask 11011100
          524 1055 rmoveto
          -112 -131 -35 -152 -119 hvcurveto
          -8 -10 -23 -37 -16 vvcurveto
          -14 6 -3 8 11 20 17 14 21 vhcurveto
          74 108 78 18 74 hhcurveto
          248 71 -190 -287 -80 -8 -147 -33 -90 hvcurveto
          -22 -64 -25 -14 -16 vvcurveto
          -11 8 -8 13 43 86 76 106 53 vhcurveto
          47 97 29 135 106 vvcurveto
          342 -133 189 -310 vhcurveto
          -244 -503 rmoveto
          97 21 82 27 vvcurveto
          22 -10 8 -15 -43 -75 -47 -49 -29 vhcurveto
          -25 -43 -12 -90 -61 vvcurveto
          -279 58 -250 299 139 84 99 49 10 -4 12 -17 vhcurveto
          -24 -19 -26 -80 hhcurveto
          -223 -25 189 250 hvcurveto
          hintmask 11101100
          389 741 rmoveto
          124 74 129 96 16 -6 9 -12 -6 -8 -4 -5 -6 hvcurveto
          -29 -34 -30 -57 -88 -84 -56 101 -129 hhcurveto
          hintmask 11011100
          -121 -96 -125 -93 -20 7 -10 12 6 6 4 4 6 hvcurveto
          25 37 49 62 78 93 88 -103 96 hhcurveto
          endchar
        </CharString>
        <CharString name="p">
          59 -583 -21 573 144 798 144 hstem
          125 180 472 191 vstem
          360 971 rmoveto
          -13 -17 -13 -7 -9 hhcurveto
          -11 -5 11 25 hvcurveto
          25 vlineto
          28 -12 15 -23 -44 -101 -46 -76 vhcurveto
          -168 vlineto
          -15 2 -17 18 14 22 14 11 14 vhcurveto
          105 138 72 48 115 hhcurveto
          201 56 -186 -291 -80 -6 -147 -32 -90 hvcurveto
          -23 -63 -24 -16 -15 vvcurveto
          -11 8 -8 13 42 86 74 106 52 vhcurveto
          47 96 28 142 129 vvcurveto
          358 -147 146 -227 -68 -88 -27 -57 -78 vhcurveto
          7 -828 rmoveto
          -50 33 -12 60 57 vvcurveto
          400 vlineto
          29 -8 14 -23 -28 -59 -40 -40 -35 vhcurveto
          -24 -27 -3 -29 -31 vvcurveto
          -372 vlineto
          -84 25 -51 71 -42 vhcurveto
          -30 50 55 -21 92 hhcurveto
          153 109 88 64 10 -4 12 -17 hvcurveto
          -24 -35 -30 -111 hhcurveto
          -53 -45 14 16 -24 hvcurveto
          -62 -300 rmoveto
          37 -4 27 -29 22 vhcurveto
          25 -32 -52 31 -28 hhcurveto
          -23 -12 -17 -28 hvcurveto
          -501 vlineto
          -29 12 -14 23 53 92 49 80 vhcurveto
          endchar
        </CharString>
        <CharString name="paragraph">
          11 1289 145 hstem
          352 180 203 180 vstem
          696 1289 rmoveto
          27 12 -14 -29 hvcurveto
          -1715 vlineto
          -29 12 -14 23 53 92 45 80 vhcurveto
          1778 vlineto
          29 -12 14 -27 vhcurveto
          -517 hlineto
          -146 -145 -102 -196 -156 86 -87 100 -35 hvcurveto
          33 -11 32 -7 33 -3 rrcurveto
          -1306 vlineto
          -29 12 -14 23 53 92 45 80 vhcurveto
          1633 vlineto
          29 12 14 27 vhcurveto
          endchar
        </CharString>
        <CharString name="parenleft">
          -201 -583 -21 hstem
          195 239 vstem
          434 468 rmoveto
          359 65 383 141 227 vhcurveto
          27 41 13 23 15 vvcurveto
          10 -6 10 -16 -56 -80 -76 -108 -75 vhcurveto
          -109 -154 -143 -336 -396 vvcurveto
          -395 143 -337 109 -154 vhcurveto
          -109 75 80 -75 56 hhcurveto
          16 6 10 10 14 -13 28 -27 41 hvcurveto
          -141 227 -65 384 358 vvcurveto
          endchar
        </CharString>
        <CharString name="parenright">
          -201 -583 -21 hstem
          369 239 vstem
          369 464 rmoveto
          -359 -65 -383 -141 -227 vhcurveto
          -27 -41 -13 -23 -15 vvcurveto
          -10 6 -10 16 56 80 76 108 75 vhcurveto
          109 154 143 336 396 vvcurveto
          395 -143 337 -109 154 vhcurveto
          109 -75 -80 75 -56 hhcurveto
          -16 -6 -10 -10 -14 13 -28 27 -41 hvcurveto
          141 -227 65 -384 -358 vvcurveto
          endchar
        </CharString>
        <CharString name="percent">
          702 -31 123 -81 -21 647 123 -117 123 545 123 hstemhm
          -96 157 365 160 282 158 365 159 hintmask 1001111110000000
          240 1434 rmoveto
          -72 -115 -27 -103 -86 hvcurveto
          -6 -8 -29 -37 -18 vvcurveto
          -10 7 -2 6 8 14 8 10 15 vhcurveto
          51 73 88 13 52 hhcurveto
          170 61 -129 -199 -55 -10 -117 -27 -62 hvcurveto
          -18 -43 -17 -18 -10 vvcurveto
          -8 6 -7 9 39 73 35 92 49 vhcurveto
          41 76 15 105 73 vvcurveto
          238 -131 152 -215 vhcurveto
          -179 -390 rmoveto
          88 27 62 14 vvcurveto
          17 -10 4 -8 -31 -70 -29 -33 -26 vhcurveto
          -21 -24 -18 -66 -65 vvcurveto
          -193 57 -176 227 107 49 86 33 8 -4 8 -12 vhcurveto
          -17 -24 -12 -56 hhcurveto
          -145 -25 123 155 hvcurveto
          1143 -284 rmoveto
          -71 -115 -27 -102 -86 hvcurveto
          -6 -8 -29 -37 -19 vvcurveto
          -10 6 -2 6 9 14 8 10 14 vhcurveto
          52 74 88 12 51 hhcurveto
          170 62 -129 -199 -55 -11 -117 -26 -61 hvcurveto
          -19 -43 -16 -19 -10 vvcurveto
          -8 6 -6 8 39 74 35 92 49 vhcurveto
          41 76 14 104 74 vvcurveto
          237 -131 152 -215 vhcurveto
          -178 -389 rmoveto
          88 27 61 15 vvcurveto
          16 -11 4 -8 -30 -70 -29 -32 -27 vhcurveto
          -20 -25 -19 -66 -65 vvcurveto
          hintmask 0110111110000000
          -193 58 -176 227 107 49 86 33 8 -4 8 -13 vhcurveto
          -16 -25 -12 -55 hhcurveto
          -145 -25 123 156 hvcurveto
          -883 -328 rmoveto
          -16 -20 -13 -19 -12 vvcurveto
          -17 15 -6 10 72 63 27 47 37 vhcurveto
          1010 1337 rlineto
          12 17 3 10 6 vvcurveto
          12 -11 9 -14 -68 -69 -27 -47 -35 vhcurveto
          endchar
        </CharString>
        <CharString name="period">
          -537 11 -21 hstem
          133 201 vstem
          334 274 rmoveto
          29 -12 14 -23 -39 -72 -41 -40 -34 vhcurveto
          -17 -21 -4 -27 -20 vvcurveto
          -135 vlineto
          -29 12 -14 23 37 74 35 41 34 vhcurveto
          19 22 2 25 26 vvcurveto
          endchar
        </CharString>
        <CharString name="periodcentered">
          -624 619 317 hstem
          100 180 vstem
          280 893 rmoveto
          29 -12 14 -23 -39 -53 -27 -41 -35 vhcurveto
          -16 -20 -2 -21 -20 vvcurveto
          -145 vlineto
          -29 12 -14 23 39 53 26 41 35 vhcurveto
          16 21 2 20 21 vvcurveto
          endchar
        </CharString>
        <CharString name="plus">
          553 143 hstem
          645 143 vstem
          822 696 rmoveto
          -17 -17 4 33 hvcurveto
          402 vlineto
          28 -8 15 -22 -15 -41 -27 -41 -36 vhcurveto
          -19 -20 -2 -27 -27 vvcurveto
          -446 vlineto
          -33 17 -4 17 vhcurveto
          449 hlineto
          27 27 2 18 20 hvcurveto
          41 37 27 41 15 vvcurveto
          22 -15 8 -28 vhcurveto
          -439 -253 rmoveto
          39 -20 11 -53 -51 -19 -11 -39 vhcurveto
          -369 vlineto
          -29 6 -14 19 22 39 26 41 37 vhcurveto
          18 21 2 26 27 vvcurveto
          -252 381 rmoveto
          38 11 20 54 49 -11 20 -38 hvcurveto
          -231 hlineto
          -26 -27 -2 -18 -21 hvcurveto
          -41 -37 -26 -41 -14 vvcurveto
          -23 14 -8 29 vhcurveto
          endchar
        </CharString>
        <CharString name="plusminus">
          0 143 510 143 hstem
          645 143 vstem
          822 796 rmoveto
          -17 -17 4 33 hvcurveto
          302 vlineto
          28 -8 15 -22 -15 -41 -27 -41 -36 vhcurveto
          -19 -20 -2 -27 -27 vvcurveto
          -346 vlineto
          -33 17 -4 17 vhcurveto
          449 hlineto
          27 27 2 18 20 hvcurveto
          41 37 27 41 15 vvcurveto
          22 -15 8 -28 vhcurveto
          -439 -253 rmoveto
          39 -20 11 -53 -51 -19 -11 -39 vhcurveto
          -269 vlineto
          -29 6 -14 19 22 39 26 41 37 vhcurveto
          18 21 2 26 27 vvcurveto
          -252 281 rmoveto
          38 11 20 54 49 -11 20 -38 hvcurveto
          -231 hlineto
          -26 -27 -2 -18 -21 hvcurveto
          -41 -37 -26 -41 -14 vvcurveto
          -23 14 -8 29 vhcurveto
          921 -653 rmoveto
          27 27 2 18 20 hvcurveto
          41 37 27 41 15 vvcurveto
          22 -15 8 -28 vhcurveto
          -922 hlineto
          -26 -27 -2 -18 -21 hvcurveto
          -41 -37 -26 -41 -14 vvcurveto
          -23 14 -8 29 vhcurveto
          endchar
        </CharString>
        <CharString name="q">
          69 -583 -21 573 144 797 145 hstem
          92 188 490 180 vstem
          770 -561 rmoveto
          -29 12 -14 23 39 53 26 41 35 vhcurveto
          16 21 2 20 21 vvcurveto
          1487 vlineto
          28 -12 15 -23 -38 -54 -27 -41 -35 vhcurveto
          -16 -20 -2 -21 -20 vvcurveto
          -85 -770 rmoveto
          -21 -39 -42 -22 -63 hhcurveto
          -187 -74 125 247 hvcurveto
          154 35 95 25 vvcurveto
          22 -10 8 -14 -43 -74 -47 -53 -35 vhcurveto
          -26 -41 -21 -97 -84 vvcurveto
          -428 187 -70 186 86 73 27 57 69 vhcurveto
          15 13 12 14 46 vvcurveto
          32 -7 5 -9 -6 -5 -3 -4 -8 vhcurveto
          -22 708 rmoveto
          -10 16 7 -3 9 hhcurveto
          11 14 7 71 78 -17 10 -31 12 hvcurveto
          17 -44 -42 9 -51 hhcurveto
          -127 -136 -43 -144 -102 hvcurveto
          -8 -10 -21 -31 -20 vvcurveto
          -14 6 -5 11 10 18 13 14 21 vhcurveto
          62 94 86 33 102 hhcurveto
          62 52 -11 -35 60 hvcurveto
          endchar
        </CharString>
        <CharString name="question">
          -127 11 -21 1286 158 hstem
          371 201 70 200 vstem
          373 440 rmoveto
          -28 13 -15 22 37 74 35 41 34 vhcurveto
          19 23 2 24 27 256 268 37 256 vvcurveto
          229 -162 109 -223 -172 -160 -101 -194 -65 vhcurveto
          -2 -6 -8 -29 -23 vvcurveto
          -14 4 -16 16 14 13 14 41 24 vhcurveto
          117 74 107 53 100 hhcurveto
          135 105 -68 -153 hvcurveto
          -228 -269 -82 -305 vvcurveto
          199 -166 rmoveto
          29 -12 14 -23 -39 -71 -41 -40 -35 vhcurveto
          -17 -21 -4 -27 -20 vvcurveto
          -135 vlineto
          -29 13 -14 22 37 74 35 41 34 vhcurveto
          19 22 2 25 26 vvcurveto
          endchar
        </CharString>
        <CharString name="questiondown">
          -122 -389 158 1286 -20 hstem
          35 200 70 201 vstem
          504 605 rmoveto
          28 -13 15 -22 -37 -74 -35 -41 -34 vhcurveto
          -19 -23 -2 -24 -27 -256 -268 -37 -256 vvcurveto
          -229 162 -109 223 172 160 101 194 65 vhcurveto
          2 6 8 29 23 vvcurveto
          14 -4 16 -16 -14 -13 -14 -41 -24 vhcurveto
          -117 -74 -107 -53 -100 hhcurveto
          -135 -105 68 153 hvcurveto
          228 269 82 305 vvcurveto
          -199 166 rmoveto
          -29 12 -14 23 39 71 41 40 35 vhcurveto
          17 21 4 27 20 vvcurveto
          135 vlineto
          29 -13 14 -22 -37 -74 -35 -41 -34 vhcurveto
          -19 -22 -2 -25 -26 vvcurveto
          endchar
        </CharString>
        <CharString name="quotedbl">
          -306 1055 481 hstem
          133 157 109 157 vstem
          299 1499 rmoveto
          25 -13 12 -18 -27 -55 -26 -41 -31 vhcurveto
          -16 -20 -6 -22 -20 vvcurveto
          13 -309 rlineto
          -29 3 9 -14 21 hhcurveto
          24 33 24 41 32 hvcurveto
          18 25 4 22 41 vvcurveto
          275 291 rmoveto
          25 -13 12 -18 -27 -55 -26 -41 -31 vhcurveto
          -16 -20 -6 -22 -20 vvcurveto
          13 -309 rlineto
          -29 3 9 -14 21 hhcurveto
          24 33 24 41 32 hvcurveto
          18 25 4 22 41 vvcurveto
          endchar
        </CharString>
        <CharString name="quotedblbase">
          -78 -279 596 hstem
          133 660 vstem
          449 233 rmoveto
          14 36 0 9 5 vvcurveto
          22 -14 12 -20 -38 -79 -41 -40 -33 vhcurveto
          -17 -21 -8 -27 -6 -20 -95 -338 rcurveline
          -19 -68 -1 -1 -10 vvcurveto
          -21 17 -9 18 55 55 76 76 33 vhcurveto
          468 360 rmoveto
          14 36 0 9 5 vvcurveto
          22 -14 12 -20 -38 -79 -41 -40 -33 vhcurveto
          -17 -21 -8 -27 -6 -20 -95 -338 rcurveline
          -19 -68 -1 -1 -10 vvcurveto
          -21 17 -9 18 55 55 76 76 33 vhcurveto
          endchar
        </CharString>
        <CharString name="quotedblleft">
          -74 1195 596 hstem
          139 660 vstem
          153 1279 rmoveto
          -14 -36 0 -9 -5 vvcurveto
          -22 14 -12 20 38 79 41 40 33 vhcurveto
          17 21 8 27 6 20 95 338 rcurveline
          19 68 1 1 10 vvcurveto
          21 -17 9 -18 -55 -55 -76 -76 -33 vhcurveto
          192 -360 rmoveto
          -14 -36 0 -9 -5 vvcurveto
          -22 14 -12 20 38 79 41 40 33 vhcurveto
          17 21 8 27 6 20 95 338 rcurveline
          19 68 1 1 10 vvcurveto
          21 -17 9 -18 -55 -55 -76 -76 -33 vhcurveto
          endchar
        </CharString>
        <CharString name="quotedblright">
          -74 1195 596 hstem
          135 660 vstem
          451 1707 rmoveto
          14 36 0 9 5 vvcurveto
          22 -14 12 -20 -38 -79 -41 -40 -33 vhcurveto
          -17 -21 -8 -27 -6 -20 -95 -338 rcurveline
          -19 -68 -1 -1 -10 vvcurveto
          -21 17 -9 18 55 55 76 76 33 vhcurveto
          468 360 rmoveto
          14 36 0 9 5 vvcurveto
          22 -14 12 -20 -38 -79 -41 -40 -33 vhcurveto
          -17 -21 -8 -27 -6 -20 -95 -338 rcurveline
          -19 -68 -1 -1 -10 vvcurveto
          -21 17 -9 18 55 55 76 76 33 vhcurveto
          endchar
        </CharString>
        <CharString name="quoteleft">
          -404 1195 596 hstem
          139 330 vstem
          153 1279 rmoveto
          -14 -36 0 -9 -5 vvcurveto
          -22 14 -12 20 38 79 41 40 33 vhcurveto
          17 21 8 27 6 20 95 338 rcurveline
          19 68 1 1 10 vvcurveto
          21 -17 9 -18 -55 -55 -76 -76 -33 vhcurveto
          endchar
        </CharString>
        <CharString name="quoteright">
          -404 1195 596 hstem
          135 330 vstem
          451 1707 rmoveto
          14 36 0 9 5 vvcurveto
          22 -14 12 -20 -38 -79 -41 -40 -33 vhcurveto
          -17 -21 -8 -27 -6 -20 -95 -338 rcurveline
          -19 -68 -1 -1 -10 vvcurveto
          -21 17 -9 18 55 55 76 76 33 vhcurveto
          endchar
        </CharString>
        <CharString name="quotesinglbase">
          -408 -279 596 hstem
          133 330 vstem
          449 233 rmoveto
          14 36 0 9 5 vvcurveto
          22 -14 12 -20 -38 -79 -41 -40 -33 vhcurveto
          -17 -21 -8 -27 -6 -20 -95 -338 rcurveline
          -19 -68 -1 -1 -10 vvcurveto
          -21 17 -9 18 55 55 76 76 33 vhcurveto
          endchar
        </CharString>
        <CharString name="quotesingle">
          -558 1055 481 hstem
          133 170 vstem
          313 1499 rmoveto
          25 -14 12 -20 -29 -60 -26 -41 -34 vhcurveto
          -17 -20 -6 -22 -20 vvcurveto
          14 -309 rlineto
          -29 3 10 -14 22 hhcurveto
          27 35 24 41 35 hvcurveto
          20 25 4 22 41 vvcurveto
          endchar
        </CharString>
        <CharString name="r">
          -267 11 -21 921 144 0 -20 hstemhm
          125 180 hintmask 10110000
          125 33 rmoveto
          -29 12 -14 23 53 92 46 80 vhcurveto
          546 vlineto
          28 -8 15 -23 -29 -58 -42 -40 -35 vhcurveto
          -25 -28 -2 -27 -31 vvcurveto
          430 518 rmoveto
          -57 -68 -31 -76 -76 hvcurveto
          -20 -20 -6 -4 -9 hhcurveto
          -8 -6 8 24 hvcurveto
          56 vlineto
          28 -12 15 -23 -53 -92 -48 -78 vhcurveto
          -194 vlineto
          -14 4 -23 18 13 10 7 12 14 vhcurveto
          hintmask 11010000
          117 131 64 77 82 hhcurveto
          21 21 -2 -20 42 hvcurveto
          -17 33 17 -8 26 hhcurveto
          41 75 56 45 hvcurveto
          hintmask 10110000
          59 -120 31 -62 vhcurveto
          endchar
        </CharString>
        <CharString name="registered">
          703 -102 120 635 104 367 115 180 117 hstem
          184 131 386 145 328 154 349 129 vstem
          1174 902 rmoveto
          -91 -48 -81 -96 -53 vhcurveto
          -22 -12 -4 -15 -5 vvcurveto
          -10 2 -7 6 -10 vhcurveto
          200 -340 rlineto
          -28 16 13 -2 13 hhcurveto
          21 17 9 11 19 hvcurveto
          37 21 1 18 10 vvcurveto
          12 -9 18 -7 13 vhcurveto
          -169 263 rlineto
          -8 12 -2 11 8 vvcurveto
          13 8 11 12 8 vhcurveto
          124 83 30 93 77 vvcurveto
          279 -253 21 -112 -51 -40 0 -2 -47 vhcurveto
          -56 -2 -68 -55 -40 vvcurveto
          -15 12 -1 16 vhcurveto
          172 hlineto
          146 127 -42 -180 hvcurveto
          -328 -351 rmoveto
          45 -25 17 -47 -45 -28 -15 -43 vhcurveto
          -277 vlineto
          -20 9 -10 16 27 54 24 29 24 vhcurveto
          14 16 1 17 18 vvcurveto
          -145 344 rmoveto
          -40 30 -3 30 46 67 4 5 22 vhcurveto
          91 20 44 39 18 vvcurveto
          18 -18 0 -13 vhcurveto
          -124 hlineto
          -20 -10 10 15 hvcurveto
          260 vlineto
          35 -22 6 -51 -44 -28 -6 -35 vhcurveto
          -517 -329 rmoveto
          -473 324 -342 485 453 360 364 451 452 -331 371 -480 -469 -342 -371 -452 vhcurveto
          131 hmoveto
          379 277 327 401 406 278 -327 -379 -379 -270 -316 -410 -417 -265 316 379 vhcurveto
          endchar
        </CharString>
        <CharString name="ring">
          -391 1207 100 242 101 hstem
          80 127 199 127 vstem
          307 1549 rmoveto
          60 39 -43 -69 -98 -51 -32 -46 -56 -46 46 74 95 59 27 41 hvcurveto
          -2 101 rmoveto
          -111 -114 -91 -132 -152 115 -68 115 113 110 84 148 64 -30 60 -45 36 hvcurveto
          35 -42 -57 16 -54 hhcurveto
          endchar
        </CharString>
        <CharString name="s">
          -117 -31 144 798 144 hstem
          659 146 vstem
          659 227 rmoveto
          -57 -6 -49 -41 -66 vhcurveto
          -12 -18 -4 -4 -8 vvcurveto
          -9 6 -6 10 60 133 115 182 139 -55 129 -242 31 vhcurveto
          -191 25 -45 12 -30 133 rrcurveto
          23 -6 -11 8 -14 hhcurveto
          -35 -94 -50 -70 -117 82 -109 268 -25 hvcurveto
          133 -12 94 -45 -152 vvcurveto
          66 770 rmoveto
          39 -51 -103 19 -77 hhcurveto
          -121 -140 -27 -133 -110 hvcurveto
          -8 -10 -23 -33 -18 vvcurveto
          -13 6 -4 8 11 20 17 12 21 vhcurveto
          61 100 90 4 58 hhcurveto
          55 49 -12 -27 65 hvcurveto
          -10 27 16 -10 21 hhcurveto
          47 70 66 32 21 -13 12 -18 14 hvcurveto
          -453 -833 rmoveto
          14 -24 -19 6 -16 hhcurveto
          -51 -70 -55 -41 -55 125 -64 113 170 81 107 39 16 -9 8 -14 hvcurveto
          -18 -40 -26 -74 hhcurveto
          -74 -35 24 27 -45 hvcurveto
          endchar
        </CharString>
        <CharString name="section">
          18 -604 164 1790 164 hstemhm
          74 190 -140 185 469 149 -105 190 hintmask 11101000
          587 903 rmoveto
          -165 89 -113 35 124 vvcurveto
          35 -15 6 -20 -49 -78 -70 -53 -15 vhcurveto
          -4 -13 -4 -14 -19 vvcurveto
          -138 156 -38 249 -128 vhcurveto
          258 -133 35 -90 -118 vvcurveto
          -51 -18 -61 -75 -64 vhcurveto
          -4 -4 -12 -10 -15 vvcurveto
          -10 9 -10 19 101 170 108 199 161 -110 112 -315 170 vhcurveto
          340 492 rmoveto
          74 -216 45 -104 -200 -133 -62 -143 -118 vhcurveto
          -18 -22 -37 -57 -24 vvcurveto
          -20 10 -4 12 15 28 24 21 25 vhcurveto
          88 106 74 35 115 114 125 -67 61 hhcurveto
          46 95 57 55 hvcurveto
          -519 -1999 rmoveto
          hintmask 11010100
          176 62 131 35 18 -6 14 -19 hvcurveto
          -26 -35 -34 -65 hhcurveto
          -31 -48 3 72 -83 hvcurveto
          20 -24 -33 23 -26 hhcurveto
          -49 -44 -55 -19 -19 hvcurveto
          -16 -16 -6 -16 -17 vvcurveto
          -20 12 -24 21 -19 vhcurveto
          -90 98 83 -6 78 hhcurveto
          -144 1122 rmoveto
          60 1 44 64 75 vhcurveto
          4 4 12 10 15 vvcurveto
          10 -7 11 -14 -101 -149 -114 -197 -136 112 -157 313 -139 vhcurveto
          265 -118 14 -95 -118 vvcurveto
          -48 -18 -109 -81 -46 vhcurveto
          -7 -4 -9 -8 -13 vvcurveto
          -10 7 -11 20 101 177 106 225 176 -90 102 -343 173 vhcurveto
          -196 99 -75 111 102 vvcurveto
          endchar
        </CharString>
        <CharString name="semicolon">
          -392 1054 -20 hstem
          274 201 vstem
          475 1011 rmoveto
          29 -12 14 -23 -39 -72 -41 -40 -34 vhcurveto
          -17 -21 -4 -27 -20 vvcurveto
          -135 vlineto
          -29 12 -14 23 37 74 35 41 34 vhcurveto
          19 22 2 25 26 vvcurveto
          -26 -643 rmoveto
          14 36 0 9 5 vvcurveto
          22 -14 12 -20 -38 -79 -41 -40 -33 vhcurveto
          -17 -21 -8 -27 -6 -20 -95 -338 rcurveline
          -19 -68 -1 -1 -10 vvcurveto
          -21 17 -9 18 55 55 76 76 33 vhcurveto
          endchar
        </CharString>
        <CharString name="seven">
          -201 11 -21 1229 184 hstem
          -41 818 vstem
          671 1219 rmoveto
          55 28 22 77 18 hvcurveto
          4 17 1 14 11 vvcurveto
          32 -17 11 -38 vhcurveto
          -618 hlineto
          -27 -26 -2 -19 -20 hvcurveto
          -41 -37 -31 -81 -15 vvcurveto
          -22 14 -8 29 vhcurveto
          229 -1182 rmoveto
          -3 -10 -2 -8 -6 vvcurveto
          -17 13 -6 12 25 41 12 58 57 vhcurveto
          40 41 11 32 13 45 270 919 rcurveline
          49 14 -6 9 -85 hhcurveto
          -70 -11 -6 -31 -9 hvcurveto
          endchar
        </CharString>
        <CharString name="six">
          96 -31 164 -112 -21 713 159 398 164 hstemhm
          117 190 497 200 hintmask 10111100
          934 1317 rmoveto
          37 -43 19 -21 10 vhcurveto
          29 -59 -70 22 -88 hhcurveto
          -226 -124 -95 -137 -104 hvcurveto
          -19 -24 -33 -54 -24 vvcurveto
          -21 11 -4 12 13 29 24 21 24 vhcurveto
          87 101 63 63 132 133 59 -72 69 hhcurveto
          46 95 64 55 hvcurveto
          -496 -1348 rmoveto
          174 86 117 61 13 -6 10 -16 hvcurveto
          -35 -41 -37 -84 hhcurveto
          -186 -23 207 195 43 -24 2 -11 -62 -93 -73 -88 -178 50 -272 271 hvcurveto
          -47 862 rmoveto
          -7 -16 -13 -3 -10 hhcurveto
          -19 -10 11 24 hvcurveto
          58 33 121 30 vvcurveto
          29 -18 2 -10 -48 -95 -78 -68 -35 vhcurveto
          -24 -46 -24 -150 -110 vvcurveto
          -33 8 -24 24 10 13 4 11 15 vhcurveto
          72 98 111 39 108 hhcurveto
          248 67 -169 -159 hvcurveto
          hintmask 01111100
          -119 -12 -72 -49 -98 vhcurveto
          -22 -44 -21 -13 -19 vvcurveto
          -10 7 -10 16 59 104 74 116 59 vhcurveto
          45 89 14 98 51 vvcurveto
          283 -132 161 -284 vhcurveto
          hintmask 10111100
          -43 -94 -16 -25 -60 hvcurveto
          endchar
        </CharString>
        <CharString name="slash">
          -208 11 -21 hstem
          -100 996 vstem
          791 1526 rmoveto
          -57 -13 -35 -28 -26 -49 -750 -1370 rcurveline
          -16 -29 -7 -14 -13 vvcurveto
          -12 9 -8 16 66 90 28 45 24 vhcurveto
          776 1407 rlineto
          11 19 4 14 8 vvcurveto
          15 -8 10 -19 -18 -31 -4 -6 -29 vhcurveto
          endchar
        </CharString>
        <CharString name="space">
          -578 endchar
        </CharString>
        <CharString name="sterling">
          -82 0 164 360 144 602 164 hstemhm
          124 181 -6 178 hintmask 11101000
          103 648 rmoveto
          -42 -36 -25 -42 -15 vvcurveto
          -22 14 -9 29 vhcurveto
          84 hlineto
          26 15 10 19 7 -2 9 -5 10 hvcurveto
          -32 63 rlineto
          15 -8 -10 7 -11 hhcurveto
          -10 -12 -6 -10 -11 hvcurveto
          759 667 rmoveto
          74 -164 45 -104 -200 -121 -70 -143 -118 vhcurveto
          -18 -22 -37 -57 -24 vvcurveto
          -20 10 -4 12 15 28 24 21 25 vhcurveto
          hintmask 11110000
          88 106 62 43 115 114 60 -65 74 hhcurveto
          46 95 55 55 hvcurveto
          -470 -851 rmoveto
          -92 -1 -26 -31 -61 -23 -96 -28 -49 hvcurveto
          -60 -105 -55 -30 -31 vvcurveto
          -25 19 -10 22 vhcurveto
          650 hlineto
          26 27 2 18 20 hvcurveto
          41 37 27 62 14 vvcurveto
          23 -14 8 -29 vhcurveto
          -455 hlineto
          -23 -16 12 23 hvcurveto
          56 49 124 44 vvcurveto
          hintmask 11101000
          20 -11 21 -74 vhcurveto
          289 60 rmoveto
          27 27 3 18 20 hvcurveto
          41 37 27 41 14 vvcurveto
          23 -15 8 -28 vhcurveto
          -256 hlineto
          -66 -23 17 13 -14 hvcurveto
          -68 64 -48 127 154 vvcurveto
          30 -2 29 -35 -40 -78 -60 -58 -19 vhcurveto
          -4 -12 -3 -23 -22 vvcurveto
          -86 59 -142 78 -113 vhcurveto
          -36 25 26 -26 73 hhcurveto
          endchar
        </CharString>
        <CharString name="t">
          -261 -31 144 768 143 hstem
          -31 135 52 180 vstem
          336 774 rmoveto
          55 -49 0 -40 -41 -50 0 -55 vhcurveto
          -387 vlineto
          -307 80 -111 202 203 72 137 56 16 -11 8 -14 vhcurveto
          -35 -32 -73 -127 hhcurveto
          -101 -57 73 238 hvcurveto
          -232 567 rmoveto
          25 -8 8 -14 -35 -78 -85 -36 -18 17 -4 18 vhcurveto
          47 hlineto
          45 8 24 29 hvcurveto
          232 272 rmoveto
          29 -12 14 -23 -53 -92 -45 -81 vhcurveto
          -189 vlineto
          -45 24 -8 29 vhcurveto
          268 hlineto
          51 37 2 10 27 hvcurveto
          43 16 57 60 32 vvcurveto
          19 -16 4 -19 vhcurveto
          -268 hlineto
          -29 -24 8 45 hvcurveto
          endchar
        </CharString>
        <CharString name="thorn">
          46 -583 -21 573 144 798 144 hstem
          124 180 462 189 vstem
          355 971 rmoveto
          -13 -17 -13 -7 -9 hhcurveto
          -11 -5 11 25 hvcurveto
          4 506 rlineto
          29 -12 14 -23 -53 -92 -48 -78 vhcurveto
          -641 vlineto
          -16 2 -20 18 14 21 14 11 15 vhcurveto
          105 138 65 48 116 hhcurveto
          201 52 -186 -283 -88 -8 -147 -33 -90 hvcurveto
          -23 -64 -25 -14 -16 vvcurveto
          -11 8 -8 12 42 86 73 107 53 vhcurveto
          48 96 29 143 128 vvcurveto
          358 -141 146 -227 -68 -86 -27 -57 -78 vhcurveto
          124 -858 rmoveto
          -118 -53 58 122 hvcurveto
          -4 402 rlineto
          29 -8 14 -23 -26 -61 -42 -40 -35 vhcurveto
          -22 -25 -5 -23 -36 vvcurveto
          4 -336 rlineto
          -202 2 96 -65 185 hhcurveto
          153 99 88 64 10 -5 12 -16 hvcurveto
          -25 -27 -30 -111 hhcurveto
          -175 -286 rmoveto
          37 -4 27 -29 22 vhcurveto
          25 -32 -52 31 -28 hhcurveto
          -23 -12 -17 -28 hvcurveto
          -485 vlineto
          -29 12 -14 23 53 92 46 80 vhcurveto
          endchar
        </CharString>
        <CharString name="three">
          43 -31 157 1093 184 hstem
          742 208 vstem
          769 1219 rmoveto
          36 24 11 21 17 hvcurveto
          37 47 rlineto
          20 27 15 23 18 vvcurveto
          22 -15 15 -29 vhcurveto
          -620 hlineto
          -26 -27 -2 -19 -21 hvcurveto
          -40 -36 -39 -64 -33 vvcurveto
          -22 14 -8 29 vhcurveto
          586 -121 rmoveto
          17 13 12 40 -66 hhcurveto
          -70 -41 -10 -27 -20 hvcurveto
          -235 -317 rlineto
          -11 -15 -9 -15 -11 vvcurveto
          -17 10 -8 23 215 191 -71 -283 -76 -13 -105 -55 -89 vhcurveto
          -27 -44 -16 -16 -16 vvcurveto
          -10 8 -9 14 105 192 172 220 240 -145 146 -191 44 vhcurveto
          -28 7 -20 8 18 vvcurveto
          8 4 10 10 13 vhcurveto
          -234 -933 rmoveto
          197 57 125 35 16 -6 13 -19 hvcurveto
          -24 -33 -32 -63 hhcurveto
          -36 -41 6 56 -67 hvcurveto
          20 -25 -21 15 -27 hhcurveto
          -48 -49 -47 -16 -16 hvcurveto
          -16 -17 -7 -16 -14 vvcurveto
          -22 6 -18 25 -22 vhcurveto
          -72 81 76 -10 56 hhcurveto
          endchar
        </CharString>
</ttFont>
